0
SECTION
2
HEADER
9
$INSUNITS
70
4
9
$ACADVER
1
AC1014
9
$HANDSEED
5
FFFF
0
ENDSEC
0
SECTION
2
TABLES
0
TABLE
2
VPORT
5
8
100
AcDbSymbolTable
0
ENDTAB
0
TABLE
2
LTYPE
5
5
100
AcDbSymbolTable
0
LTYPE
5
14
100
AcDbSymbolTableRecord
100
AcDbLinetypeTableRecord
2
BYBLOCK
70
0
0
LTYPE
5
15
100
AcDbSymbolTableRecord
100
AcDbLinetypeTableRecord
2
BYLAYER
70
0
0
LTYPE
5
16
100
AcDbSymbolTableRecord
100
AcDbLinetypeTableRecord
2
DASHED
70
0
3
Dashed __ __ __ __ __ __ __ __ __ __ __ __ __ _
72
65
73
2
40
0.75
49
0.5
74
0
49
-0.25
74
0
0
ENDTAB
0
TABLE
2
LAYER
5
2
100
AcDbSymbolTable
70
2
0
LAYER
5
50
100
AcDbSymbolTableRecord
100
AcDbLayerTableRecord
2
0
70
0
62
7
6
CONTINUOUS
0
ENDTAB
0
TABLE
2
STYLE
5
3
100
AcDbSymbolTable
70
1
0
STYLE
5
11
100
AcDbSymbolTableRecord
100
AcDbTextStyleTableRecord
2
STANDARD
70
0
0
ENDTAB
0
TABLE
2
VIEW
5
6
100
AcDbSymbolTable
70
0
0
ENDTAB
0
TABLE
2
UCS
5
7
100
AcDbSymbolTable
70
0
0
ENDTAB
0
TABLE
2
APPID
5
9
100
AcDbSymbolTable
70
2
0
APPID
5
12
100
AcDbSymbolTableRecord
100
AcDbRegAppTableRecord
2
ACAD
70
0
0
ENDTAB
0
TABLE
2
DIMSTYLE
5
A
100
AcDbSymbolTable
70
1
0
ENDTAB
0
TABLE
2
BLOCK_RECORD
5
1
100
AcDbSymbolTable
70
1
0
BLOCK_RECORD
5
1F
100
AcDbSymbolTableRecord
100
AcDbBlockTableRecord
2
*MODEL_SPACE
0
BLOCK_RECORD
5
1B
100
AcDbSymbolTableRecord
100
AcDbBlockTableRecord
2
*PAPER_SPACE
0
ENDTAB
0
ENDSEC
0
SECTION
2
BLOCKS
0
BLOCK
5
20
100
AcDbEntity
100
AcDbBlockBegin
2
*MODEL_SPACE
0
ENDBLK
5
21
100
AcDbEntity
100
AcDbBlockEnd
0
BLOCK
5
1C
100
AcDbEntity
100
AcDbBlockBegin
2
*PAPER_SPACE
0
ENDBLK
5
1D
100
AcDbEntity
100
AcDbBlockEnd
0
ENDSEC
0
SECTION
2
ENTITIES
0
LINE
5
100
100
AcDbEntity
8
0
100
AcDbLine
10
38.086742955294426
20
-879.28550781143269
30
0
11
38.090696314224601
21
-879.28413175491767
31
0
0
LINE
5
101
100
AcDbEntity
8
0
100
AcDbLine
10
38.090696314224601
20
-879.28413175491767
30
0
11
38.152302872134527
21
-879.46100313561362
31
0
0
LINE
5
102
100
AcDbEntity
8
0
100
AcDbLine
10
38.152302872134527
20
-879.46100313561362
30
0
11
38.155171439104407
21
-879.46868191428939
31
0
0
LINE
5
103
100
AcDbEntity
8
0
100
AcDbLine
10
38.155171439104407
20
-879.46868191428939
30
0
11
38.154999819664539
21
-879.46874602614275
31
0
0
LINE
5
104
100
AcDbEntity
8
0
100
AcDbLine
10
38.154999819664539
20
-879.46874602614275
30
0
11
38.15648243017435
21
-879.47300257571305
31
0
0
ARC
5
105
100
AcDbEntity
8
0
100
AcDbCircle
10
36.173065496588819
20
-880.16385199239289
30
0
40
2.1002894202848448
210
0
220
0
230
1
100
AcDbArc
50
-69.514315519917062
51
19.203878893674368
0
SPLINE
5
106
100
AcDbEntity
8
0
100
AcDbSpline
70
0
71
3
72
12
73
8
74
0
42
0.000000001
43
0.0000000001
44
0.0000000001
40
-0.25441425753362878
40
-0.25441425753362878
40
-0.25441425753362878
40
-0.25441425753362878
40
-0.19994927526395345
40
-0.19994927526395345
40
-0.11724510893621087
40
-0.11724510893621087
40
-0.072638757990336797
40
-0.072638757990336797
40
-0.072638757990336797
40
-0.072638757990336797
10
36.908110800003868
20
-882.131318396398
30
-4.4408920985006262e-15
10
36.723095209724335
20
-882.20043477059198
30
-4.4408920985006262e-15
10
36.533608457587263
20
-882.26951201815223
30
0
10
36.083542230293517
20
-882.34985253228888
30
0
10
35.805280090901164
20
-882.34439293811829
30
0
10
35.390807444803869
20
-882.25349879053829
30
0
10
35.249519058558008
20
-882.20635357775734
30
-4.4408920985006262e-15
10
35.11448033770435
20
-882.14476735879418
30
-4.4408920985006262e-15
0
ARC
5
107
100
AcDbEntity
8
0
100
AcDbCircle
10
35.986345175366935
20
-880.2331261702252
30
9.9240395149253646e-44
40
2.1010759931485081
210
-4.0918325141022133e-32
220
-8.9717066600057049e-32
230
1
100
AcDbArc
50
225.7047341156844
51
245.48313224070731
0
LINE
5
108
100
AcDbEntity
8
0
100
AcDbLine
10
34.519045837534307
20
-881.73697223355123
30
-1.9496008880418947e-31
11
34.870900024304348
21
-882.67886044812326
31
-1.2325951644078309e-30
0
ARC
5
109
100
AcDbEntity
8
0
100
AcDbCircle
10
47.985663244264316
20
-877.77957885658884
30
0
40
13.999999086741528
210
-1.1698309577617918e-31
220
6.1562176372105765e-32
230
1
100
AcDbArc
50
200.4841778960693
51
300.05438414967
0
LINE
5
110
100
AcDbEntity
8
0
100
AcDbLine
10
54.997167857715567
20
-889.89728398108059
30
1.4760522140746016e-30
11
114.43143057302439
21
-855.50764769297621
31
-1.1832913578315177e-29
0
ARC
5
111
100
AcDbEntity
8
0
100
AcDbCircle
10
107.4199272082646
20
-843.38994079084159
30
0
40
14.000000000002766
210
3.3794866941940204e-31
220
-7.8095512806122987e-31
230
1
100
AcDbArc
50
-59.945623917116208
51
35.484322132033988
0
LINE
5
112
100
AcDbEntity
8
0
100
AcDbLine
10
118.81976861041169
20
-835.26321844995255
30
1.2436762993653719e-30
11
118.23621947816463
21
-834.44463904253655
31
9.7375017988218645e-30
0
ARC
5
113
100
AcDbEntity
8
0
100
AcDbCircle
10
116.16952705521544
20
-834.81880221279744
30
0
40
2.1002894203072984
210
0
220
0
230
1
100
AcDbArc
50
-54.514200371344501
51
10.261927063498584
0
LINE
5
114
100
AcDbEntity
8
0
100
AcDbLine
10
117.38874751023454
20
-836.52898265097281
30
0
11
117.22588843353464
21
-836.64508167825852
31
0
0
SPLINE
5
115
100
AcDbEntity
8
0
100
AcDbSpline
70
0
71
3
72
16
73
12
74
0
42
0.000000001
43
0.0000000001
44
0.0000000001
40
-0.32573809126267811
40
-0.32573809126267811
40
-0.32573809126267811
40
-0.32573809126267811
40
-0.28608747681292285
40
-0.28608747681292285
40
-0.2027266875111603
40
-0.2027266875111603
40
-0.12020721339396837
40
-0.12020721339396837
40
-0.057927036885073085
40
-0.057927036885073085
40
0
40
0
40
0
40
0
10
117.22588843353464
20
-836.64508167825852
30
0
10
117.11876247533411
20
-836.7214496632597
30
0
10
117.00150093277301
20
-836.78933763797704
30
0
10
116.62870387697339
20
-836.96008182842434
30
0
10
116.35560286204012
20
-837.02451282573406
30
0
10
115.80298591059801
20
-837.04324240917731
30
0
10
115.52890720300937
20
-836.99846478982749
30
0
10
115.07680389139097
20
-836.82944233996409
30
0
10
114.89419741721235
20
-836.7283125719074
30
0
10
114.57612865774948
20
-836.48462155930906
30
0
10
114.43977748534721
20
-836.34661038608328
30
0
10
114.32420772034462
20
-836.19192546439353
30
0
0
LINE
5
116
100
AcDbEntity
8
0
100
AcDbLine
10
114.32420772034462
20
-836.19192546439331
30
0
11
114.48422342202448
21
-836.07233585112294
31
0
0
LINE
5
117
100
AcDbEntity
8
0
100
AcDbLine
10
114.48422342202448
20
-836.07233585112294
30
0
11
114.32136854484455
21
-836.18843188456424
31
0
0
LINE
5
118
100
AcDbEntity
8
0
100
AcDbLine
10
114.32136854484455
20
-836.18843188456424
30
0
11
110.4750195348845
21
-830.79292717164446
31
0
0
LINE
5
119
100
AcDbEntity
8
0
100
AcDbLine
10
110.4750195348845
20
-830.79292717164446
30
0
11
110.63787441205449
21
-830.6768311382034
31
0
0
LINE
5
120
100
AcDbEntity
8
0
100
AcDbLine
10
110.63787441205449
20
-830.6768311382034
30
0
11
110.45367567139465
21
-830.75474663048772
31
0
0
ARC
5
121
100
AcDbEntity
8
0
100
AcDbCircle
10
96.822968862284412
20
-836.52049305954415
30
2.7150157746293331e-43
40
14.800000000003466
210
-8.4381232635877213e-32
220
1.9948429165301356e-31
230
1
100
AcDbArc
50
22.928210375196318
51
59.7041291852996
0
LINE
5
122
100
AcDbEntity
8
0
100
AcDbLine
10
104.28905677368645
20
-823.74170081225543
30
-4.3781780239780664e-30
11
104.38994985357454
21
-823.56901443053857
31
0
0
LINE
5
123
100
AcDbEntity
8
0
100
AcDbLine
10
104.38994985357454
20
-823.56901443053857
30
0
11
104.27843292500455
21
-823.73503844881054
31
0
0
ARC
5
124
100
AcDbEntity
8
0
100
AcDbCircle
10
96.026234633064433
20
-836.02065551989551
30
3.8115318229635024e-41
40
14.79983660270727
210
3.7994042590527359e-29
220
-2.5520441631485992e-29
230
1
100
AcDbArc
50
56.110905175237484
51
92.887673885304579
0
LINE
5
125
100
AcDbEntity
8
0
100
AcDbLine
10
95.280647234404526
20
-821.23961148039041
30
8.6832905465291512e-28
11
95.270571026194517
21
-821.039865466592
31
0
0
LINE
5
126
100
AcDbEntity
8
0
100
AcDbLine
10
95.270571026194517
20
-821.039865466592
30
0
11
95.236979807944664
21
-821.23702436204496
31
0
0
LINE
5
127
100
AcDbEntity
8
0
100
AcDbLine
10
95.236979807944664
20
-821.23702436204496
30
0
11
55.024281872184709
21
-814.38573058879797
31
0
0
LINE
5
128
100
AcDbEntity
8
0
100
AcDbLine
10
55.024281872184709
20
-814.38573058879797
30
0
11
55.057873090434697
21
-814.18857169334399
31
0
0
LINE
5
129
100
AcDbEntity
8
0
100
AcDbLine
10
55.057873090434697
20
-814.18857169334399
30
0
11
55.255031985884671
21
-814.22216291159384
31
0
0
LINE
5
130
100
AcDbEntity
8
0
100
AcDbLine
10
55.255031985884671
20
-814.22216291159384
30
0
11
55.059899844034561
21
-814.17830578884889
31
0
0
LINE
5
131
100
AcDbEntity
8
0
100
AcDbLine
10
55.059899844034561
20
-814.17830578884889
30
0
11
55.231487339724623
21
-813.4148668431659
31
0
0
LINE
5
132
100
AcDbEntity
8
0
100
AcDbLine
10
55.231487339724623
20
-813.4148668431659
30
0
11
55.426619481574591
21
-813.45872396590994
31
0
0
LINE
5
133
100
AcDbEntity
8
0
100
AcDbLine
10
55.426619481574591
20
-813.45872396590994
30
0
11
55.232114159574621
21
-813.41216561850183
31
0
0
ELLIPSE
5
134
100
AcDbEntity
8
0
100
AcDbEllipse
10
37.819866774948423
20
-809.15604536816033
30
0
11
-15.497549637601162
21
9.0322240948042456
31
0.0
40
0.99134986904694011
41
3.4319236434077114
42
4.0916266075905758
0
LINE
5
135
100
AcDbEntity
8
0
100
AcDbLine
10
54.117677175224458
20
-801.91248042621976
30
-1.7209290958582367e-29
11
54.299763663474465
21
-801.82974886755585
31
0
0
LINE
5
136
100
AcDbEntity
8
0
100
AcDbLine
10
54.299763663474465
20
-801.82974886755585
30
0
11
54.10388223818444
21
-801.78936982313098
31
0
0
LINE
5
137
100
AcDbEntity
8
0
100
AcDbLine
10
54.10388223818444
20
-801.78936982313098
30
0
11
55.311810427334656
21
-795.92962998283599
31
0
0
LINE
5
138
100
AcDbEntity
8
0
100
AcDbLine
10
55.311810427334656
20
-795.92962998283599
30
0
11
55.507691852624674
21
-795.97000902726097
31
0
0
LINE
5
139
100
AcDbEntity
8
0
100
AcDbLine
10
55.507691852624674
20
-795.97000902726097
30
0
11
55.3122362375845
21
-795.92761678089187
31
0
0
ELLIPSE
5
140
100
AcDbEntity
8
0
100
AcDbEllipse
10
37.813912026312977
20
-792.04229231573891
30
0
11
-15.278628457468654
21
9.4018324919529608
31
0.0
40
0.99217825260969272
41
3.4771677045475773
42
4.3693326836219599
0
ARC
5
141
100
AcDbEntity
8
0
100
AcDbCircle
10
37.786022898399345
20
-792.1793755185256
30
-2.174202148553974e-43
40
17.922795496450195
210
-2.3693012521089713e-32
220
-1.175347447854929e-31
230
1
100
AcDbArc
50
38.881850999111052
51
89.99914521321827
0
LINE
5
142
100
AcDbEntity
8
0
100
AcDbLine
10
37.786290285784794
20
-774.25658002406988
30
1.7673240849275082e-30
11
-37.682065342028466
21
-774.25658002403975
31
1.1790977999126477e-33
0
ARC
5
143
100
AcDbEntity
8
0
100
AcDbCircle
10
-37.681797878245654
20
-792.17937931161441
30
-1.5414283107572988e-43
40
17.922799289570357
210
1.4860600811713395e-32
220
-6.5565825332515561e-35
230
1
100
AcDbArc
50
90.000855030828646
51
141.11814320185172
0
ELLIPSE
5
144
100
AcDbEntity
8
0
100
AcDbEllipse
10
-37.709688805797583
20
-792.04229231575721
30
0
11
-15.27864615756663
21
-9.4018071500826537
31
0.0
40
0.99217813189807069
41
5.0554469488751046
42
5.9476119279458741
0
LINE
5
145
100
AcDbEntity
8
0
100
AcDbLine
10
-55.208014762730357
20
-795.92761678089187
30
-8.3515742046173659e-31
11
-55.403470377763426
21
-795.97000902726097
31
0
0
LINE
5
146
100
AcDbEntity
8
0
100
AcDbLine
10
-55.403470377763426
20
-795.97000902726097
30
0
11
-55.207588952479369
21
-795.92962998283588
31
0
0
LINE
5
147
100
AcDbEntity
8
0
100
AcDbLine
10
-55.207588952479369
20
-795.92962998283588
30
0
11
-53.999660763328457
21
-801.78936982313076
31
0
0
LINE
5
148
100
AcDbEntity
8
0
100
AcDbLine
10
-53.999660763328457
20
-801.78936982313076
30
0
11
-54.195542188612507
21
-801.82974886755585
31
0
0
LINE
5
149
100
AcDbEntity
8
0
100
AcDbLine
10
-54.195542188612507
20
-801.82974886755585
30
0
11
-54.013455700368382
21
-801.91248042621987
31
0
0
ELLIPSE
5
150
100
AcDbEntity
8
0
100
AcDbEllipse
10
-37.715645301009744
20
-809.15604536807393
30
0
11
-15.497549623447197
21
-9.0322241175784725
31
0.0
40
0.99134986905573574
41
5.3331513516764728
42
5.992854315875916
0
LINE
5
151
100
AcDbEntity
8
0
100
AcDbLine
10
-55.127892684715476
20
-813.41216561850172
30
-4.582290948251726e-30
11
-55.322398006716469
21
-813.45872396590994
31
0
0
LINE
5
152
100
AcDbEntity
8
0
100
AcDbLine
10
-55.322398006716469
20
-813.45872396590994
30
0
11
-55.12726586486238
21
-813.41486684316578
31
0
0
LINE
5
153
100
AcDbEntity
8
0
100
AcDbLine
10
-55.12726586486238
20
-813.41486684316578
30
0
11
-54.95567836917445
21
-814.17830578884877
31
0
0
LINE
5
154
100
AcDbEntity
8
0
100
AcDbLine
10
-54.95567836917445
20
-814.17830578884877
30
0
11
-55.150810511029391
21
-814.22216291159384
31
0
0
LINE
5
155
100
AcDbEntity
8
0
100
AcDbLine
10
-55.150810511029391
20
-814.22216291159384
30
0
11
-54.953651615575438
21
-814.18857169334387
31
0
0
LINE
5
156
100
AcDbEntity
8
0
100
AcDbLine
10
-54.953651615575438
20
-814.18857169334387
30
0
11
-54.920060397325443
21
-814.38573058879786
31
0
0
LINE
5
157
100
AcDbEntity
8
0
100
AcDbLine
10
-54.920060397325443
20
-814.38573058879786
30
0
11
-95.132758333083416
21
-821.23702436204485
31
0
0
LINE
5
158
100
AcDbEntity
8
0
100
AcDbLine
10
-95.132758333083416
20
-821.23702436204485
30
0
11
-95.166349551333411
21
-821.03986546659189
31
0
0
LINE
5
159
100
AcDbEntity
8
0
100
AcDbLine
10
-95.166349551333411
20
-821.03986546659189
30
0
11
-95.176425759543406
21
-821.23961148038973
31
0
0
ARC
5
160
100
AcDbEntity
8
0
100
AcDbCircle
10
-95.922013158204962
20
-836.02065551990268
30
2.7017034392182473e-41
40
14.799836602715022
210
-8.3242602653480348e-30
220
4.198934486940432e-31
230
1
100
AcDbArc
50
87.112326114690575
51
123.88909482475766
0
LINE
5
161
100
AcDbEntity
8
0
100
AcDbLine
10
-104.17421145014799
20
-823.73503844881111
30
-2.7144404061429856e-28
11
-104.28572837871442
21
-823.56901443053835
31
0
0
LINE
5
162
100
AcDbEntity
8
0
100
AcDbLine
10
-104.28572837871442
20
-823.56901443053835
30
0
11
-104.18483529883048
21
-823.74170081225827
31
0
0
ARC
5
163
100
AcDbEntity
8
0
100
AcDbCircle
10
-96.718747387428223
20
-836.52049305954029
30
-1.3224754257065461e-43
40
14.799999999999336
210
1.7840475034876366e-31
220
1.0423407190134279e-31
230
1
100
AcDbArc
50
120.29587081471422
51
157.07178962481208
0
LINE
5
164
100
AcDbEntity
8
0
100
AcDbLine
10
-110.34945419653596
20
-830.75474663048726
30
5.1078743613059012e-30
11
-110.53365293719935
21
-830.67683113820294
31
0
0
LINE
5
165
100
AcDbEntity
8
0
100
AcDbLine
10
-110.53365293719935
20
-830.67683113820294
30
0
11
-110.37079806002552
21
-830.79292717164435
31
0
0
LINE
5
166
100
AcDbEntity
8
0
100
AcDbLine
10
-110.37079806002552
20
-830.79292717164435
30
0
11
-114.21714706998941
21
-836.18843188456412
31
0
0
LINE
5
167
100
AcDbEntity
8
0
100
AcDbLine
10
-114.21714706998941
20
-836.18843188456412
30
0
11
-114.38000194716253
21
-836.07233585112272
31
0
0
LINE
5
168
100
AcDbEntity
8
0
100
AcDbLine
10
-114.38000194716253
20
-836.07233585112272
30
0
11
-114.2199862454865
21
-836.19192546439331
31
0
0
SPLINE
5
169
100
AcDbEntity
8
0
100
AcDbSpline
70
0
71
3
72
16
73
12
74
0
42
0.000000001
43
0.0000000001
44
0.0000000001
40
0.25010975194557522
40
0.25010975194557522
40
0.25010975194557522
40
0.25010975194557522
40
0.28093920612236362
40
0.28093920612236362
40
0.34575453545995177
40
0.34575453545995177
40
0.40991571887089984
40
0.40991571887089984
40
0.45834028616971761
40
0.45834028616971761
40
0.50338016648637385
40
0.50338016648637385
40
0.50338016648637385
40
0.50338016648637385
10
-117.12166695867339
20
-836.64508167825932
30
0
10
-117.01453903121788
20
-836.72144690080108
30
0
10
-116.89727945790722
20
-836.78933763797988
30
0
10
-116.52448240211172
20
-836.96008182842502
30
0
10
-116.25138138717887
20
-837.02451282573452
30
0
10
-115.69876443573776
20
-837.04324240917731
30
0
10
-115.42468572814968
20
-836.99846478982738
30
0
10
-114.97258241653213
20
-836.82944233996409
30
0
10
-114.78997594235352
20
-836.7283125719074
30
0
10
-114.47190718289093
20
-836.48462155930872
30
0
10
-114.33555601048894
20
-836.34661038608306
30
0
10
-114.2199862454865
20
-836.19192546439319
30
0
0
LINE
5
170
100
AcDbEntity
8
0
100
AcDbLine
10
-117.28452603537747
20
-836.52898265097349
30
0
11
-117.12166695867339
21
-836.64508167825932
31
0
0
ARC
5
171
100
AcDbEntity
8
0
100
AcDbCircle
10
-116.06530558035956
20
-834.81880221280153
30
4.4408920985006262e-15
40
2.1002894203037665
210
-9.9465562833497269e-47
220
-5.493986083830286e-46
230
1
100
AcDbArc
50
169.73807293636054
51
234.51420037131703
0
LINE
5
172
100
AcDbEntity
8
0
100
AcDbLine
10
-118.13199800330425
20
-834.44463904253621
30
4.4408920985006262e-15
11
-118.71554713555653
21
-835.26321844995005
31
4.440892098500627e-15
0
ARC
5
173
100
AcDbEntity
8
0
100
AcDbCircle
10
-107.31570573341146
20
-843.38994079084159
30
-2.627434620609032e-45
40
14.000000000000203
210
2.5829319187216761e-16
220
-1.8413212770598212e-16
230
1
100
AcDbArc
50
144.51567786795289
51
239.94562391713598
0
LINE
5
174
100
AcDbEntity
8
0
100
AcDbLine
10
-114.32720909816567
20
-855.50764769297621
30
-1.3805065841367682e-30
11
-54.89294638285859
21
-889.89728398107877
31
-7.8886090522101181e-30
0
ARC
5
175
100
AcDbEntity
8
0
100
AcDbCircle
10
-47.88144176940466
20
-877.77957885658793
30
4.0506283734389243e-45
40
13.999999086735539
210
-2.96389039288686e-31
220
-4.7950299798242474e-31
230
1
100
AcDbArc
50
239.94561585031869
51
339.51582210391956
0
LINE
5
176
100
AcDbEntity
8
0
100
AcDbLine
10
-34.766678549451278
20
-882.6788604481228
30
2.7369110631344083e-47
11
-34.414824362677621
21
-881.73697223355111
31
-8.5049066344140335e-30
0
ARC
5
177
100
AcDbEntity
8
0
100
AcDbCircle
10
-35.882123700519344
20
-880.23312617021406
30
0
40
2.1010759931626306
210
4.0918325141157128e-32
220
-8.9717066599955422e-32
230
1
100
AcDbArc
50
294.51686775939294
51
314.29526588428314
0
SPLINE
5
178
100
AcDbEntity
8
0
100
AcDbSpline
70
0
71
3
72
12
73
8
74
0
42
0.000000001
43
0.0000000001
44
0.0000000001
40
0.324078422295553
40
0.324078422295553
40
0.324078422295553
40
0.324078422295553
40
0.37866246257708863
40
0.37866246257708863
40
0.46154741650848102
40
0.46154741650848102
40
0.5062512749388951
40
0.5062512749388951
40
0.5062512749388951
40
0.5062512749388951
10
-36.803889325146883
20
-882.13131839639755
30
0
10
-36.618873734867634
20
-882.20043477059062
30
0
10
-36.429386982730705
20
-882.269512018152
30
4.4408920985006262e-15
10
-35.979320755433974
20
-882.34985253228888
30
4.4408920985006262e-15
10
-35.701058616039489
20
-882.34439293811852
30
4.4408920985006262e-15
10
-35.286585969942479
20
-882.25349879053715
30
4.4408920985006262e-15
10
-35.145297583698891
20
-882.20635357775666
30
0
10
-35.01025886284765
20
-882.14476735879418
30
0
0
ARC
5
179
100
AcDbEntity
8
0
100
AcDbCircle
10
-36.068844021730797
20
-880.16385199239357
30
0
40
2.1002894202844655
210
3.2435059363161907e-32
220
9.3120504164046476e-32
230
1
100
AcDbArc
50
160.79612110630174
51
249.51431551987929
0
LINE
5
180
100
AcDbEntity
8
0
100
AcDbLine
10
-38.052260955315624
20
-879.47300257571305
30
-3.1270781104874185e-45
11
-37.863596186126642
21
-879.53867164084147
31
0
0
LINE
5
181
100
AcDbEntity
8
0
100
AcDbLine
10
-37.863596186126642
20
-879.53867164084147
30
0
11
-38.050949964250549
21
-879.46868191428939
31
0
0
LINE
5
182
100
AcDbEntity
8
0
100
AcDbLine
10
-38.050949964250549
20
-879.46868191428939
30
0
11
-34.712086851617549
21
-870.53096134290399
31
0
0
LINE
5
183
100
AcDbEntity
8
0
100
AcDbLine
10
-34.712086851617549
20
-870.53096134290399
30
0
11
-34.524733073494644
21
-870.60095106945596
31
0
0
LINE
5
184
100
AcDbEntity
8
0
100
AcDbLine
10
-34.524733073494644
20
-870.60095106945596
30
0
11
-34.711485236104522
21
-870.52937153494793
31
0
0
ARC
5
185
100
AcDbEntity
8
0
100
AcDbCircle
10
-51.367433746866979
20
-864.14628056256402
30
2.2442670717702148e-45
40
17.837165446194053
210
3.1342832254299362e-32
220
8.1785549112126042e-32
230
1
100
AcDbArc
50
-20.968426667171375
51
3.0192458115308543
0
LINE
5
186
100
AcDbEntity
8
0
100
AcDbLine
10
-33.555028094576258
20
-863.20677216283445
30
1.0993001937861498e-31
11
-33.35530496042054
21
-863.1962521969233
31
0
0
LINE
5
187
100
AcDbEntity
8
0
100
AcDbLine
10
-33.35530496042054
20
-863.1962521969233
30
0
11
-33.336723045600536
21
-862.99711728677039
31
0
0
LINE
5
188
100
AcDbEntity
8
0
100
AcDbLine
10
-33.336723045600536
20
-862.99711728677039
30
0
11
-31.243734681959552
21
-863.19242071939198
31
0
0
ARC
5
189
100
AcDbEntity
8
0
100
AcDbCircle
10
-29.578943934691857
20
-845.34692214007146
30
-3.941151930913548e-45
40
17.922983785539664
210
1.3699387243566152e-31
220
-1.2780036951589634e-32
230
1
100
AcDbArc
50
264.67035284308145
51
319.04763925173211
0
ELLIPSE
5
190
100
AcDbEntity
8
0
100
AcDbEllipse
10
-29.543916348980162
20
-845.50377801109323
30
0
11
-15.356287190392834
21
-9.274424074218917
31
0.0
40
0.99101220647431265
41
1.8862156943634707
42
2.835278375278397
0
LINE
5
191
100
AcDbEntity
8
0
100
AcDbLine
10
-12.130889969454159
20
-841.25007669756951
30
0
11
-12.177351469345439
21
-841.05554821968371
31
0
0
LINE
5
192
100
AcDbEntity
8
0
100
AcDbLine
10
-12.177351469345439
20
-841.05554821968371
30
0
11
-12.174785259335437
21
-841.05493554425766
31
0
0
LINE
5
193
100
AcDbEntity
8
0
100
AcDbLine
10
-12.174785259335437
20
-841.05493554425766
30
0
11
-13.53495697196535
21
-835.0031316375289
31
0
0
LINE
5
194
100
AcDbEntity
8
0
100
AcDbLine
10
-13.53495697196535
20
-835.0031316375289
30
0
11
-13.33982477753537
21
-834.95927474871041
31
0
0
LINE
5
195
100
AcDbEntity
8
0
100
AcDbLine
10
-13.33982477753537
20
-834.95927474871041
30
0
11
-13.526004378315406
21
-834.88621890531408
31
0
0
ARC
5
196
100
AcDbEntity
8
0
100
AcDbCircle
10
-30.110918834399452
20
-828.37012856186618
30
5.7475132325822575e-46
40
17.819057799996052
210
-9.3253859360384025e-34
220
-2.3735203145961288e-33
230
1
100
AcDbArc
50
-21.449496774355229
51
2.9932834853339743
0
LINE
5
197
100
AcDbEntity
8
0
100
AcDbLine
10
-12.316172234425116
20
-827.43963712057985
30
1.0981842239289655e-31
11
-12.326699000775392
21
-827.23991434473737
31
0
0
LINE
5
198
100
AcDbEntity
8
0
100
AcDbLine
10
-12.326699000775392
20
-827.23991434473737
30
0
11
-12.316449458585481
21
-827.23937412324631
31
0
0
LINE
5
199
100
AcDbEntity
8
0
100
AcDbLine
10
-12.316449458585481
20
-827.23937412324631
30
0
11
-12.316449458585481
21
-827.22911035423476
31
0
0
LINE
5
200
100
AcDbEntity
8
0
100
AcDbLine
10
-12.316449458585481
20
-827.22911035423476
30
0
11
12.420670933444597
21
-827.22911035423476
31
-1.2241237293525207e-33
0
LINE
5
201
100
AcDbEntity
8
0
100
AcDbLine
10
12.420670933444597
20
-827.22911035423476
30
-1.2241237293525207e-33
11
12.420670933444597
21
-827.62911035423474
31
0
0
LINE
5
202
100
AcDbEntity
8
0
100
AcDbLine
10
12.420670933444597
20
-827.62911035423474
30
0
11
12.411422221184694
21
-827.62911035423497
31
-2.696822086082695e-36
0
ARC
5
203
100
AcDbEntity
8
0
100
AcDbCircle
10
30.217799331645487
20
-828.36949838551459
30
-4.4408920985006262e-15
40
17.821763106853492
210
2.4896852982813718e-16
220
-1.0352095684963627e-17
230
1
100
AcDbArc
50
177.61901664218129
51
201.44825637790709
0
LINE
5
204
100
AcDbEntity
8
0
100
AcDbLine
10
13.630225853172371
20
-834.88621890531488
30
-4.4408920985006262e-15
11
13.444046252394628
21
-834.95927474871041
31
0
0
LINE
5
205
100
AcDbEntity
8
0
100
AcDbLine
10
13.444046252394628
20
-834.95927474871041
30
0
11
13.639178446824616
21
-835.0031316375289
31
0
0
LINE
5
206
100
AcDbEntity
8
0
100
AcDbLine
10
13.639178446824616
20
-835.0031316375289
30
0
11
12.191871502104441
21
-841.44262581384305
31
0
0
LINE
5
207
100
AcDbEntity
8
0
100
AcDbLine
10
12.191871502104441
20
-841.44262581384305
30
0
11
12.190365634684639
21
-841.4422873629793
31
0
0
ELLIPSE
5
208
100
AcDbEntity
8
0
100
AcDbEllipse
10
29.648137823884184
20
-845.50377801108584
30
0
11
-15.356287191448425
21
9.2744240725504437
31
0.0
40
0.99101220647354293
41
0.31740538641366456
42
1.2553769591314821
0
ARC
5
209
100
AcDbEntity
8
0
100
AcDbCircle
10
29.683165409350313
20
-845.34692214057145
30
6.56858655152258e-45
40
17.922983785060161
210
1.2747032667867083e-31
220
-5.0132945843936186e-33
230
1
100
AcDbArc
50
220.95236074836811
51
275.32964715769305
0
LINE
5
210
100
AcDbEntity
8
0
100
AcDbLine
10
31.347956156814682
20
-863.19242071939198
30
-1.7673426516180122e-30
11
33.640079430614378
21
-862.97853537195056
31
0
0
LINE
5
211
100
AcDbEntity
8
0
100
AcDbLine
10
33.640079430614378
20
-862.97853537195056
30
0
11
33.677243260254386
21
-863.37680519225637
31
0
0
LINE
5
212
100
AcDbEntity
8
0
100
AcDbLine
10
33.677243260254386
20
-863.37680519225637
30
0
11
33.651000773904371
21
-863.37925396251751
31
0
0
ELLIPSE
5
213
100
AcDbEntity
8
0
100
AcDbEllipse
10
51.548423081116823
20
-864.10910469570945
30
-4.4408920985006262e-15
11
-16.380915561608951
21
-7.2699395488507337
31
0.0
40
0.9973371762044515
41
5.8236785949390573
42
6.2206360320555358
0
LINE
5
214
100
AcDbEntity
8
0
100
AcDbLine
10
34.746318599924273
20
-870.34360756478031
30
-4.440892098500627e-15
11
34.815706710964491
21
-870.52937153494793
31
0
0
LINE
5
215
100
AcDbEntity
8
0
100
AcDbLine
10
34.815706710964491
20
-870.52937153494793
30
0
11
38.086742955294426
21
-879.28550781143269
31
0
0
CIRCLE
5
216
100
AcDbEntity
8
0
100
AcDbCircle
10
-51.461866989079681
20
-864.15454421974209
30
0
40
2.2000000000000601
210
3.8518598887595833e-34
220
-3.6349600057113372e-49
230
1
0
CIRCLE
5
217
100
AcDbEntity
8
0
100
AcDbCircle
10
-94.422684621851403
20
-839.29671263348428
30
0
40
2.19999999999999
210
-3.8518598887893605e-34
220
3.6349600057394372e-49
230
1
0
CIRCLE
5
218
100
AcDbEntity
8
0
100
AcDbCircle
10
51.566088463934534
20
-864.15454421974221
30
-4.4408920985006262e-15
40
2.2000000000000299
210
-1.7508454141175796e-34
220
9.8607613152626454e-32
230
1
0
CIRCLE
5
219
100
AcDbEntity
8
0
100
AcDbCircle
10
94.52690609670455
20
-839.29671263348439
30
0
40
2.2000000000000299
210
1.7508454141287015e-34
220
-1.826050531682466e-47
230
1
0
ENDSEC
0
SECTION
2
OBJECTS
0
DICTIONARY
5
C
100
AcDbDictionary
3
ACAD_GROUP
350
D
3
ACAD_MLINESTYLE
350
17
0
DICTIONARY
5
D
100
AcDbDictionary
0
DICTIONARY
5
1A
330
C
100
AcDbDictionary
0
DICTIONARY
5
17
100
AcDbDictionary
0
ENDSEC
0
EOF
