0
SECTION
2
HEADER
9
$INSUNITS
70
4
9
$ACADVER
1
AC1014
9
$HANDSEED
5
FFFF
0
ENDSEC
0
SECTION
2
TABLES
0
TABLE
2
VPORT
5
8
100
AcDbSymbolTable
0
ENDTAB
0
TABLE
2
LTYPE
5
5
100
AcDbSymbolTable
0
LTYPE
5
14
100
AcDbSymbolTableRecord
100
AcDbLinetypeTableRecord
2
BYBLOCK
70
0
0
LTYPE
5
15
100
AcDbSymbolTableRecord
100
AcDbLinetypeTableRecord
2
BYLAYER
70
0
0
LTYPE
5
16
100
AcDbSymbolTableRecord
100
AcDbLinetypeTableRecord
2
DASHED
70
0
3
Dashed __ __ __ __ __ __ __ __ __ __ __ __ __ _
72
65
73
2
40
0.75
49
0.5
74
0
49
-0.25
74
0
0
ENDTAB
0
TABLE
2
LAYER
5
2
100
AcDbSymbolTable
70
2
0
LAYER
5
50
100
AcDbSymbolTableRecord
100
AcDbLayerTableRecord
2
0
70
0
62
7
6
CONTINUOUS
0
ENDTAB
0
TABLE
2
STYLE
5
3
100
AcDbSymbolTable
70
1
0
STYLE
5
11
100
AcDbSymbolTableRecord
100
AcDbTextStyleTableRecord
2
STANDARD
70
0
0
ENDTAB
0
TABLE
2
VIEW
5
6
100
AcDbSymbolTable
70
0
0
ENDTAB
0
TABLE
2
UCS
5
7
100
AcDbSymbolTable
70
0
0
ENDTAB
0
TABLE
2
APPID
5
9
100
AcDbSymbolTable
70
2
0
APPID
5
12
100
AcDbSymbolTableRecord
100
AcDbRegAppTableRecord
2
ACAD
70
0
0
ENDTAB
0
TABLE
2
DIMSTYLE
5
A
100
AcDbSymbolTable
70
1
0
ENDTAB
0
TABLE
2
BLOCK_RECORD
5
1
100
AcDbSymbolTable
70
1
0
BLOCK_RECORD
5
1F
100
AcDbSymbolTableRecord
100
AcDbBlockTableRecord
2
*MODEL_SPACE
0
BLOCK_RECORD
5
1B
100
AcDbSymbolTableRecord
100
AcDbBlockTableRecord
2
*PAPER_SPACE
0
ENDTAB
0
ENDSEC
0
SECTION
2
BLOCKS
0
BLOCK
5
20
100
AcDbEntity
100
AcDbBlockBegin
2
*MODEL_SPACE
0
ENDBLK
5
21
100
AcDbEntity
100
AcDbBlockEnd
0
BLOCK
5
1C
100
AcDbEntity
100
AcDbBlockBegin
2
*PAPER_SPACE
0
ENDBLK
5
1D
100
AcDbEntity
100
AcDbBlockEnd
0
ENDSEC
0
SECTION
2
ENTITIES
0
LINE
5
100
100
AcDbEntity
8
0
100
AcDbLine
10
-18.152091784006899
20
-84.574729850294901
30
0
11
-12.750000000000002
21
-84.574729850294901
31
0
0
LINE
5
101
100
AcDbEntity
8
0
100
AcDbLine
10
-12.750000000000002
20
-84.574729850294901
30
0
11
-12.750000000000002
21
-87.104590494976208
31
0
0
LINE
5
102
100
AcDbEntity
8
0
100
AcDbLine
10
-12.750000000000002
20
-87.104590494976208
30
0
11
-11.4272193297033
21
-87.104590494678916
31
0
0
ARC
5
103
100
AcDbEntity
8
0
100
AcDbCircle
10
-3.6642688883148405e-11
20
-95.091594824806108
30
0
40
13.941792559702598
210
0
220
-0
230
1
100
AcDbArc
50
34.951453545700623
51
145.04854645228295
0
LINE
5
104
100
AcDbEntity
8
0
100
AcDbLine
10
11.427219329911138
20
-87.104590495081055
30
0
11
12.750000000103903
21
-87.104590495142119
31
0
0
LINE
5
105
100
AcDbEntity
8
0
100
AcDbLine
10
12.750000000103903
20
-87.104590495142119
30
0
11
12.750000000332001
21
-84.574729850294901
31
0
0
SPLINE
5
106
100
AcDbEntity
8
0
100
AcDbSpline
70
0
71
3
72
20
73
16
74
0
42
0.000000001
43
0.0000000001
44
0.0000000001
40
526.56188414949099
40
526.56188414949099
40
526.56188414949099
40
526.56188414949099
40
531.35873274777896
40
531.35873274777896
40
531.35873274777896
40
533.66524396939474
40
533.66524396939474
40
533.66524396939474
40
535.94868579176671
40
535.94868579176671
40
535.94868579176671
40
536.07112172818302
40
536.07112172818302
40
536.07112172818302
40
541.473213512185
40
541.473213512185
40
541.473213512185
40
541.473213512185
10
21.152091784303405
20
-76.777881251988006
30
0
10
21.152091784313733
20
-78.376830784750538
30
0
10
21.152091784324099
20
-79.97578031751307
30
0
10
21.152091784334502
20
-81.574729850275602
30
0
10
21.152091784338978
20
-82.266926412348369
30
0
10
20.873429490876219
20
-83.075354652914626
30
0
10
20.310141760333892
20
-83.658673299884981
30
0
10
19.752487954059191
20
-84.236157676192704
30
0
10
18.958238325753779
20
-84.546928710295134
30
0
10
18.263130076704044
20
-84.572674228969674
30
0
10
18.225859046389509
20
-84.574054678717303
30
0
10
18.188835474747663
20
-84.574729850294901
30
0
10
18.152091784334502
20
-84.574729850294901
30
0
10
16.351394523000302
20
-84.574729850294901
30
0
10
14.550697261666134
20
-84.574729850294901
30
0
10
12.750000000332001
20
-84.574729850294901
30
0
0
LINE
5
107
100
AcDbEntity
8
0
100
AcDbLine
10
21.152091784303405
20
-76.777881251988006
30
0
11
18.7500000003322
21
-76.777881251988006
31
0
0
LINE
5
108
100
AcDbEntity
8
0
100
AcDbLine
10
18.7500000003322
20
-76.777881251988006
30
0
11
18.7500000003322
21
-79.787943029345897
31
0
0
LINE
5
109
100
AcDbEntity
8
0
100
AcDbLine
10
18.7500000003322
20
-79.787943029345897
30
0
11
12.7500000003322
21
-79.787943029345897
31
0
0
LINE
5
110
100
AcDbEntity
8
0
100
AcDbLine
10
12.7500000003322
20
-79.787943029345897
30
0
11
12.750000000317501
21
-76.777881251987907
31
0
0
LINE
5
111
100
AcDbEntity
8
0
100
AcDbLine
10
12.750000000317501
20
-76.777881251987907
30
0
11
9.5820715328571904
21
-76.777881251987907
31
0
0
LINE
5
112
100
AcDbEntity
8
0
100
AcDbLine
10
9.5820715328571904
20
-76.777881251987907
30
0
11
9.5820715328571904
21
-77.827881251942415
31
0
0
LINE
5
113
100
AcDbEntity
8
0
100
AcDbLine
10
9.5820715328571904
20
-77.827881251942415
30
0
11
7.0820715328571904
21
-77.827881251942415
31
0
0
LINE
5
114
100
AcDbEntity
8
0
100
AcDbLine
10
7.0820715328571904
20
-77.827881251942415
30
0
11
7.0820715328571904
21
-76.777881251987907
31
0
0
SPLINE
5
115
100
AcDbEntity
8
0
100
AcDbSpline
70
0
71
3
72
26
73
22
74
0
42
0.000000001
43
0.0000000001
44
0.0000000001
40
497.01329666729299
40
497.01329666729299
40
497.01329666729299
40
497.01329666729299
40
497.94362493347302
40
497.94362493347302
40
497.94362493347302
40
499.48883780571299
40
499.48883780571299
40
499.48883780571299
40
500.66221373049359
40
500.66221373049359
40
500.66221373049359
40
501.83255743743314
40
501.83255743743314
40
501.83255743743314
40
503.35644121018152
40
503.35644121018152
40
503.35644121018152
40
503.44141207725499
40
503.44141207725499
40
503.44141207725499
40
504.37174034343502
40
504.37174034343502
40
504.37174034343502
40
504.37174034343502
10
7.0820715328571904
20
-73.277881251987907
30
0
10
6.7719621107973369
20
-73.277881251987822
30
0
10
6.4618526887374808
20
-73.277881251987765
30
0
10
6.1517432666776202
20
-73.277881251987694
30
0
10
5.6880164797397601
20
-73.277881251987722
30
0
10
5.1356077105936411
20
-73.503553538400283
30
0
10
4.7938148813656358
20
-73.924010561932107
30
0
10
4.5342703977001477
20
-74.243289644885877
30
0
10
4.4075002577941493
20
-74.646154057376393
30
0
10
4.4019573224456865
20
-75.000510658856456
30
0
10
4.3964287110552149
20
-75.353951538114487
30
0
10
4.506688239516782
20
-75.751717196357376
30
0
10
4.7526316163676245
20
-76.0790646755474
30
0
10
5.0728701230350479
20
-76.505298019333395
30
0
10
5.6095398685473086
20
-76.755654442462614
30
0
10
6.0745812144967992
20
-76.776179286563973
30
0
10
6.1005116477076466
20
-76.777323739855646
30
0
10
6.1262430473361986
20
-76.777881251987708
30
0
10
6.1517432666776202
20
-76.777881251987708
30
0
10
6.4618526887374808
20
-76.777881251987765
30
0
10
6.7719621107973369
20
-76.777881251987836
30
0
10
7.0820715328571904
20
-76.777881251987907
30
0
0
LINE
5
116
100
AcDbEntity
8
0
100
AcDbLine
10
7.0820715328571904
20
-73.277881251987907
30
0
11
7.0820715328571904
21
-72.227881251942506
31
0
0
LINE
5
117
100
AcDbEntity
8
0
100
AcDbLine
10
7.0820715328571904
20
-72.227881251942506
30
0
11
9.5820715328571904
21
-72.227881251942506
31
0
0
LINE
5
118
100
AcDbEntity
8
0
100
AcDbLine
10
9.5820715328571904
20
-72.227881251942506
30
0
11
9.5820715328571904
21
-73.277881251987907
31
0
0
LINE
5
119
100
AcDbEntity
8
0
100
AcDbLine
10
9.5820715328571904
20
-73.277881251987907
30
0
11
12.7500000004006
21
-73.277881251987907
31
0
0
LINE
5
120
100
AcDbEntity
8
0
100
AcDbLine
10
12.7500000004006
20
-73.277881251987907
30
0
11
12.7500000003322
21
-67.795876439750799
31
0
0
LINE
5
121
100
AcDbEntity
8
0
100
AcDbLine
10
12.7500000003322
20
-67.795876439750799
30
0
11
18.7500000003322
21
-67.795876439750799
31
0
0
LINE
5
122
100
AcDbEntity
8
0
100
AcDbLine
10
18.7500000003322
20
-67.795876439750799
30
0
11
18.7500000003322
21
-73.277881251988006
31
0
0
LINE
5
123
100
AcDbEntity
8
0
100
AcDbLine
10
18.7500000003322
20
-73.277881251988006
30
0
11
21.1520917843097
21
-73.277881251988106
31
0
0
ARC
5
124
100
AcDbEntity
8
0
100
AcDbCircle
10
98.369579374338301
20
-71.907380044724306
30
0
40
77.229648861530734
210
0
220
0
230
1
100
AcDbArc
50
139.49928258442739
51
181.01681230077827
0
LINE
5
125
100
AcDbEntity
8
0
100
AcDbLine
10
39.644321688020561
20
-21.749999999999943
30
0
11
24.628066187123
21
-21.749999999897199
31
0
0
LINE
5
126
100
AcDbEntity
8
0
100
AcDbLine
10
24.628066187123
20
-21.749999999897199
30
0
11
24.628066187123103
21
-24.9179284673429
31
0
0
LINE
5
127
100
AcDbEntity
8
0
100
AcDbLine
10
24.628066187123103
20
-24.9179284673429
30
0
11
25.678066187077505
21
-24.9179284673429
31
0
0
LINE
5
128
100
AcDbEntity
8
0
100
AcDbLine
10
25.678066187077505
20
-24.9179284673429
30
0
11
25.678066187077505
21
-27.4179284673429
31
0
0
LINE
5
129
100
AcDbEntity
8
0
100
AcDbLine
10
25.678066187077505
20
-27.4179284673429
30
0
11
24.628066187123103
21
-27.4179284673429
31
0
0
SPLINE
5
130
100
AcDbEntity
8
0
100
AcDbSpline
70
0
71
3
72
26
73
22
74
0
42
0.000000001
43
0.0000000001
44
0.0000000001
40
383.63387282330899
40
383.63387282330899
40
383.63387282330899
40
383.63387282330899
40
384.56420108948799
40
384.56420108948799
40
384.56420108948799
40
386.10941396172802
40
386.10941396172802
40
386.10941396172802
40
387.28278988650823
40
387.28278988650823
40
387.28278988650823
40
388.45313359344811
40
388.45313359344811
40
388.45313359344811
40
389.977017366197
40
389.977017366197
40
389.977017366197
40
390.06198823326997
40
390.06198823326997
40
390.06198823326997
40
390.99231649945
40
390.99231649945
40
390.99231649945
40
390.99231649945
10
21.128066187123103
20
-27.4179284673429
30
0
10
21.128066187123036
20
-27.728037889402771
30
0
10
21.128066187122933
20
-28.038147311462581
30
0
10
21.128066187122801
20
-28.348256733522451
30
0
10
21.128066187122784
20
-28.811983520460359
30
0
10
21.35373847353533
20
-29.364392289606499
30
0
10
21.774195497067169
20
-29.706185118834515
30
0
10
22.093474580020839
20
-29.965729602499916
30
0
10
22.496338992511223
20
-30.09249974240592
30
0
10
22.850695593991198
20
-30.098042677754428
30
0
10
23.204136473249378
20
-30.103571289144945
30
0
10
23.601902131492359
20
-29.993311760683483
30
0
10
23.929249610682479
20
-29.747368383832573
30
0
10
24.355482954468641
20
-29.427129877165047
30
0
10
24.605839377597842
20
-28.89046013165251
30
0
10
24.626364221699085
20
-28.425418785702867
30
0
10
24.627508674990743
20
-28.399488352492174
30
0
10
24.628066187122805
20
-28.373756952863776
30
0
10
24.628066187122805
20
-28.348256733522504
30
0
10
24.62806618712294
20
-28.038147311462637
30
0
10
24.628066187123039
20
-27.728037889402771
30
0
10
24.628066187123107
20
-27.4179284673429
30
0
0
LINE
5
131
100
AcDbEntity
8
0
100
AcDbLine
10
21.128066187123103
20
-27.4179284673429
30
0
11
20.078066187077603
21
-27.4179284673429
31
0
0
LINE
5
132
100
AcDbEntity
8
0
100
AcDbLine
10
20.078066187077603
20
-27.4179284673429
30
0
11
20.078066187077603
21
-24.9179284673429
31
0
0
LINE
5
133
100
AcDbEntity
8
0
100
AcDbLine
10
20.078066187077603
20
-24.9179284673429
30
0
11
21.128066187123103
21
-24.9179284673429
31
0
0
LINE
5
134
100
AcDbEntity
8
0
100
AcDbLine
10
21.128066187123103
20
-24.9179284673429
30
0
11
21.128066187123
21
-15.750000000000002
31
0
0
ARC
5
135
100
AcDbEntity
8
0
100
AcDbCircle
10
33.619212223603185
20
1.0140374444798408
30
0
40
20.906020203391115
210
0
220
0
230
1
100
AcDbArc
50
177.99631249744033
51
233.30962971843451
0
LINE
5
136
100
AcDbEntity
8
0
100
AcDbLine
10
12.725974403116664
20
1.7449916983075642
30
0
11
12.7258312883936
21
6.9603842026279006
31
0
0
LINE
5
137
100
AcDbEntity
8
0
100
AcDbLine
10
12.7258312883936
20
6.9603842026279006
30
0
11
9.5106814091018403
21
6.9603842026278704
31
0
0
LINE
5
138
100
AcDbEntity
8
0
100
AcDbLine
10
9.5106814091018403
20
6.9603842026278704
30
0
11
9.5106814091018403
21
5.9103842026733897
31
0
0
LINE
5
139
100
AcDbEntity
8
0
100
AcDbLine
10
9.5106814091018403
20
5.9103842026733897
30
0
11
7.0106814091018412
21
5.9103842026733897
31
0
0
LINE
5
140
100
AcDbEntity
8
0
100
AcDbLine
10
7.0106814091018412
20
5.9103842026733897
30
0
11
7.0106814091018412
21
6.9603842026278704
31
0
0
SPLINE
5
141
100
AcDbEntity
8
0
100
AcDbSpline
70
0
71
3
72
26
73
22
74
0
42
0.000000001
43
0.0000000001
44
0.0000000001
40
329.38175680821701
40
329.38175680821701
40
329.38175680821701
40
329.38175680821701
40
330.31208507439601
40
330.31208507439601
40
330.31208507439601
40
331.85729794663609
40
331.85729794663609
40
331.85729794663609
40
333.03067387141618
40
333.03067387141618
40
333.03067387141618
40
334.20101757835602
40
334.20101757835602
40
334.20101757835602
40
335.72490135110564
40
335.72490135110564
40
335.72490135110564
40
335.80987221817799
40
335.80987221817799
40
335.80987221817799
40
336.74020048435801
40
336.74020048435801
40
336.74020048435801
40
336.74020048435801
10
7.0106814091018421
20
10.4603842026279
30
0
10
6.7005719870419878
20
10.460384202627965
30
0
10
6.3904625649821298
20
10.460384202628035
30
0
10
6.0803531429222701
20
10.460384202628104
30
0
10
5.6166263559844083
20
10.460384202628104
30
0
10
5.0642175868383319
20
10.234711916215552
30
0
10
4.7224247576103071
20
9.8142548926836888
30
0
10
4.4628802739449371
20
9.4949758097300432
30
0
10
4.3361101340389085
20
9.0921113972397052
30
0
10
4.3305671986903462
20
8.7377547957597592
30
0
10
4.3250385872997725
20
8.3843139165015916
30
0
10
4.4352981157613582
20
7.9865482582585967
30
0
10
4.6812414926122532
20
7.6592007790684775
30
0
10
5.0014799992799306
20
7.2329674352820925
30
0
10
5.5381497447927277
20
6.9826110121528906
30
0
10
6.003191090742491
20
6.9620861680517878
30
0
10
6.0291215239529858
20
6.9609417147601507
30
0
10
6.0548529235811896
20
6.9603842026281004
30
0
10
6.0803531429222701
20
6.9603842026281004
30
0
10
6.3904625649821298
20
6.9603842026280205
30
0
10
6.7005719870419878
20
6.9603842026279441
30
0
10
7.0106814091018421
20
6.9603842026278704
30
0
0
LINE
5
142
100
AcDbEntity
8
0
100
AcDbLine
10
7.0106814091018421
20
10.4603842026279
30
0
11
7.0106814091018412
21
11.510384202673301
31
0
0
LINE
5
143
100
AcDbEntity
8
0
100
AcDbLine
10
7.0106814091018412
20
11.510384202673301
30
0
11
9.5106814091018403
21
11.510384202673301
31
0
0
LINE
5
144
100
AcDbEntity
8
0
100
AcDbLine
10
9.5106814091018403
20
11.510384202673301
30
0
11
9.5106814091018403
21
10.4603842026279
31
0
0
LINE
5
145
100
AcDbEntity
8
0
100
AcDbLine
10
9.5106814091018403
20
10.4603842026279
30
0
11
12.7261175178397
21
10.4603842026279
31
0
0
LINE
5
146
100
AcDbEntity
8
0
100
AcDbLine
10
12.7261175178397
20
10.4603842026279
30
0
11
12.7259744031167
21
15.675776706948202
31
0
0
LINE
5
147
100
AcDbEntity
8
0
100
AcDbLine
10
12.7259744031167
20
15.675776706948202
30
0
11
18.725974403116503
21
15.675776706766399
31
0
0
ARC
5
148
100
AcDbEntity
8
0
100
AcDbCircle
10
33.626782300409197
20
1.0004922380704402
30
0
40
20.914063455702898
210
0
220
0
230
1
100
AcDbArc
50
109.2103234187738
51
135.43688294092041
0
LINE
5
149
100
AcDbEntity
8
0
100
AcDbLine
10
26.745285850522006
20
20.750000000021306
30
0
11
26.7452858505143
21
26.750000000000004
31
0
0
LINE
5
150
100
AcDbEntity
8
0
100
AcDbLine
10
26.7452858505143
20
26.750000000000004
30
0
11
21.128066187123
21
26.750000000000004
31
0
0
LINE
5
151
100
AcDbEntity
8
0
100
AcDbLine
10
21.128066187123
20
26.750000000000004
30
0
11
21.128066187123
21
32.75
31
0
0
LINE
5
152
100
AcDbEntity
8
0
100
AcDbLine
10
21.128066187123
20
32.75
30
0
11
12.725974403116499
21
32.75
31
0
0
LINE
5
153
100
AcDbEntity
8
0
100
AcDbLine
10
12.725974403116499
20
32.75
30
0
11
12.725974402992399
21
35.279860645012803
31
0
0
LINE
5
154
100
AcDbEntity
8
0
100
AcDbLine
10
12.725974402992399
20
35.279860645012803
30
0
11
11.427219329911001
21
35.279860644978299
31
0
0
ARC
5
155
100
AcDbEntity
8
0
100
AcDbCircle
10
7.1054273576010003e-15
20
43.266864974878501
30
0
40
13.941792559772804
210
0
220
0
230
1
100
AcDbArc
50
214.95145354786692
51
325.04854645362281
0
LINE
5
156
100
AcDbEntity
8
0
100
AcDbLine
10
-11.427219329703327
20
35.279860644681179
30
0
11
-12.7740255968833
21
35.2798606446812
31
0
0
LINE
5
157
100
AcDbEntity
8
0
100
AcDbLine
10
-12.7740255968833
20
35.2798606446812
30
0
11
-12.7740255967084
21
32.750000000050903
31
0
0
LINE
5
158
100
AcDbEntity
8
0
100
AcDbLine
10
-12.7740255967084
20
32.750000000050903
30
0
11
-21.176117380539701
21
32.750000000168797
31
0
0
LINE
5
159
100
AcDbEntity
8
0
100
AcDbLine
10
-21.176117380539701
20
32.750000000168797
30
0
11
-21.176117380587598
21
26.7500000001688
31
0
0
LINE
5
160
100
AcDbEntity
8
0
100
AcDbLine
10
-21.176117380587598
20
26.7500000001688
30
0
11
-26.793337043978905
21
26.7500000002136
31
0
0
LINE
5
161
100
AcDbEntity
8
0
100
AcDbLine
10
-26.793337043978905
20
26.7500000002136
30
0
11
-26.793337044026799
21
20.7500000002136
31
0
0
ARC
5
162
100
AcDbEntity
8
0
100
AcDbCircle
10
-33.674833493781698
20
1.0004922392718703
30
0
40
20.914063454706401
210
0
220
-0
230
1
100
AcDbArc
50
44.563117057847741
51
70.789676580658778
0
LINE
5
163
100
AcDbEntity
8
0
100
AcDbLine
10
-18.774025596883497
20
15.675776706948197
30
0
11
-12.7740255968836
21
15.675776706948202
31
0
0
LINE
5
164
100
AcDbEntity
8
0
100
AcDbLine
10
-12.7740255968836
20
15.675776706948202
30
0
11
-12.774168711606602
21
10.4603842026279
31
0
0
LINE
5
165
100
AcDbEntity
8
0
100
AcDbLine
10
-12.774168711606602
20
10.4603842026279
30
0
11
-9.5587326028687496
21
10.4603842026279
31
0
0
LINE
5
166
100
AcDbEntity
8
0
100
AcDbLine
10
-9.5587326028687496
20
10.4603842026279
30
0
11
-9.5587326028687496
21
11.510384202673301
31
0
0
LINE
5
167
100
AcDbEntity
8
0
100
AcDbLine
10
-9.5587326028687496
20
11.510384202673301
30
0
11
-7.0587326028687505
21
11.510384202673301
31
0
0
LINE
5
168
100
AcDbEntity
8
0
100
AcDbLine
10
-7.0587326028687505
20
11.510384202673301
30
0
11
-7.0587326028687505
21
10.4603842026279
31
0
0
SPLINE
5
169
100
AcDbEntity
8
0
100
AcDbSpline
70
0
71
3
72
26
73
22
74
0
42
0.000000001
43
0.0000000001
44
0.0000000001
40
178.19279830620201
40
178.19279830620201
40
178.19279830620201
40
178.19279830620201
40
179.12312657238203
40
179.12312657238203
40
179.12312657238203
40
180.66833944462209
40
180.66833944462209
40
180.66833944462209
40
181.84171536940232
40
181.84171536940232
40
181.84171536940232
40
183.01205907634215
40
183.01205907634215
40
183.01205907634215
40
184.53594284909141
40
184.53594284909141
40
184.53594284909141
40
184.62091371616401
40
184.62091371616401
40
184.62091371616401
40
185.55124198234401
40
185.55124198234401
40
185.55124198234401
40
185.55124198234401
10
-7.0587326028687505
20
6.9603842026278704
30
0
10
-6.7486231808088872
20
6.9603842026279441
30
0
10
-6.4385137587490204
20
6.9603842026280205
30
0
10
-6.1284043366891519
20
6.9603842026281004
30
0
10
-5.6646775497512518
20
6.9603842026281102
30
0
10
-5.1122687806051514
20
7.1860564890406655
30
0
10
-4.7704759513771409
20
7.6065135125725245
30
0
10
-4.510931467711746
20
7.9257925955262118
30
0
10
-4.3841613278057503
20
8.3286570080166147
30
0
10
-4.3786183924572502
20
8.6830136094965908
30
0
10
-4.3730897810667395
20
9.036454488754746
30
0
10
-4.4833493095282577
20
9.434220146997701
30
0
10
-4.7292926863791571
20
9.7615676261877997
30
0
10
-5.0495311930467608
20
10.187800969974054
30
0
10
-5.58620093855943
20
10.438157393103237
30
0
10
-6.0512422845091338
20
10.458682237204401
30
0
10
-6.0771727177197103
20
10.459826690496046
30
0
10
-6.1029041173480216
20
10.460384202628102
30
0
10
-6.1284043366891803
20
10.460384202628102
30
0
10
-6.4385137587490409
20
10.460384202628035
30
0
10
-6.748623180808897
20
10.460384202627965
30
0
10
-7.0587326028687505
20
10.4603842026279
30
0
0
LINE
5
170
100
AcDbEntity
8
0
100
AcDbLine
10
-7.0587326028687505
20
6.9603842026278704
30
0
11
-7.0587326028687505
21
5.9103842026733897
31
0
0
LINE
5
171
100
AcDbEntity
8
0
100
AcDbLine
10
-7.0587326028687505
20
5.9103842026733897
30
0
11
-9.5587326028687496
21
5.9103842026733897
31
0
0
LINE
5
172
100
AcDbEntity
8
0
100
AcDbLine
10
-9.5587326028687496
20
5.9103842026733897
30
0
11
-9.5587326028687496
21
6.9603842026278704
31
0
0
LINE
5
173
100
AcDbEntity
8
0
100
AcDbLine
10
-9.5587326028687496
20
6.9603842026278704
30
0
11
-12.773882482160502
21
6.9603842026279006
31
0
0
LINE
5
174
100
AcDbEntity
8
0
100
AcDbLine
10
-12.773882482160502
20
6.9603842026279006
30
0
11
-12.7740255968836
21
1.7449916983075797
31
0
0
ARC
5
175
100
AcDbEntity
8
0
100
AcDbCircle
10
-33.674833493781698
20
1.0004922392718703
30
0
40
20.914063454710412
210
-0
220
0
230
1
100
AcDbArc
50
-53.218048364759618
51
2.040047899673155
0
LINE
5
176
100
AcDbEntity
8
0
100
AcDbLine
10
-21.152091784006402
20
-15.750000000000012
30
0
11
-21.152091784006505
21
-24.9179284673429
31
0
0
LINE
5
177
100
AcDbEntity
8
0
100
AcDbLine
10
-21.152091784006505
20
-24.9179284673429
30
0
11
-20.1020917839611
21
-24.9179284673429
31
0
0
LINE
5
178
100
AcDbEntity
8
0
100
AcDbLine
10
-20.1020917839611
20
-24.9179284673429
30
0
11
-20.1020917839611
21
-27.4179284673429
31
0
0
LINE
5
179
100
AcDbEntity
8
0
100
AcDbLine
10
-20.1020917839611
20
-27.4179284673429
30
0
11
-21.152091784006505
21
-27.4179284673429
31
0
0
SPLINE
5
180
100
AcDbEntity
8
0
100
AcDbSpline
70
0
71
3
72
26
73
22
74
0
42
0.000000001
43
0.0000000001
44
0.0000000001
40
123.951342643836
40
123.951342643836
40
123.951342643836
40
123.951342643836
40
124.881670910015
40
124.881670910015
40
124.881670910015
40
126.42688378225563
40
126.42688378225563
40
126.42688378225563
40
127.60025970703832
40
127.60025970703832
40
127.60025970703832
40
128.77060341397623
40
128.77060341397623
40
128.77060341397623
40
130.29448718672487
40
130.29448718672487
40
130.29448718672487
40
130.379458053798
40
130.379458053798
40
130.379458053798
40
131.30978631997701
40
131.30978631997701
40
131.30978631997701
40
131.30978631997701
10
-24.652091784006505
20
-27.4179284673429
30
0
10
-24.652091784006437
20
-27.728037889402767
30
0
10
-24.652091784006366
20
-28.038147311462637
30
0
10
-24.652091784006302
20
-28.348256733522504
30
0
10
-24.652091784006302
20
-28.811983520460419
30
0
10
-24.426419497593763
20
-29.364392289606535
30
0
10
-24.005962474061899
20
-29.706185118834547
30
0
10
-23.68668339110766
20
-29.965729602500389
30
0
10
-23.283818978616445
20
-30.092499742406321
30
0
10
-22.929462377135991
20
-30.098042677754453
30
0
10
-22.576021497878678
20
-30.103571289144572
30
0
10
-22.17825583963609
20
-29.993311760683021
30
0
10
-21.850908360446539
20
-29.747368383832509
30
0
10
-21.424675016660469
20
-29.427129877165015
30
0
10
-21.174318593531297
20
-28.890460131652592
30
0
10
-21.153793749430015
20
-28.425418785703016
30
0
10
-21.152649296138357
20
-28.399488352492273
30
0
10
-21.152091784006299
20
-28.373756952863825
30
0
10
-21.152091784006299
20
-28.348256733522504
30
0
10
-21.152091784006366
20
-28.038147311462637
30
0
10
-21.152091784006437
20
-27.728037889402767
30
0
10
-21.152091784006505
20
-27.4179284673429
30
0
0
LINE
5
181
100
AcDbEntity
8
0
100
AcDbLine
10
-24.652091784006505
20
-27.4179284673429
30
0
11
-25.702091783960999
21
-27.4179284673429
31
0
0
LINE
5
182
100
AcDbEntity
8
0
100
AcDbLine
10
-25.702091783960999
20
-27.4179284673429
30
0
11
-25.702091783960999
21
-24.9179284673429
31
0
0
LINE
5
183
100
AcDbEntity
8
0
100
AcDbLine
10
-25.702091783960999
20
-24.9179284673429
30
0
11
-24.652091784006505
21
-24.9179284673429
31
0
0
LINE
5
184
100
AcDbEntity
8
0
100
AcDbLine
10
-24.652091784006505
20
-24.9179284673429
30
0
11
-24.652091784006505
21
-21.749999999948599
31
0
0
LINE
5
185
100
AcDbEntity
8
0
100
AcDbLine
10
-24.652091784006505
20
-21.749999999948599
30
0
11
-30.529591450761199
21
-21.749999999999901
31
0
0
ARC
5
186
100
AcDbEntity
8
0
100
AcDbCircle
10
-21.152091784006089
20
-46.000000000000099
30
0
40
26.000000000000036
210
0
220
0
230
1
100
AcDbArc
50
111.14153694263221
51
248.85846305736717
0
SPLINE
5
187
100
AcDbEntity
8
0
100
AcDbSpline
70
0
71
3
72
20
73
16
74
0
42
0.000000001
43
0.0000000001
44
0.0000000001
40
72.7483928249288
40
72.7483928249288
40
72.7483928249288
40
72.7483928249288
40
72.776274076916593
40
72.776274076916593
40
72.776274076916593
40
75.082785298532457
40
75.082785298532457
40
75.082785298532457
40
77.366227120904128
40
77.366227120904128
40
77.366227120904128
40
77.488663057301295
40
77.488663057301295
40
77.488663057301295
40
83.866162724055897
40
83.866162724055897
40
83.866162724055897
40
83.866162724055897
10
-21.152091784006899
20
-73.277881251988006
30
0
10
-21.152091784006899
20
-73.26858750132547
30
0
10
-21.152091784006899
20
-73.259293750662891
30
0
10
-21.152091784006899
20
-73.250000000000298
30
0
10
-21.152091784006899
20
-72.557803437926907
30
0
10
-21.430754077475417
20
-71.749375197362298
30
0
10
-21.994041808021414
20
-71.166056550395908
30
0
10
-22.551695614299657
20
-70.588572174092207
30
0
10
-23.345945242605989
20
-70.277801139995375
30
0
10
-24.041053491654758
20
-70.252055621324885
30
0
10
-24.078324521963417
20
-70.250675171577683
30
0
10
-24.115348093599454
20
-70.250000000000313
30
0
10
-24.152091784006902
20
-70.250000000000313
30
0
10
-26.277925006258435
20
-70.250000000000313
30
0
10
-28.403758228509972
20
-70.250000000000313
30
0
10
-30.529591450761501
20
-70.250000000000313
30
0
0
LINE
5
188
100
AcDbEntity
8
0
100
AcDbLine
10
-21.152091784006899
20
-73.277881251988006
30
0
11
-18.75
21
-73.277881251988006
31
0
0
LINE
5
189
100
AcDbEntity
8
0
100
AcDbLine
10
-18.75
20
-73.277881251988006
30
0
11
-18.75
21
-67.795876439750799
31
0
0
LINE
5
190
100
AcDbEntity
8
0
100
AcDbLine
10
-18.75
20
-67.795876439750799
30
0
11
-12.750000000000002
21
-67.795876439750799
31
0
0
LINE
5
191
100
AcDbEntity
8
0
100
AcDbLine
10
-12.750000000000002
20
-67.795876439750799
30
0
11
-12.750000000014701
21
-73.277881251987907
31
0
0
LINE
5
192
100
AcDbEntity
8
0
100
AcDbLine
10
-12.750000000014701
20
-73.277881251987907
30
0
11
-9.5820715322514491
21
-73.277881251987907
31
0
0
LINE
5
193
100
AcDbEntity
8
0
100
AcDbLine
10
-9.5820715322514491
20
-73.277881251987907
30
0
11
-9.5820715322514491
21
-72.227881251942506
31
0
0
LINE
5
194
100
AcDbEntity
8
0
100
AcDbLine
10
-9.5820715322514491
20
-72.227881251942506
30
0
11
-7.0820715322514509
21
-72.227881251942506
31
0
0
LINE
5
195
100
AcDbEntity
8
0
100
AcDbLine
10
-7.0820715322514509
20
-72.227881251942506
30
0
11
-7.0820715322514509
21
-73.277881251987907
31
0
0
SPLINE
5
196
100
AcDbEntity
8
0
100
AcDbSpline
70
0
71
3
72
26
73
22
74
0
42
0.000000001
43
0.0000000001
44
0.0000000001
40
38.255919272452303
40
38.255919272452303
40
38.255919272452303
40
38.255919272452303
40
39.186247538631903
40
39.186247538631903
40
39.186247538631903
40
40.731460410872003
40
40.731460410872003
40
40.731460410872003
40
41.904836335651822
40
41.904836335651822
40
41.904836335651822
40
43.075180042592017
40
43.075180042592017
40
43.075180042592017
40
44.599063815341523
40
44.599063815341523
40
44.599063815341523
40
44.684034682414001
40
44.684034682414001
40
44.684034682414001
40
45.614362948593602
40
45.614362948593602
40
45.614362948593602
40
45.614362948593602
10
-7.0820715322514509
20
-76.777881251987907
30
0
10
-6.7719621101915974
20
-76.777881251987836
30
0
10
-6.4618526881317404
20
-76.777881251987765
30
0
10
-6.1517432660718807
20
-76.777881251987708
30
0
10
-5.6880164791339798
20
-76.777881251987708
30
0
10
-5.1356077099878803
20
-76.552208965575147
30
0
10
-4.7938148807598626
20
-76.131751942043294
30
0
10
-4.534270397094561
20
-75.812472859089738
30
0
10
-4.407500257188544
20
-75.409608446599535
30
0
10
-4.4019573218399577
20
-75.055251845119656
30
0
10
-4.3964287104493573
20
-74.70181096586137
30
0
10
-4.5066882389108152
20
-74.304045307618367
30
0
10
-4.7526316157617625
20
-73.976697828428144
30
0
10
-5.0728701224293822
20
-73.550464484641807
30
0
10
-5.6095398679421935
20
-73.300108061512546
30
0
10
-6.074581213891971
20
-73.279583217411385
30
0
10
-6.1005116471025094
20
-73.278438764119741
30
0
10
-6.1262430467307585
20
-73.277881251987694
30
0
10
-6.1517432660718807
20
-73.277881251987694
30
0
10
-6.4618526881317404
20
-73.277881251987765
30
0
10
-6.7719621101915974
20
-73.277881251987822
30
0
10
-7.0820715322514509
20
-73.277881251987907
30
0
0
LINE
5
197
100
AcDbEntity
8
0
100
AcDbLine
10
-7.0820715322514509
20
-76.777881251987907
30
0
11
-7.0820715322514509
21
-77.827881251942415
31
0
0
LINE
5
198
100
AcDbEntity
8
0
100
AcDbLine
10
-7.0820715322514509
20
-77.827881251942415
30
0
11
-9.5820715322514491
21
-77.827881251942415
31
0
0
LINE
5
199
100
AcDbEntity
8
0
100
AcDbLine
10
-9.5820715322514491
20
-77.827881251942415
30
0
11
-9.5820715322514491
21
-76.777881251987907
31
0
0
LINE
5
200
100
AcDbEntity
8
0
100
AcDbLine
10
-9.5820715322514491
20
-76.777881251987907
30
0
11
-12.7499999999316
21
-76.777881251987907
31
0
0
LINE
5
201
100
AcDbEntity
8
0
100
AcDbLine
10
-12.7499999999316
20
-76.777881251987907
30
0
11
-12.750000000000002
21
-79.787943029345897
31
0
0
LINE
5
202
100
AcDbEntity
8
0
100
AcDbLine
10
-12.750000000000002
20
-79.787943029345897
30
0
11
-18.75
21
-79.787943029345897
31
0
0
LINE
5
203
100
AcDbEntity
8
0
100
AcDbLine
10
-18.75
20
-79.787943029345897
30
0
11
-18.75
21
-76.777881251988006
31
0
0
LINE
5
204
100
AcDbEntity
8
0
100
AcDbLine
10
-18.75
20
-76.777881251988006
30
0
11
-21.152091784006899
21
-76.777881251988006
31
0
0
SPLINE
5
205
100
AcDbEntity
8
0
100
AcDbSpline
70
0
71
3
72
17
73
13
74
0
42
0.000000001
43
0.0000000001
44
0.0000000001
40
6.55653788744889
40
6.55653788744889
40
6.55653788744889
40
6.55653788744889
40
8.863049109064761
40
8.863049109064761
40
8.863049109064761
40
11.146490931436565
40
11.146490931436565
40
11.146490931436565
40
11.268926867833599
40
11.268926867833599
40
11.268926867833599
40
16.065775466140501
40
16.065775466140501
40
16.065775466140501
40
16.065775466140501
10
-18.152091784006899
20
-84.574729850294901
30
0
10
-18.844288346080308
20
-84.574729850294901
30
0
10
-19.652716586644907
20
-84.296067556826344
30
0
10
-20.236035233611297
20
-83.732779826280364
30
0
10
-20.813519609915019
20
-83.175126020002097
30
0
10
-21.124290644011857
20
-82.38087639169575
30
0
10
-21.150036162682323
20
-81.68576814264695
30
0
10
-21.151416612429522
20
-81.648497112338333
30
0
10
-21.152091784006899
20
-81.61147354070232
30
0
10
-21.152091784006899
20
-81.574729850294915
30
0
10
-21.152091784006899
20
-79.975780317525974
30
0
10
-21.152091784006899
20
-78.376830784757004
30
0
10
-21.152091784006899
20
-76.777881251988006
30
0
0
SPLINE
5
206
100
AcDbEntity
8
0
100
AcDbSpline
70
0
71
3
72
35
73
31
74
0
42
0.000000001
43
0.0000000001
44
0.0000000001
40
-407.30936471811299
40
-407.30936471811299
40
-407.30936471811299
40
-407.30936471811299
40
-405.93053392485444
40
-405.93053392485444
40
-405.93053392485444
40
-404.80880302989044
40
-404.80880302989044
40
-404.80880302989044
40
-403.44002876755349
40
-403.44002876755349
40
-403.44002876755349
40
-402.59697573772797
40
-402.59697573772797
40
-402.59697573772797
40
-400.59697573772797
40
-400.59697573772797
40
-400.59697573772797
40
-399.21814494446943
40
-399.21814494446943
40
-399.21814494446943
40
-398.09641404950497
40
-398.09641404950497
40
-398.09641404950497
40
-396.72763978716796
40
-396.72763978716796
40
-396.72763978716796
40
-395.88458675734302
40
-395.88458675734302
40
-395.88458675734302
40
-393.88458675734302
40
-393.88458675734302
40
-393.88458675734302
40
-393.88458675734302
10
-10.191936675615
20
-54.838834764831901
30
0
10
-10.484533657527571
20
-54.546237782919277
30
0
10
-10.985672500156884
20
-54.346610745554685
30
0
10
-11.463278390610869
20
-54.414364205885242
30
0
10
-11.851828809965021
20
-54.469484203251916
30
0
10
-12.17885277992634
20
-54.669285492015291
30
0
10
-12.402540990681146
20
-54.936360227798168
30
0
10
-12.675492967883494
20
-55.262253921286721
30
0
10
-12.821837231624826
20
-55.786383627222698
30
0
10
-12.711536119079911
20
-56.248057989063966
30
0
10
-12.643599652357231
20
-56.532411647846615
30
0
10
-12.492158428488318
20
-56.78125369907778
30
0
10
-12.313257019174602
20
-56.960155108391497
30
0
10
-11.841852498383535
20
-57.431559629182509
30
0
10
-11.370447977592466
20
-57.902964149973542
30
0
10
-10.899043456801401
20
-58.374368670764611
30
0
10
-10.606446474888829
20
-58.666965652677199
30
0
10
-10.105307632259466
20
-58.866592690041777
30
0
10
-9.6277017418055095
20
-58.798839229711213
30
0
10
-9.2391513224512209
20
-58.743719232344503
30
0
10
-8.9121273524899376
20
-58.543917943581114
30
0
10
-8.6884391417350777
20
-58.276843207798017
30
0
10
-8.4154871645327631
20
-57.950949514309301
30
0
10
-8.2691429007916089
20
-57.426819808373175
30
0
10
-8.3794440133367072
20
-56.96514544653197
30
0
10
-8.4473804800594507
20
-56.680791787749556
30
0
10
-8.5988217039282926
20
-56.43194973651859
30
0
10
-8.7777231132418994
20
-56.253048327205008
30
0
10
-9.2491276340329343
20
-55.781643806413939
30
0
10
-9.7205321548239674
20
-55.310239285622906
30
0
10
-10.191936675615
20
-54.838834764831901
30
0
0
SPLINE
5
207
100
AcDbEntity
8
0
100
AcDbSpline
70
0
71
3
72
35
73
31
74
0
42
0.000000001
43
0.0000000001
44
0.0000000001
40
-393.88458675734398
40
-393.88458675734398
40
-393.88458675734398
40
-393.88458675734398
40
-392.50575596408481
40
-392.50575596408481
40
-392.50575596408481
40
-391.38402506911962
40
-391.38402506911962
40
-391.38402506911962
40
-390.01525080678329
40
-390.01525080678329
40
-390.01525080678329
40
-389.17219777695902
40
-389.17219777695902
40
-389.17219777695902
40
-387.17219777695902
40
-387.17219777695902
40
-387.17219777695902
40
-385.79336698369985
40
-385.79336698369985
40
-385.79336698369985
40
-384.6716360887342
40
-384.6716360887342
40
-384.6716360887342
40
-383.30286182639799
40
-383.30286182639799
40
-383.30286182639799
40
-382.45980879657401
40
-382.45980879657401
40
-382.45980879657401
40
-380.45980879657401
40
-380.45980879657401
40
-380.45980879657401
40
-380.45980879657401
10
-31.405140111211402
20
-33.625631329235397
30
0
10
-31.697737093124001
20
-33.333034347322801
30
0
10
-32.198875935753286
20
-33.133407309958244
30
0
10
-32.676481826207279
20
-33.201160770288773
30
0
10
-33.065032245561675
20
-33.256280767655468
30
0
10
-33.392056215523034
20
-33.456082056418843
30
0
10
-33.615744426278098
20
-33.723156792202325
30
0
10
-33.888696403480346
20
-34.049050485691126
30
0
10
-34.035040667221331
20
-34.573180191627166
30
0
10
-33.924739554676151
20
-35.03485455346835
30
0
10
-33.856803087953381
20
-35.319208212250658
30
0
10
-33.705361864084551
20
-35.568050263481567
30
0
10
-33.526460454770998
20
-35.746951672795099
30
0
10
-33.05505593398
20
-36.218356193586104
30
0
10
-32.583651413188967
20
-36.689760714377137
30
0
10
-32.112246892397906
20
-37.161165235168198
30
0
10
-31.819649910485307
20
-37.453762217080794
30
0
10
-31.318511067855972
20
-37.653389254445358
30
0
10
-30.840905177402004
20
-37.585635794114815
30
0
10
-30.452354758047463
20
-37.530515796748098
30
0
10
-30.125330788086131
20
-37.330714507984723
30
0
10
-29.901642577331039
20
-37.063639772201078
30
0
10
-29.628690600128884
20
-36.737746078712227
30
0
10
-29.482346336388005
20
-36.213616372776002
30
0
10
-29.592647448933263
20
-35.751942010934904
30
0
10
-29.660583915656069
20
-35.467588352152724
30
0
10
-29.812025139524827
20
-35.218746300921978
30
0
10
-29.990926548838299
20
-35.039844891608503
30
0
10
-30.4623310696293
20
-34.568440370817505
30
0
10
-30.933735590420333
20
-34.097035850026465
30
0
10
-31.405140111211402
20
-33.625631329235397
30
0
0
SPLINE
5
208
100
AcDbEntity
8
0
100
AcDbSpline
70
0
71
3
72
35
73
31
74
0
42
0.000000001
43
0.0000000001
44
0.0000000001
40
-420.73414267888199
40
-420.73414267888199
40
-420.73414267888199
40
-420.73414267888199
40
-419.35531188562351
40
-419.35531188562351
40
-419.35531188562351
40
-418.23358099065916
40
-418.23358099065916
40
-418.23358099065916
40
-416.86480672832272
40
-416.86480672832272
40
-416.86480672832272
40
-416.021753698498
40
-416.021753698498
40
-416.021753698498
40
-414.021753698498
40
-414.021753698498
40
-414.021753698498
40
-412.64292290523889
40
-412.64292290523889
40
-412.64292290523889
40
-411.52119201027313
40
-411.52119201027313
40
-411.52119201027313
40
-410.15241774793679
40
-410.15241774793679
40
-410.15241774793679
40
-409.30936471811299
40
-409.30936471811299
40
-409.30936471811299
40
-407.30936471811299
40
-407.30936471811299
40
-407.30936471811299
40
-407.30936471811299
10
-12.313257019174602
20
-35.039844891608503
30
0
10
-12.605854001087184
20
-35.332441873521113
30
0
10
-12.805481038451754
20
-35.833580716150443
30
0
10
-12.73772757812123
20
-36.311186606604394
30
0
10
-12.682607580754562
20
-36.699737025958655
30
0
10
-12.482806291991238
20
-37.026760995919901
30
0
10
-12.215731556208096
20
-37.250449206674858
30
0
10
-11.889837862719437
20
-37.523401183877205
30
0
10
-11.365708156783326
20
-37.669745447618425
30
0
10
-10.904033794942062
20
-37.559444335073387
30
0
10
-10.619680136159575
20
-37.491507868350674
30
0
10
-10.37083808492854
20
-37.340066644481823
30
0
10
-10.191936675614899
20
-37.161165235168198
30
0
10
-9.7205321548239336
20
-36.689760714377137
30
0
10
-9.2491276340329343
20
-36.218356193586104
30
0
10
-8.7777231132418994
20
-35.746951672795099
30
0
10
-8.4851261313292614
20
-35.454354690882511
30
0
10
-8.2854990939646331
20
-34.95321584825313
30
0
10
-8.3532525542951692
20
-34.475609957799136
30
0
10
-8.4083725516618912
20
-34.087059538444521
30
0
10
-8.6081738404253176
20
-33.760035568483133
30
0
10
-8.8752485762090316
20
-33.536347357728033
30
0
10
-9.2011422696979501
20
-33.263395380525893
30
0
10
-9.7252719756341168
20
-33.117051116785092
30
0
10
-10.186946337475202
20
-33.2273522293304
30
0
10
-10.471299996257297
20
-33.295288696053213
30
0
10
-10.720142047487993
20
-33.446729919921971
30
0
10
-10.899043456801401
20
-33.625631329235397
30
0
10
-11.370447977592466
20
-34.097035850026465
30
0
10
-11.841852498383535
20
-34.568440370817505
30
0
10
-12.313257019174602
20
-35.039844891608503
30
0
0
SPLINE
5
209
100
AcDbEntity
8
0
100
AcDbSpline
70
0
71
3
72
35
73
31
74
0
42
0.000000001
43
0.0000000001
44
0.0000000001
40
-380.45980879657407
40
-380.45980879657407
40
-380.45980879657407
40
-380.45980879657407
40
-379.08097800331547
40
-379.08097800331547
40
-379.08097800331547
40
-377.95924710835175
40
-377.95924710835175
40
-377.95924710835175
40
-376.59047284601479
40
-376.59047284601479
40
-376.59047284601479
40
-375.74741981618888
40
-375.74741981618888
40
-375.74741981618888
40
-373.74741981618888
40
-373.74741981618888
40
-373.74741981618888
40
-372.36858902293045
40
-372.36858902293045
40
-372.36858902293045
40
-371.2468581279669
40
-371.2468581279669
40
-371.2468581279669
40
-369.87808386563046
40
-369.87808386563046
40
-369.87808386563046
40
-369.03503083580489
40
-369.03503083580489
40
-369.03503083580489
40
-367.03503083580506
40
-367.03503083580506
40
-367.03503083580506
40
-367.03503083580506
10
-33.526460454770877
20
-56.25304832720488
30
0
10
-33.819057436683529
20
-56.54564530911739
30
0
10
-34.018684474048186
20
-57.046784151746664
30
0
10
-33.950931013717678
20
-57.524390042200665
30
0
10
-33.895811016351061
20
-57.912940461554719
30
0
10
-33.696009727587779
20
-58.239964431516043
30
0
10
-33.428934991805058
20
-58.46365264227088
30
0
10
-33.103041298316612
20
-58.736604619473319
30
0
10
-32.578911592380685
20
-58.882948883214858
30
0
10
-32.117237230539367
20
-58.772647770670062
30
0
10
-31.832883571756554
20
-58.704711303947434
30
0
10
-31.584041520525204
20
-58.55327008007842
30
0
10
-31.405140111211402
20
-58.374368670764611
30
0
10
-30.933735590420333
20
-57.902964149973542
30
0
10
-30.4623310696293
20
-57.431559629182509
30
0
10
-29.990926548838299
20
-56.960155108391497
30
0
10
-29.698329566925729
20
-56.667558126478951
30
0
10
-29.498702529561154
20
-56.166419283849677
30
0
10
-29.566455989891654
20
-55.688813393395698
30
0
10
-29.621575987258268
20
-55.300262974041686
30
0
10
-29.821377276021398
20
-54.973239004080455
30
0
10
-30.088452011804215
20
-54.749550793325582
30
0
10
-30.414345705292718
20
-54.476598816123136
30
0
10
-30.938475411228694
20
-54.330254552381604
30
0
10
-31.400149773070009
20
-54.4405556649264
30
0
10
-31.684503431852814
20
-54.508492131649035
30
0
10
-31.933345483084132
20
-54.659933355518
30
0
10
-32.112246892397906
20
-54.838834764831802
30
0
10
-32.583651413188932
20
-55.310239285622835
30
0
10
-33.055055933979922
20
-55.781643806413854
30
0
10
-33.526460454770877
20
-56.25304832720488
30
0
0
SPLINE
5
210
100
AcDbEntity
8
0
100
AcDbSpline
70
0
71
3
72
55
73
51
74
0
42
0.000000001
43
0.0000000001
44
0.0000000001
40
4.5054258338028843
40
4.5054258338028843
40
4.5054258338028843
40
4.5054258338028843
40
4.5806765397197102
40
4.5806765397197102
40
7.9358082857520778
40
7.9358082857520778
40
8.7420176436267152
40
8.7420176436267152
40
9.3226653057260283
40
9.3226653057260283
40
9.461457822428974
40
9.461457822428974
40
9.5559461228323279
40
9.5559461228323279
40
9.6444147007534191
40
9.6444147007534191
40
9.7264779861528208
40
9.7264779861528208
40
9.8105727887981917
40
9.8105727887981917
40
9.8864171392864328
40
9.8864171392864328
40
9.9617499924000796
40
9.9617499924000796
40
9.9617499924000796
40
10.035252471613914
40
10.035252471613914
40
10.144117598305035
40
10.144117598305035
40
11.546889770765556
40
11.546889770765556
40
12.024346660507002
40
12.024346660507002
40
12.236868049196234
40
12.236868049196234
40
12.575221710078271
40
12.575221710078271
40
12.897623709983812
40
12.897623709983812
40
13.196404751760518
40
13.196404751760518
40
13.481830014175838
40
13.481830014175838
40
13.771778226264301
40
13.771778226264301
40
14.048974299728059
40
14.048974299728059
40
14.305801642015545
40
14.305801642015545
40
14.467175826202965
40
14.467175826202965
40
14.467175826202965
40
14.467175826202965
10
17.686004036580108
20
-58.872957397539984
30
0
10
17.69931558963092
20
-58.789901868906185
30
0
10
17.714578654492627
20
-58.696821021703762
30
0
10
18.545531236569794
20
-53.666731055422268
30
0
10
19.822076402043443
20
-48.736664728799028
30
0
10
22.027168169160035
20
-42.699119845073028
30
0
10
22.489181341125644
20
-41.516992390702811
30
0
10
23.349530471195116
20
-39.463634937372639
30
0
10
23.73127923305351
20
-38.593747648275738
30
0
10
24.2334497513462
20
-37.503551677389325
30
0
10
24.356972461518524
20
-37.244085398142147
30
0
10
24.397998523196019
20
-36.604086297142892
30
0
10
24.364287520954363
20
-36.338892169614056
30
0
10
24.193954523493719
20
-35.844692848274796
30
0
10
24.065384160698926
20
-35.618710412234762
30
0
10
23.732536742434533
20
-35.237098862549459
30
0
10
23.536953893974434
20
-35.080605544620425
30
0
10
23.082597524269456
20
-34.842915974541903
30
0
10
22.826800272076504
20
-34.76610882338511
30
0
10
22.315739608273567
20
-34.721836392893934
30
0
10
22.066751820209806
20
-34.744808241016585
30
0
10
21.583086104840739
20
-34.886253940854189
30
0
10
21.357487687255965
20
-35.001501918640251
30
0
10
21.159124760410378
20
-35.155476382289081
30
0
10
20.965581488057911
20
-35.305709704751138
30
0
10
20.797419327205336
20
-35.493229241667009
30
0
10
20.474150668753307
20
-36.036036712079422
30
0
10
20.325648526590221
20
-36.42664696281247
30
0
10
18.016611976458673
20
-41.570158247592133
30
0
10
16.273566603924976
20
-46.621326989963059
30
0
10
14.573388264056927
20
-53.708578381460256
30
0
10
14.191731172980342
20
-55.556161030691555
30
0
10
13.723041393856983
20
-58.296012728308035
30
0
10
13.706928524088637
20
-58.46534683916407
30
0
10
13.722618637834469
20
-58.887618840857044
30
0
10
13.782845708061336
20
-59.147843048099858
30
0
10
14.003751648662217
20
-59.626050495035571
30
0
10
14.157671926889776
20
-59.841104080025062
30
0
10
14.53556242820223
20
-60.190517425431466
30
0
10
14.750581818245008
20
-60.326740043028728
30
0
10
15.219809279639819
20
-60.508103214127331
30
0
10
15.468012749718415
20
-60.555470351770239
30
0
10
15.982922763607881
20
-60.552421642732909
30
0
10
16.24484078886017
20
-60.500370082645418
30
0
10
16.730402841052651
20
-60.294256231873277
30
0
10
16.950775829960644
20
-60.146552508101919
30
0
10
17.312479678362727
20
-59.778257996621605
30
0
10
17.455418518093175
20
-59.566749967610747
30
0
10
17.618198485226362
20
-59.179432293713575
30
0
10
17.651196686174607
20
-59.049910241795388
30
0
10
17.686004036580108
20
-58.872957397539984
30
0
0
CIRCLE
5
211
100
AcDbEntity
8
0
100
AcDbCircle
10
-21.152091784006089
20
-46.000000000000099
30
0
40
11
210
-0
220
0
230
1
0
ENDSEC
0
SECTION
2
OBJECTS
0
DICTIONARY
5
C
100
AcDbDictionary
3
ACAD_GROUP
350
D
3
ACAD_MLINESTYLE
350
17
0
DICTIONARY
5
D
100
AcDbDictionary
0
DICTIONARY
5
1A
330
C
100
AcDbDictionary
0
DICTIONARY
5
17
100
AcDbDictionary
0
ENDSEC
0
EOF
