0
SECTION
2
HEADER
9
$INSUNITS
70
4
9
$ACADVER
1
AC1014
9
$HANDSEED
5
FFFF
0
ENDSEC
0
SECTION
2
TABLES
0
TABLE
2
VPORT
5
8
100
AcDbSymbolTable
0
ENDTAB
0
TABLE
2
LTYPE
5
5
100
AcDbSymbolTable
0
LTYPE
5
14
100
AcDbSymbolTableRecord
100
AcDbLinetypeTableRecord
2
BYBLOCK
70
0
0
LTYPE
5
15
100
AcDbSymbolTableRecord
100
AcDbLinetypeTableRecord
2
BYLAYER
70
0
0
LTYPE
5
16
100
AcDbSymbolTableRecord
100
AcDbLinetypeTableRecord
2
DASHED
70
0
3
Dashed __ __ __ __ __ __ __ __ __ __ __ __ __ _
72
65
73
2
40
0.75
49
0.5
74
0
49
-0.25
74
0
0
ENDTAB
0
TABLE
2
LAYER
5
2
100
AcDbSymbolTable
70
2
0
LAYER
5
50
100
AcDbSymbolTableRecord
100
AcDbLayerTableRecord
2
0
70
0
62
7
6
CONTINUOUS
0
ENDTAB
0
TABLE
2
STYLE
5
3
100
AcDbSymbolTable
70
1
0
STYLE
5
11
100
AcDbSymbolTableRecord
100
AcDbTextStyleTableRecord
2
STANDARD
70
0
0
ENDTAB
0
TABLE
2
VIEW
5
6
100
AcDbSymbolTable
70
0
0
ENDTAB
0
TABLE
2
UCS
5
7
100
AcDbSymbolTable
70
0
0
ENDTAB
0
TABLE
2
APPID
5
9
100
AcDbSymbolTable
70
2
0
APPID
5
12
100
AcDbSymbolTableRecord
100
AcDbRegAppTableRecord
2
ACAD
70
0
0
ENDTAB
0
TABLE
2
DIMSTYLE
5
A
100
AcDbSymbolTable
70
1
0
ENDTAB
0
TABLE
2
BLOCK_RECORD
5
1
100
AcDbSymbolTable
70
1
0
BLOCK_RECORD
5
1F
100
AcDbSymbolTableRecord
100
AcDbBlockTableRecord
2
*MODEL_SPACE
0
BLOCK_RECORD
5
1B
100
AcDbSymbolTableRecord
100
AcDbBlockTableRecord
2
*PAPER_SPACE
0
ENDTAB
0
ENDSEC
0
SECTION
2
BLOCKS
0
BLOCK
5
20
100
AcDbEntity
100
AcDbBlockBegin
2
*MODEL_SPACE
0
ENDBLK
5
21
100
AcDbEntity
100
AcDbBlockEnd
0
BLOCK
5
1C
100
AcDbEntity
100
AcDbBlockBegin
2
*PAPER_SPACE
0
ENDBLK
5
1D
100
AcDbEntity
100
AcDbBlockEnd
0
ENDSEC
0
SECTION
2
ENTITIES
0
LWPOLYLINE
5
100
100
AcDbEntity
8
0
100
AcDbPolyline
90
4
70
1
43
0.0
10
-17.499999999876472
20
-97.574729850295
10
-20.999999999880899
20
-97.574729850295498
42
-0.99999999999999989
10
-20.999999999880899
20
-92.574729850295498
10
-17.499999999876472
20
-92.574729850295
42
-0.99999999999999989
0
LWPOLYLINE
5
101
100
AcDbEntity
8
0
100
AcDbPolyline
90
4
70
1
43
0.0
10
17.499999999878099
20
-92.574729850295
10
20.9999999998786
20
-92.574729850295
42
-0.99999999999999989
10
20.9999999998786
20
-97.574729850295
10
17.499999999878099
20
-97.574729850295
42
-0.99999999999999989
0
LWPOLYLINE
5
102
100
AcDbEntity
8
0
100
AcDbPolyline
90
18
70
1
43
0.0
10
-20.999999999877001
20
-84.574729850295483
42
0.99999999999999989
10
-20.999999999884508
20
-105.5747298502955
10
20.999999999878799
20
-105.57472985029599
42
0.99999999999999989
10
20.999999999878799
20
-84.574729850295483
10
12.749999999998
20
-84.574729850295512
10
12.749999999998
20
-79.787943029346394
10
18.499999999998
20
-79.787943029346394
10
18.499999999998
20
-67.795876439751311
10
12.749999999998
20
-67.795876439751311
10
12.7500000000698
20
-60.676416428578897
10
11.427219329858666
20
-60.676416428744453
42
-0.52110562139919026
10
-11.427219329755932
20
-60.676416428447226
10
-12.750000000121602
20
-60.676416428578897
10
-12.750000000002002
20
-67.795876439751311
10
-18.500000000002
20
-67.795876439751311
10
-18.500000000002
20
-79.787943029346394
10
-12.750000000002002
20
-79.787943029346394
10
-12.750000000002002
20
-84.574729850295512
0
CIRCLE
5
103
100
AcDbEntity
8
0
100
AcDbCircle
10
5.0000000000334399
20
-98.074729850295412
30
0
40
1.25000000000001
210
0
220
-0
230
1
0
CIRCLE
5
104
100
AcDbEntity
8
0
100
AcDbCircle
10
-4.9999999999665699
20
-98.074729850295412
30
0
40
1.25
210
0
220
-0
230
1
0
CIRCLE
5
105
100
AcDbEntity
8
0
100
AcDbCircle
10
-15.750000000028002
20
-75.02788125198802
30
0
40
1.7500000000000002
210
0
220
-0
230
1
0
CIRCLE
5
106
100
AcDbEntity
8
0
100
AcDbCircle
10
15.749999999971999
20
-75.02788125198802
30
0
40
1.7500000000000102
210
0
220
-0
230
1
0
LWPOLYLINE
5
107
100
AcDbEntity
8
0
100
AcDbPolyline
90
4
70
1
43
0.0
10
-17.499999999876472
20
-97.574729850295
10
-20.999999999880899
20
-97.574729850295498
42
-0.99999999999999989
10
-20.999999999880899
20
-92.574729850295498
10
-17.499999999876472
20
-92.574729850295
42
-0.99999999999999989
0
LWPOLYLINE
5
108
100
AcDbEntity
8
0
100
AcDbPolyline
90
4
70
1
43
0.0
10
17.499999999878099
20
-92.574729850295
10
20.9999999998786
20
-92.574729850295
42
-0.99999999999999989
10
20.9999999998786
20
-97.574729850295
10
17.499999999878099
20
-97.574729850295
42
-0.99999999999999989
0
LWPOLYLINE
5
109
100
AcDbEntity
8
0
100
AcDbPolyline
90
18
70
1
43
0.0
10
-20.999999999877001
20
-84.574729850295483
42
0.99999999999999989
10
-20.999999999884508
20
-105.5747298502955
10
20.999999999878799
20
-105.57472985029599
42
0.99999999999999989
10
20.999999999878799
20
-84.574729850295483
10
12.749999999998
20
-84.574729850295512
10
12.749999999998
20
-79.787943029346394
10
18.499999999998
20
-79.787943029346394
10
18.499999999998
20
-67.795876439751311
10
12.749999999998
20
-67.795876439751311
10
12.7500000000698
20
-60.676416428578897
10
11.427219329858666
20
-60.676416428744453
42
-0.52110562139919026
10
-11.427219329755932
20
-60.676416428447226
10
-12.750000000121602
20
-60.676416428578897
10
-12.750000000002002
20
-67.795876439751311
10
-18.500000000002
20
-67.795876439751311
10
-18.500000000002
20
-79.787943029346394
10
-12.750000000002002
20
-79.787943029346394
10
-12.750000000002002
20
-84.574729850295512
0
CIRCLE
5
110
100
AcDbEntity
8
0
100
AcDbCircle
10
-15.750000000028002
20
-75.02788125198802
30
0
40
1.7500000000000002
210
0
220
-0
230
1
0
CIRCLE
5
111
100
AcDbEntity
8
0
100
AcDbCircle
10
15.749999999971999
20
-75.02788125198802
30
0
40
1.7500000000000102
210
0
220
-0
230
1
0
CIRCLE
5
112
100
AcDbEntity
8
0
100
AcDbCircle
10
-4.9999999999665699
20
-98.074729850295412
30
0
40
1.25
210
0
220
-0
230
1
0
CIRCLE
5
113
100
AcDbEntity
8
0
100
AcDbCircle
10
5.0000000000334399
20
-98.074729850295412
30
0
40
1.25000000000001
210
0
220
-0
230
1
0
ENDSEC
0
SECTION
2
OBJECTS
0
DICTIONARY
5
C
100
AcDbDictionary
3
ACAD_GROUP
350
D
3
ACAD_MLINESTYLE
350
17
0
DICTIONARY
5
D
100
AcDbDictionary
0
DICTIONARY
5
1A
330
C
100
AcDbDictionary
0
DICTIONARY
5
17
100
AcDbDictionary
0
ENDSEC
0
EOF
