0
SECTION
2
HEADER
9
$INSUNITS
70
4
9
$ACADVER
1
AC1014
9
$HANDSEED
5
FFFF
0
ENDSEC
0
SECTION
2
TABLES
0
TABLE
2
VPORT
5
8
100
AcDbSymbolTable
0
ENDTAB
0
TABLE
2
LTYPE
5
5
100
AcDbSymbolTable
0
LTYPE
5
14
100
AcDbSymbolTableRecord
100
AcDbLinetypeTableRecord
2
BYBLOCK
70
0
0
LTYPE
5
15
100
AcDbSymbolTableRecord
100
AcDbLinetypeTableRecord
2
BYLAYER
70
0
0
LTYPE
5
16
100
AcDbSymbolTableRecord
100
AcDbLinetypeTableRecord
2
DASHED
70
0
3
Dashed __ __ __ __ __ __ __ __ __ __ __ __ __ _
72
65
73
2
40
0.75
49
0.5
74
0
49
-0.25
74
0
0
ENDTAB
0
TABLE
2
LAYER
5
2
100
AcDbSymbolTable
70
2
0
LAYER
5
50
100
AcDbSymbolTableRecord
100
AcDbLayerTableRecord
2
0
70
0
62
7
6
CONTINUOUS
0
ENDTAB
0
TABLE
2
STYLE
5
3
100
AcDbSymbolTable
70
1
0
STYLE
5
11
100
AcDbSymbolTableRecord
100
AcDbTextStyleTableRecord
2
STANDARD
70
0
0
ENDTAB
0
TABLE
2
VIEW
5
6
100
AcDbSymbolTable
70
0
0
ENDTAB
0
TABLE
2
UCS
5
7
100
AcDbSymbolTable
70
0
0
ENDTAB
0
TABLE
2
APPID
5
9
100
AcDbSymbolTable
70
2
0
APPID
5
12
100
AcDbSymbolTableRecord
100
AcDbRegAppTableRecord
2
ACAD
70
0
0
ENDTAB
0
TABLE
2
DIMSTYLE
5
A
100
AcDbSymbolTable
70
1
0
ENDTAB
0
TABLE
2
BLOCK_RECORD
5
1
100
AcDbSymbolTable
70
1
0
BLOCK_RECORD
5
1F
100
AcDbSymbolTableRecord
100
AcDbBlockTableRecord
2
*MODEL_SPACE
0
BLOCK_RECORD
5
1B
100
AcDbSymbolTableRecord
100
AcDbBlockTableRecord
2
*PAPER_SPACE
0
ENDTAB
0
ENDSEC
0
SECTION
2
BLOCKS
0
BLOCK
5
20
100
AcDbEntity
100
AcDbBlockBegin
2
*MODEL_SPACE
0
ENDBLK
5
21
100
AcDbEntity
100
AcDbBlockEnd
0
BLOCK
5
1C
100
AcDbEntity
100
AcDbBlockBegin
2
*PAPER_SPACE
0
ENDBLK
5
1D
100
AcDbEntity
100
AcDbBlockEnd
0
ENDSEC
0
SECTION
2
ENTITIES
0
LWPOLYLINE
5
100
100
AcDbEntity
8
0
100
AcDbPolyline
90
4
70
1
43
0.0
10
-17.499999999876419
20
40.766864974878409
10
-20.999999999878099
20
40.766864974878303
42
-0.99999999999999989
10
-20.999999999878099
20
45.766864974878303
10
-17.499999999876419
20
45.766864974878409
42
-0.99999999999999989
0
LWPOLYLINE
5
101
100
AcDbEntity
8
0
100
AcDbPolyline
90
4
70
1
43
0.0
10
17.499999999878099
20
45.766864974878409
10
20.999999999877904
20
45.766864974878196
42
-0.99999999999999989
10
20.999999999877904
20
40.76686497487821
10
17.499999999878099
20
40.766864974878409
42
-0.99999999999999989
0
LWPOLYLINE
5
102
100
AcDbEntity
8
0
100
AcDbPolyline
90
16
70
1
43
0.0
10
11.427219329822503
20
1.7233328038543303
10
12.750000000073001
20
1.7233328038833
10
18.749999999996799
20
1.7233328039863203
10
18.749999999996799
20
15.660980444634699
10
12.749999999996803
20
15.660980444634699
10
12.749999999996803
20
33.012764042580798
10
20.999999999877701
20
33.012764042580798
42
0.99999999999999989
10
20.999999999877708
20
54.012764042580699
10
-20.999999999885599
20
54.012764042580805
42
0.99999999999999989
10
-20.999999999878405
20
33.01276404258072
10
-12.750000000003201
20
33.012764042580699
10
-12.750000000003201
20
15.660980444634699
10
-18.750000000003201
20
15.660980444634699
10
-18.750000000153499
20
1.7233328039862994
10
-12.750000000003201
20
1.7233328039863502
10
-11.427219329792027
20
1.7233328041518348
42
-0.52110562139918848
0
CIRCLE
5
103
100
AcDbEntity
8
0
100
AcDbCircle
10
-16
20
8.6863391673732604
30
0
40
1.7500000000000002
210
-0
220
0
230
1
0
CIRCLE
5
104
100
AcDbEntity
8
0
100
AcDbCircle
10
15.499999999996801
20
8.6921566243105097
30
0
40
1.7500000000000002
210
0
220
0
230
1
0
SPLINE
5
105
100
AcDbEntity
8
0
100
AcDbSpline
70
0
71
3
72
48
73
44
74
0
42
0.000000001
43
0.0000000001
44
0.0000000001
40
-12.807638473042498
40
-12.807638473042498
40
-12.807638473042498
40
-12.807638473042498
40
-3.6621132937994734
40
-3.6621132937994734
40
-3.339834985466863
40
-3.339834985466863
40
-3.0945034694274507
40
-3.0945034694274507
40
-2.8394942000348933
40
-2.8394942000348933
40
-2.5856919393931297
40
-2.5856919393931297
40
-2.3486748506183406
40
-2.3486748506183406
40
-2.1040059878654418
40
-2.1040059878654418
40
-1.8497585037641877
40
-1.8497585037641877
40
-1.5958782554856175
40
-1.5958782554856175
40
-1.5058617104219212
40
-1.5058617104219212
40
-0.99310888513910756
40
-0.99310888513910756
40
-0.82738985846837931
40
-0.82738985846837931
40
-0.70965854598164424
40
-0.70965854598164424
40
-0.61037386907754043
40
-0.61037386907754043
40
-0.51320115556643009
40
-0.51320115556643009
40
-0.41954563122872723
40
-0.41954563122872723
40
-0.32151935415171901
40
-0.32151935415171901
40
-0.22224469434093738
40
-0.22224469434093738
40
-0.12485502311279134
40
-0.12485502311279134
40
-0.031001373492184466
40
-0.031001373492184466
40
0
40
0
40
0
40
0
10
-6.4665986309548806
20
45.766864974878203
30
0
10
-1.7674865699239384
20
45.766864974878203
30
0
10
2.9316254911070052
20
45.766864974878203
30
0
10
7.7963291235363394
20
45.766864974878203
30
0
10
8.1197972132480274
20
45.766864974878203
30
0
10
8.8181418656820991
20
45.525722138911391
30
0
10
9.0972336741203943
20
45.364623705476248
30
0
10
9.589191673122075
20
44.937889661347185
30
0
10
9.794121385634643
20
44.672622442646457
30
0
10
10.087702090527237
20
44.078974930894297
30
0
10
10.17400819425813
20
43.75674450594736
30
0
10
10.214947834538465
20
43.119202307576501
30
0
10
10.177560539276271
20
42.810315990139188
30
0
10
9.9892669106597332
20
42.212291435987623
30
0
10
9.836457244714552
20
41.929583394896675
30
0
10
9.425079904738265
20
41.427107697003976
30
0
10
9.1666704496229361
20
41.215201821659981
30
0
10
8.5827756573124816
20
40.904564148128586
30
0
10
8.2631404100311254
20
40.808729797086073
30
0
10
7.8174830089164535
20
40.766864974878203
30
0
10
7.729415176164065
20
40.766864974878203
30
0
10
3.890333247536224
20
40.76686497487826
30
0
10
0.62457323676377796
20
40.766864974878281
30
0
10
-3.6966632992270192
20
40.766864974878288
30
0
10
-4.7521398244453712
20
40.766864974878303
30
0
10
-6.5574556355279583
20
40.766864974878303
30
0
10
-6.8590365119540442
20
40.766864974878303
30
0
10
-7.5476302845126018
20
40.988510716414616
30
0
10
-7.8394129169206463
20
41.151466998116248
30
0
10
-8.3372000088103704
20
41.57696314318396
30
0
10
-8.5401853255495421
20
41.833283443986616
30
0
10
-8.8316914390022507
20
42.398650513383487
30
0
10
-8.9215266194904999
20
42.700482644679582
30
0
10
-8.9869121460476915
20
43.336067580485469
30
0
10
-8.9563035959608985
20
43.664531156032652
30
0
10
-8.7692807055145909
20
44.295048396586608
30
0
10
-8.6131168726546914
20
44.590483223952511
30
0
10
-8.1987947479754784
20
45.098499026780928
30
0
10
-7.9465686780844891
20
45.30771657663329
30
0
10
-7.3866078539853337
20
45.612383180607324
30
0
10
-7.0861647670397865
20
45.708997306080967
30
0
10
-6.6731751142711833
20
45.760457754759955
30
0
10
-6.569936542595495
20
45.766864982017182
30
0
10
-6.4665986309548806
20
45.766864974878203
30
0
0
LWPOLYLINE
5
106
100
AcDbEntity
8
0
100
AcDbPolyline
90
4
70
1
43
0.0
10
-17.499999999876419
20
40.766864974878409
10
-20.999999999878099
20
40.766864974878303
42
-0.99999999999999989
10
-20.999999999878099
20
45.766864974878303
10
-17.499999999876419
20
45.766864974878409
42
-0.99999999999999989
0
LWPOLYLINE
5
107
100
AcDbEntity
8
0
100
AcDbPolyline
90
4
70
1
43
0.0
10
17.499999999878099
20
45.766864974878409
10
20.999999999877904
20
45.766864974878196
42
-0.99999999999999989
10
20.999999999877904
20
40.76686497487821
10
17.499999999878099
20
40.766864974878409
42
-0.99999999999999989
0
LWPOLYLINE
5
108
100
AcDbEntity
8
0
100
AcDbPolyline
90
16
70
1
43
0.0
10
11.427219329822503
20
1.7233328038543303
10
12.750000000073001
20
1.7233328038833
10
18.749999999996799
20
1.7233328039863203
10
18.749999999996799
20
15.660980444634699
10
12.749999999996803
20
15.660980444634699
10
12.749999999996803
20
33.012764042580798
10
20.999999999877701
20
33.012764042580798
42
0.99999999999999989
10
20.999999999877708
20
54.012764042580699
10
-20.999999999885599
20
54.012764042580805
42
0.99999999999999989
10
-20.999999999878405
20
33.01276404258072
10
-12.750000000003201
20
33.012764042580699
10
-12.750000000003201
20
15.660980444634699
10
-18.750000000003201
20
15.660980444634699
10
-18.750000000153499
20
1.7233328039862994
10
-12.750000000003201
20
1.7233328039863502
10
-11.427219329792027
20
1.7233328041518348
42
-0.52110562139918848
0
CIRCLE
5
109
100
AcDbEntity
8
0
100
AcDbCircle
10
-16
20
8.6863391673732604
30
0
40
1.7500000000000002
210
-0
220
0
230
1
0
CIRCLE
5
110
100
AcDbEntity
8
0
100
AcDbCircle
10
15.499999999996801
20
8.6921566243105097
30
0
40
1.7500000000000002
210
0
220
0
230
1
0
SPLINE
5
111
100
AcDbEntity
8
0
100
AcDbSpline
70
0
71
3
72
48
73
44
74
0
42
0.000000001
43
0.0000000001
44
0.0000000001
40
-12.807638473042498
40
-12.807638473042498
40
-12.807638473042498
40
-12.807638473042498
40
-3.6621132937994734
40
-3.6621132937994734
40
-3.339834985466863
40
-3.339834985466863
40
-3.0945034694274507
40
-3.0945034694274507
40
-2.8394942000348933
40
-2.8394942000348933
40
-2.5856919393931297
40
-2.5856919393931297
40
-2.3486748506183406
40
-2.3486748506183406
40
-2.1040059878654418
40
-2.1040059878654418
40
-1.8497585037641877
40
-1.8497585037641877
40
-1.5958782554856175
40
-1.5958782554856175
40
-1.5058617104219212
40
-1.5058617104219212
40
-0.99310888513910756
40
-0.99310888513910756
40
-0.82738985846837931
40
-0.82738985846837931
40
-0.70965854598164424
40
-0.70965854598164424
40
-0.61037386907754043
40
-0.61037386907754043
40
-0.51320115556643009
40
-0.51320115556643009
40
-0.41954563122872723
40
-0.41954563122872723
40
-0.32151935415171901
40
-0.32151935415171901
40
-0.22224469434093738
40
-0.22224469434093738
40
-0.12485502311279134
40
-0.12485502311279134
40
-0.031001373492184466
40
-0.031001373492184466
40
0
40
0
40
0
40
0
10
-6.4665986309548806
20
45.766864974878203
30
0
10
-1.7674865699239384
20
45.766864974878203
30
0
10
2.9316254911070052
20
45.766864974878203
30
0
10
7.7963291235363394
20
45.766864974878203
30
0
10
8.1197972132480274
20
45.766864974878203
30
0
10
8.8181418656820991
20
45.525722138911391
30
0
10
9.0972336741203943
20
45.364623705476248
30
0
10
9.589191673122075
20
44.937889661347185
30
0
10
9.794121385634643
20
44.672622442646457
30
0
10
10.087702090527237
20
44.078974930894297
30
0
10
10.17400819425813
20
43.75674450594736
30
0
10
10.214947834538465
20
43.119202307576501
30
0
10
10.177560539276271
20
42.810315990139188
30
0
10
9.9892669106597332
20
42.212291435987623
30
0
10
9.836457244714552
20
41.929583394896675
30
0
10
9.425079904738265
20
41.427107697003976
30
0
10
9.1666704496229361
20
41.215201821659981
30
0
10
8.5827756573124816
20
40.904564148128586
30
0
10
8.2631404100311254
20
40.808729797086073
30
0
10
7.8174830089164535
20
40.766864974878203
30
0
10
7.729415176164065
20
40.766864974878203
30
0
10
3.890333247536224
20
40.76686497487826
30
0
10
0.62457323676377796
20
40.766864974878281
30
0
10
-3.6966632992270192
20
40.766864974878288
30
0
10
-4.7521398244453712
20
40.766864974878303
30
0
10
-6.5574556355279583
20
40.766864974878303
30
0
10
-6.8590365119540442
20
40.766864974878303
30
0
10
-7.5476302845126018
20
40.988510716414616
30
0
10
-7.8394129169206463
20
41.151466998116248
30
0
10
-8.3372000088103704
20
41.57696314318396
30
0
10
-8.5401853255495421
20
41.833283443986616
30
0
10
-8.8316914390022507
20
42.398650513383487
30
0
10
-8.9215266194904999
20
42.700482644679582
30
0
10
-8.9869121460476915
20
43.336067580485469
30
0
10
-8.9563035959608985
20
43.664531156032652
30
0
10
-8.7692807055145909
20
44.295048396586608
30
0
10
-8.6131168726546914
20
44.590483223952511
30
0
10
-8.1987947479754784
20
45.098499026780928
30
0
10
-7.9465686780844891
20
45.30771657663329
30
0
10
-7.3866078539853337
20
45.612383180607324
30
0
10
-7.0861647670397865
20
45.708997306080967
30
0
10
-6.6731751142711833
20
45.760457754759955
30
0
10
-6.569936542595495
20
45.766864982017182
30
0
10
-6.4665986309548806
20
45.766864974878203
30
0
0
ENDSEC
0
SECTION
2
OBJECTS
0
DICTIONARY
5
C
100
AcDbDictionary
3
ACAD_GROUP
350
D
3
ACAD_MLINESTYLE
350
17
0
DICTIONARY
5
D
100
AcDbDictionary
0
DICTIONARY
5
1A
330
C
100
AcDbDictionary
0
DICTIONARY
5
17
100
AcDbDictionary
0
ENDSEC
0
EOF
