0
SECTION
2
HEADER
9
$INSUNITS
70
4
9
$ACADVER
1
AC1014
9
$HANDSEED
5
FFFF
0
ENDSEC
0
SECTION
2
TABLES
0
TABLE
2
VPORT
5
8
100
AcDbSymbolTable
0
ENDTAB
0
TABLE
2
LTYPE
5
5
100
AcDbSymbolTable
0
LTYPE
5
14
100
AcDbSymbolTableRecord
100
AcDbLinetypeTableRecord
2
BYBLOCK
70
0
0
LTYPE
5
15
100
AcDbSymbolTableRecord
100
AcDbLinetypeTableRecord
2
BYLAYER
70
0
0
LTYPE
5
16
100
AcDbSymbolTableRecord
100
AcDbLinetypeTableRecord
2
DASHED
70
0
3
Dashed __ __ __ __ __ __ __ __ __ __ __ __ __ _
72
65
73
2
40
0.75
49
0.5
74
0
49
-0.25
74
0
0
ENDTAB
0
TABLE
2
LAYER
5
2
100
AcDbSymbolTable
70
2
0
LAYER
5
50
100
AcDbSymbolTableRecord
100
AcDbLayerTableRecord
2
0
70
0
62
7
6
CONTINUOUS
0
ENDTAB
0
TABLE
2
STYLE
5
3
100
AcDbSymbolTable
70
1
0
STYLE
5
11
100
AcDbSymbolTableRecord
100
AcDbTextStyleTableRecord
2
STANDARD
70
0
0
ENDTAB
0
TABLE
2
VIEW
5
6
100
AcDbSymbolTable
70
0
0
ENDTAB
0
TABLE
2
UCS
5
7
100
AcDbSymbolTable
70
0
0
ENDTAB
0
TABLE
2
APPID
5
9
100
AcDbSymbolTable
70
2
0
APPID
5
12
100
AcDbSymbolTableRecord
100
AcDbRegAppTableRecord
2
ACAD
70
0
0
ENDTAB
0
TABLE
2
DIMSTYLE
5
A
100
AcDbSymbolTable
70
1
0
ENDTAB
0
TABLE
2
BLOCK_RECORD
5
1
100
AcDbSymbolTable
70
1
0
BLOCK_RECORD
5
1F
100
AcDbSymbolTableRecord
100
AcDbBlockTableRecord
2
*MODEL_SPACE
0
BLOCK_RECORD
5
1B
100
AcDbSymbolTableRecord
100
AcDbBlockTableRecord
2
*PAPER_SPACE
0
ENDTAB
0
ENDSEC
0
SECTION
2
BLOCKS
0
BLOCK
5
20
100
AcDbEntity
100
AcDbBlockBegin
2
*MODEL_SPACE
0
ENDBLK
5
21
100
AcDbEntity
100
AcDbBlockEnd
0
BLOCK
5
1C
100
AcDbEntity
100
AcDbBlockBegin
2
*PAPER_SPACE
0
ENDBLK
5
1D
100
AcDbEntity
100
AcDbBlockEnd
0
ENDSEC
0
SECTION
2
ENTITIES
0
LWPOLYLINE
5
100
100
AcDbEntity
8
0
100
AcDbPolyline
90
29
70
1
43
0.0
10
60.335323900015901
20
24.750000000000014
42
0.41421356237703966
10
57.335323899975393
20
21.750000000000099
10
51.335323899975407
20
21.750000000000099
10
46.282495729101399
20
21.749999999999901
10
46.282495729101399
20
23.400000000071405
10
42.353924300529997
20
23.400000000071405
10
42.353924300529997
20
21.749999999999901
10
39.129604628728103
20
21.750000000000348
42
0.99999999999999989
10
39.129604628728103
20
16.250000000000199
10
42.353924300529997
20
16.249999999999801
10
42.353924300529997
20
14.6000000000714
10
46.282495729101399
20
14.6000000000714
10
46.282495729101399
20
16.249999999999801
10
51.335323899975506
20
16.249999999999801
10
51.335323899975506
20
10.000000000000203
10
38.964975569849003
20
10.00000000000022
42
-0.23566165595789101
10
36.567749752651977
20
11.196307015769262
42
0.15306073203073006
10
14.735095135949518
20
26.84857358953451
42
-0.11934301116590261
10
14.402719300936999
20
28.221082720424203
10
14.402719300937061
20
29.661485072103599
42
0.41421356237310497
10
11.402719300936999
20
32.661485072103602
10
8.4027193009370098
20
32.661485072103602
10
8.4027193009369938
20
33.514841412147007
42
-0.41421356237309509
10
11.402719300937001
20
36.514841412147007
10
57.428644714942209
20
36.514841412147007
10
57.381984307458808
20
32.697753553655801
10
51.2996134100175
20
32.697541006277575
42
0.99406575358023508
10
51.335323899975506
20
26.697753553655801
10
60.335323900016
20
26.697753553655904
0
ENDSEC
0
SECTION
2
OBJECTS
0
DICTIONARY
5
C
100
AcDbDictionary
3
ACAD_GROUP
350
D
3
ACAD_MLINESTYLE
350
17
0
DICTIONARY
5
D
100
AcDbDictionary
0
DICTIONARY
5
1A
330
C
100
AcDbDictionary
0
DICTIONARY
5
17
100
AcDbDictionary
0
ENDSEC
0
EOF
