0
SECTION
2
HEADER
9
$INSUNITS
70
4
9
$ACADVER
1
AC1014
9
$HANDSEED
5
FFFF
0
ENDSEC
0
SECTION
2
TABLES
0
TABLE
2
VPORT
5
8
100
AcDbSymbolTable
0
ENDTAB
0
TABLE
2
LTYPE
5
5
100
AcDbSymbolTable
0
LTYPE
5
14
100
AcDbSymbolTableRecord
100
AcDbLinetypeTableRecord
2
BYBLOCK
70
0
0
LTYPE
5
15
100
AcDbSymbolTableRecord
100
AcDbLinetypeTableRecord
2
BYLAYER
70
0
0
LTYPE
5
16
100
AcDbSymbolTableRecord
100
AcDbLinetypeTableRecord
2
DASHED
70
0
3
Dashed __ __ __ __ __ __ __ __ __ __ __ __ __ _
72
65
73
2
40
0.75
49
0.5
74
0
49
-0.25
74
0
0
ENDTAB
0
TABLE
2
LAYER
5
2
100
AcDbSymbolTable
70
2
0
LAYER
5
50
100
AcDbSymbolTableRecord
100
AcDbLayerTableRecord
2
0
70
0
62
7
6
CONTINUOUS
0
ENDTAB
0
TABLE
2
STYLE
5
3
100
AcDbSymbolTable
70
1
0
STYLE
5
11
100
AcDbSymbolTableRecord
100
AcDbTextStyleTableRecord
2
STANDARD
70
0
0
ENDTAB
0
TABLE
2
VIEW
5
6
100
AcDbSymbolTable
70
0
0
ENDTAB
0
TABLE
2
UCS
5
7
100
AcDbSymbolTable
70
0
0
ENDTAB
0
TABLE
2
APPID
5
9
100
AcDbSymbolTable
70
2
0
APPID
5
12
100
AcDbSymbolTableRecord
100
AcDbRegAppTableRecord
2
ACAD
70
0
0
ENDTAB
0
TABLE
2
DIMSTYLE
5
A
100
AcDbSymbolTable
70
1
0
ENDTAB
0
TABLE
2
BLOCK_RECORD
5
1
100
AcDbSymbolTable
70
1
0
BLOCK_RECORD
5
1F
100
AcDbSymbolTableRecord
100
AcDbBlockTableRecord
2
*MODEL_SPACE
0
BLOCK_RECORD
5
1B
100
AcDbSymbolTableRecord
100
AcDbBlockTableRecord
2
*PAPER_SPACE
0
ENDTAB
0
ENDSEC
0
SECTION
2
BLOCKS
0
BLOCK
5
20
100
AcDbEntity
100
AcDbBlockBegin
2
*MODEL_SPACE
0
ENDBLK
5
21
100
AcDbEntity
100
AcDbBlockEnd
0
BLOCK
5
1C
100
AcDbEntity
100
AcDbBlockBegin
2
*PAPER_SPACE
0
ENDBLK
5
1D
100
AcDbEntity
100
AcDbBlockEnd
0
ENDSEC
0
SECTION
2
ENTITIES
0
LINE
5
100
100
AcDbEntity
8
0
100
AcDbLine
10
-15.750000000000711
20
25.600970746076108
30
0
11
15.75000000000011
21
25.600970746076108
31
0
0
SPLINE
5
101
100
AcDbEntity
8
0
100
AcDbSpline
70
4
71
2
72
8
73
5
74
0
42
0.000000001
43
0.0000000001
44
0.0000000001
40
431.33347935300998
40
431.33347935300998
40
431.33347935300998
40
436.04586832420199
40
436.04586832420199
40
443.68948629183097
40
443.68948629183097
40
443.68948629183097
41
0.91107848629965904
41
0.64422977684276705
41
0.91107848629965904
41
0.91107848629965904
41
0.91107848629965904
10
15.750000009193306
20
25.600970746076101
30
-4.4408920985006262e-15
10
18.75
20
25.600970736882704
30
0
10
18.750000000000004
20
22.600970746076104
30
-4.4408920985006262e-15
10
18.750000000007901
20
18.7791617622613
30
-4.4408920985006262e-15
10
18.750000000015902
20
14.95735277844641
30
-4.4408920985006262e-15
0
ELLIPSE
5
102
100
AcDbEntity
8
0
100
AcDbEllipse
10
21.136161816704853
20
15.134122258232374
30
0
11
-1.7545731745730468
21
1.7660689474149349
31
0.0
40
0.93532961450662488
41
0.89544684549210263
42
2.2178629086824002
0
SPLINE
5
103
100
AcDbEntity
8
0
100
AcDbSpline
70
0
71
3
72
32
73
28
74
0
42
0.000000001
43
0.0000000001
44
0.0000000001
40
231.208333119256
40
231.208333119256
40
231.208333119256
40
231.208333119256
40
238.69995249428794
40
238.69995249428794
40
238.69995249428794
40
246.08442916289761
40
246.08442916289761
40
246.08442916289761
40
250.74881459875482
40
250.74881459875482
40
250.74881459875482
40
254.59018772647153
40
254.59018772647153
40
254.59018772647153
40
261.98402557964738
40
261.98402557964738
40
261.98402557964738
40
269.45001807667046
40
269.45001807667046
40
269.45001807667046
40
270.4775469913605
40
270.4775469913605
40
270.4775469913605
40
272.67554113488211
40
272.67554113488211
40
272.67554113488211
40
273.914244335484
40
273.914244335484
40
273.914244335484
40
273.914244335484
10
20.875960638222303
20
12.760085863461201
30
0
10
22.890583318750409
20
12.399172109985418
30
0
10
25.014442059408847
20
11.454575171369095
30
0
10
26.776964569786546
20
9.9248441237633784
30
0
10
28.514280055829637
20
8.4169907926210605
30
0
10
29.859418459164274
20
6.3582231626555661
30
0
10
30.573991290120173
20
4.1960329336368627
30
0
10
31.025349355849897
20
2.8302911124650656
30
0
10
31.236536293728541
20
1.4324178342484142
30
0
10
31.246764275302354
20
0.10990042715445059
30
0
10
31.255187570098357
20
-0.97926402943053215
30
0
10
31.131132437361806
20
-2.1064562839945951
30
0
10
30.847781287349974
20
-3.2389810862369606
30
0
10
30.302389733589692
20
-5.418853874970031
30
0
10
29.131177143582097
20
-7.5800306716248116
30
0
10
27.491024017512874
20
-9.2423685765340053
30
0
10
25.834865040758732
20
-10.92092882792473
30
0
10
23.736660865348384
20
-12.061657109896533
30
0
10
21.675475014488903
20
-12.576290563561624
30
0
10
21.391798321650999
20
-12.647118488223823
30
0
10
21.108732564790994
20
-12.706906930012797
30
0
10
20.8273109760121
20
-12.756139146364998
30
0
10
20.165858936191746
20
-12.871854326825275
30
0
10
19.485603681345914
20
-13.327537806268223
30
0
10
19.10900207637355
20
-13.966879303399562
30
0
10
18.896764198121677
20
-14.327187069054172
30
0
10
18.776572557098085
20
-14.734455867381623
30
0
10
18.750000000000405
20
-15.1270762303479
30
0
0
SPLINE
5
104
100
AcDbEntity
8
0
100
AcDbSpline
70
4
71
2
72
10
73
7
74
0
42
0.000000001
43
0.0000000001
44
0.0000000001
40
273.914244335484
40
273.914244335484
40
273.914244335484
40
281.43933044420697
40
281.43933044420697
40
286.15171941539899
40
286.15171941539899
40
286.74706004986029
40
286.74706004986029
40
286.74706004986029
41
0.95450431444790196
41
0.95450431444790196
41
0.95450431444790196
41
0.67493647445208005
41
0.95450431444790196
41
0.91918505361107306
41
0.89278992500689724
10
18.750000000000405
20
-15.1270762303479
30
4.4408920985006262e-15
10
18.750000000000199
20
-18.889619284709404
30
0
10
18.75
20
-22.652162339071001
30
0
10
18.75
20
-25.652162329877704
30
0
10
15.7500000091933
20
-25.652162339071005
30
0
10
15.471704887742897
20
-25.652162339923827
30
0
10
15.198158556489084
20
-25.600970746076083
30
0
0
LINE
5
105
100
AcDbEntity
8
0
100
AcDbLine
10
15.198158556489085
20
-25.600970746076083
30
0
11
-15.198158556489078
21
-25.600970746076079
31
0
0
SPLINE
5
106
100
AcDbEntity
8
0
100
AcDbSpline
70
4
71
2
72
10
73
7
74
0
42
0.000000001
43
0.0000000001
44
0.0000000001
40
322.89800357924747
40
322.89800357924747
40
322.89800357924747
40
323.493344194607
40
323.493344194607
40
328.20573316579799
40
328.20573316579799
40
335.76549474096902
40
335.76549474096902
40
335.76549474096902
41
0.85217183693145215
41
0.87736610052947983
41
0.91107848629965904
41
0.64422977684276705
41
0.91107848629965904
41
0.91107848629965904
41
0.91107848629965904
10
-15.198158556489025
20
-25.600970746076072
30
0
10
-15.471704878628678
20
-25.652162338218186
30
0
10
-15.749999990806703
20
-25.652162339071005
30
-4.4408920985006262e-15
10
-18.749999981613399
20
-25.652162348264405
30
0
10
-18.750000000000004
20
-22.652162357457598
30
-4.4408920985006262e-15
10
-18.750000000000298
20
-18.8722815698723
30
-4.4408920985006262e-15
10
-18.750000000000501
20
-15.092400782287005
30
-4.4408920985006262e-15
0
SPLINE
5
107
100
AcDbEntity
8
0
100
AcDbSpline
70
0
71
3
72
29
73
25
74
0
42
0.000000001
43
0.0000000001
44
0.0000000001
40
335.76549474096902
40
335.76549474096902
40
335.76549474096902
40
335.76549474096902
40
337.73034795953953
40
337.73034795953953
40
337.73034795953953
40
339.22613186002047
40
339.22613186002047
40
339.22613186002047
40
346.2578227745189
40
346.2578227745189
40
346.2578227745189
40
352.96898267539694
40
352.96898267539694
40
352.96898267539694
40
358.77880049359902
40
358.77880049359902
40
358.77880049359902
40
366.33383189547698
40
366.33383189547698
40
366.33383189547698
40
373.86548653201322
40
373.86548653201322
40
373.86548653201322
40
378.47140595719702
40
378.47140595719702
40
378.47140595719702
40
378.47140595719702
10
-18.750000000000501
20
-15.092400782287005
30
0
10
-18.789306379730284
20
-14.51297179031906
30
0
10
-19.076533407921616
20
-13.828839520981607
30
0
10
-19.568812264175158
20
-13.365419083262138
30
0
10
-19.943569411819468
20
-13.012630985228576
30
0
10
-20.405705768885714
20
-12.800515280299017
30
0
10
-20.827310976012146
20
-12.726929203777811
30
0
10
-22.63111110564568
20
-12.412097764021421
30
0
10
-24.621725339406431
20
-11.622964499770445
30
0
10
-26.355060504844378
20
-10.258958769273189
30
0
10
-28.009383710815207
20
-8.9571295685319328
30
0
10
-29.387248513605158
20
-7.1389042514226304
30
0
10
-30.214654041466218
20
-5.1649809378491796
30
0
10
-30.930934900460084
20
-3.4561653220175392
30
0
10
-31.244011105072801
20
-1.6570212868329446
30
0
10
-31.247140601208599
20
-0.019417935384227439
30
0
10
-31.251210167986375
20
2.1101057659020279
30
0
10
-30.708883301481308
20
4.454988656232949
30
0
10
-29.53769577931595
20
6.5238960071952166
30
0
10
-28.370132143594002
20
8.5864017485433735
30
0
10
-26.588025925666155
20
10.326015062395939
30
0
10
-24.60490578200417
20
11.412937170897964
30
0
10
-23.392145501168095
20
12.07763515491407
30
0
10
-22.114569979426498
20
12.509093848862525
30
0
10
-20.875960638222399
20
12.730475574839605
30
0
0
ELLIPSE
5
108
100
AcDbEntity
8
0
100
AcDbEllipse
10
-21.317709993180038
20
15.273628605742628
30
0
11
-2.4907884756598695
21
-0.72327134880799626
31
0.0
40
0.99514474766641881
41
1.4607080035781841
42
2.7213391417082016
0
SPLINE
5
109
100
AcDbEntity
8
0
100
AcDbSpline
70
4
71
2
72
8
73
5
74
0
42
0.000000001
43
0.0000000001
44
0.0000000001
40
381.60117216853399
40
381.60117216853399
40
381.60117216853399
40
389.27946560261103
40
389.27946560261103
40
393.99185456359004
40
393.99185456359004
40
393.99185456359004
41
0.86962834597368899
41
0.86962834597368899
41
0.86962834597368899
41
0.61492010204419512
41
0.86962834486975871
10
-18.750000000016001
20
14.9226773303856
30
4.4408920985006262e-15
10
-18.750000000008001
20
18.761824047424199
30
4.4408920985006262e-15
10
-18.75
20
22.600970764462701
30
4.4408920985006262e-15
10
-18.749999981613399
20
25.60097074607539
30
0
10
-15.750000000000711
20
25.600970746076108
30
0
0
SPLINE
5
110
100
AcDbEntity
8
0
100
AcDbSpline
70
4
71
3
72
11
73
7
74
0
42
0.000000001
43
0.0000000001
44
0.0000000001
40
-118.487126935634
40
-118.487126935634
40
-118.487126935634
40
-118.487126935634
40
-113.931951922736
40
-113.931951922736
40
-113.931951922736
40
-109.37677690983899
40
-109.37677690983899
40
-109.37677690983899
40
-109.37677690983899
41
1
41
0.8180717500227187
41
0.8180717500227187
41
1
41
0.8180717500227187
41
0.8180717500227187
41
1
10
-57.559204222391898
20
48.3288328320142
30
0
10
-57.366300746693994
20
50.00168439198972
30
0
10
-56.077587268270428
20
51.085594749527765
30
0
10
-54.3964239506764
20
50.988982161190897
30
0
10
-52.715260633082373
20
50.892369572854044
30
0
10
-51.559202499798722
20
49.667963716009723
30
0
10
-51.559204222391905
20
47.984026635046497
30
0
0
SPLINE
5
111
100
AcDbEntity
8
0
100
AcDbSpline
70
4
71
3
72
38
73
34
74
0
42
0.000000001
43
0.0000000001
44
0.0000000001
40
-109.37677690983899
40
-109.37677690983899
40
-109.37677690983899
40
-109.37677690983899
40
-108.677292039489
40
-108.677292039489
40
-108.677292039489
40
-103.964903059105
40
-103.964903059105
40
-103.964903059105
40
-71.155698836712901
40
-71.155698836712901
40
-71.155698836712901
40
-66.443309856328199
40
-66.443309856328199
40
-66.443309856328199
40
-61.730920875943497
40
-61.730920875943497
40
-61.730920875943497
40
-28.921716653551499
40
-28.921716653551499
40
-28.921716653551499
40
-24.2093276731669
40
-24.2093276731669
40
-24.2093276731669
40
-23.3391983506265
40
-23.3391983506265
40
-23.3391983506265
40
-18.626809370241801
40
-18.626809370241801
40
-18.626809370241801
40
-13.914420389857099
40
-13.914420389857099
40
-13.914420389857099
40
0
40
0
40
0
40
0
41
1
41
1
41
1
41
1
41
0.80473785412436527
41
0.80473785412436527
41
1
41
1
41
1
41
1
41
0.80473785412436938
41
0.80473785412436938
41
1
41
0.80473785412436527
41
0.80473785412436527
41
1
41
1
41
1
41
1
41
0.80473785412436527
41
0.80473785412436527
41
1
41
1
41
1
41
1
41
0.80473785412436527
41
0.80473785412436527
41
1
41
0.80473785412436261
41
0.80473785412436261
41
1
41
1
41
1
41
1
10
-51.559204222391905
20
47.984026635046497
30
0
10
-51.559204460905939
20
47.750865011597
30
0
10
-51.559204222391905
20
47.517703388147041
30
0
10
-51.559204222391905
20
47.284541764697309
30
0
10
-51.559204222391905
20
45.527182451816529
30
0
10
-50.316563535272614
20
44.284541764697245
30
0
10
-48.559204222391905
20
44.284541764697309
30
0
10
-37.622802814927972
20
44.284541764697309
30
0
10
-26.686401407464032
20
44.284541764697344
30
0
10
-15.750000000000099
20
44.284541764697408
30
0
10
-13.992640687119376
20
44.284541764697408
30
0
10
-12.750000000000057
20
43.041901077578125
30
0
10
-12.750000000000002
20
41.284541764697408
30
0
10
-12.750000000000004
20
39.527182451816635
30
0
10
-13.992640687119328
20
38.284541764697309
30
0
10
-15.750000000000099
20
38.284541764697302
30
0
10
-26.686401407464032
20
38.284541764697302
30
0
10
-37.622802814928008
20
38.284541764697302
30
0
10
-48.559204222392005
20
38.284541764697302
30
0
10
-50.316563535272721
20
38.284541764697309
30
0
10
-51.559204222392012
20
37.041901077578018
30
0
10
-51.559204222391998
20
35.284541764697309
30
0
10
-51.559204222391998
20
34.994498657183897
30
0
10
-51.559204222391998
20
34.704455549670463
30
0
10
-51.559204222391998
20
34.414412442157008
30
0
10
-51.559204222392061
20
32.657053129276292
30
0
10
-52.801844909511352
20
31.414412442157005
30
0
10
-54.559204222391998
20
31.414412442157005
30
0
10
-56.31656353527277
20
31.414412442157005
30
-4.4408920985006262e-15
10
-57.559204222392069
20
32.657053129276335
30
-4.4408920985006262e-15
10
-57.559204222391998
20
34.414412442157101
30
0
10
-57.559204222391998
20
39.052552572109107
30
0
10
-57.559204222391962
20
43.690692702061476
30
0
10
-57.559204222391898
20
48.3288328320142
30
0
0
SPLINE
5
112
100
AcDbEntity
8
0
100
AcDbSpline
70
4
71
3
72
38
73
34
74
0
42
0.000000001
43
0.0000000001
44
0.0000000001
40
0
40
0
40
0
40
0
40
13.914420389857099
40
13.914420389857099
40
13.914420389857099
40
18.626809370241801
40
18.626809370241801
40
18.626809370241801
40
23.3391983506265
40
23.3391983506265
40
23.3391983506265
40
24.2093276731669
40
24.2093276731669
40
24.2093276731669
40
28.921716653551499
40
28.921716653551499
40
28.921716653551499
40
61.730920875943497
40
61.730920875943497
40
61.730920875943497
40
66.443309856328199
40
66.443309856328199
40
66.443309856328199
40
71.155698836712901
40
71.155698836712901
40
71.155698836712901
40
103.964903059105
40
103.964903059105
40
103.964903059105
40
108.677292039489
40
108.677292039489
40
108.677292039489
40
109.37677690983899
40
109.37677690983899
40
109.37677690983899
40
109.37677690983899
41
1
41
1
41
1
41
1
41
0.80473785412436261
41
0.80473785412436261
41
1
41
0.80473785412436527
41
0.80473785412436527
41
1
41
1
41
1
41
1
41
0.80473785412436527
41
0.80473785412436527
41
1
41
1
41
1
41
1
41
0.80473785412436527
41
0.80473785412436527
41
1
41
0.80473785412436938
41
0.80473785412436938
41
1
41
1
41
1
41
1
41
0.80473785412436527
41
0.80473785412436527
41
1
41
1
41
1
41
1
10
57.559204222391898
20
48.3288328320142
30
0
10
57.559204222391898
20
43.690692702061831
30
0
10
57.559204222391926
20
39.052552572109441
30
0
10
57.559204222391998
20
34.414412442157008
30
0
10
57.559204222392005
20
32.657053129276299
30
-4.4408920985006262e-15
10
56.316563535272721
20
31.414412442157005
30
-4.4408920985006262e-15
10
54.559204222391998
20
31.414412442157005
30
0
10
52.801844909511289
20
31.414412442157005
30
0
10
51.559204222391969
20
32.657053129276292
30
0
10
51.559204222391905
20
34.414412442157008
30
0
10
51.559204222391905
20
34.704455549670406
30
0
10
51.559204222391941
20
34.99449865718384
30
0
10
51.559204222391998
20
35.284541764697309
30
0
10
51.559204222392012
20
37.041901077578018
30
0
10
50.316563535272721
20
38.284541764697309
30
0
10
48.559204222392005
20
38.284541764697302
30
0
10
37.622802814928001
20
38.284541764697302
30
0
10
26.686401407463972
20
38.284541764697302
30
0
10
15.749999999999902
20
38.284541764697302
30
0
10
13.992640687119186
20
38.284541764697309
30
0
10
12.749999999999901
20
39.527182451816593
30
0
10
12.749999999999901
20
41.284541764697302
30
0
10
12.749999999999961
20
43.041901077578018
30
0
10
13.99264068711928
20
44.284541764697309
30
0
10
15.750000000000002
20
44.284541764697309
30
0
10
26.686401407463936
20
44.284541764697309
30
0
10
37.622802814927866
20
44.284541764697273
30
0
10
48.559204222391799
20
44.284541764697202
30
0
10
50.316563535272522
20
44.284541764697202
30
0
10
51.559204222391806
20
45.527182451816486
30
0
10
51.559204222391806
20
47.284541764697209
30
0
10
51.559204222391806
20
47.517703388146934
30
0
10
51.559204460905832
20
47.750865011596943
30
0
10
51.559204222391806
20
47.984026635046497
30
0
0
SPLINE
5
113
100
AcDbEntity
8
0
100
AcDbSpline
70
4
71
3
72
11
73
7
74
0
42
0.000000001
43
0.0000000001
44
0.0000000001
40
109.37677690983899
40
109.37677690983899
40
109.37677690983899
40
109.37677690983899
40
113.931951922736
40
113.931951922736
40
113.931951922736
40
118.487126935634
40
118.487126935634
40
118.487126935634
40
118.487126935634
41
1
41
0.8180717500227187
41
0.8180717500227187
41
1
41
0.8180717500227187
41
0.8180717500227187
41
1
10
51.559204222391806
20
47.984026635046497
30
0
10
51.559202499798651
20
49.667963716009723
30
0
10
52.71526063308233
20
50.892369572854044
30
0
10
54.396423950676301
20
50.988982161190897
30
0
10
56.077587268270328
20
51.085594749527765
30
0
10
57.366300746693931
20
50.00168439198972
30
0
10
57.559204222391898
20
48.3288328320142
30
0
0
SPLINE
5
114
100
AcDbEntity
8
0
100
AcDbSpline
70
4
71
3
72
38
73
34
74
0
42
0.000000001
43
0.0000000001
44
0.0000000001
40
0
40
0
40
0
40
0
40
13.914420389857099
40
13.914420389857099
40
13.914420389857099
40
18.626809370241801
40
18.626809370241801
40
18.626809370241801
40
23.3391983506265
40
23.3391983506265
40
23.3391983506265
40
24.209327673166801
40
24.209327673166801
40
24.209327673166801
40
28.921716653551499
40
28.921716653551499
40
28.921716653551499
40
61.730920875943497
40
61.730920875943497
40
61.730920875943497
40
66.443309856328099
40
66.443309856328099
40
66.443309856328099
40
71.155698836712801
40
71.155698836712801
40
71.155698836712801
40
103.964903059105
40
103.964903059105
40
103.964903059105
40
108.677292039489
40
108.677292039489
40
108.677292039489
40
109.37677690983899
40
109.37677690983899
40
109.37677690983899
40
109.37677690983899
41
1
41
1
41
1
41
1
41
0.80473785412436261
41
0.80473785412436261
41
1
41
0.80473785412436527
41
0.80473785412436527
41
1
41
1
41
1
41
1
41
0.80473785412436527
41
0.80473785412436527
41
1
41
1
41
1
41
1
41
0.80473785412436527
41
0.80473785412436527
41
1
41
0.80473785412436938
41
0.80473785412436938
41
1
41
1
41
1
41
1
41
0.80473785412436527
41
0.80473785412436527
41
1
41
1
41
1
41
1
10
-57.559204222391898
20
-48.865318050840798
30
0
10
-57.559204222391969
20
-44.22717792088843
30
0
10
-57.55920422239204
20
-39.589037790936068
30
0
10
-57.559204222392104
20
-34.950897660983699
30
0
10
-57.559204222392111
20
-33.193538348102997
30
-4.4408920985006262e-15
10
-56.31656353527282
20
-31.950897660983703
30
-4.4408920985006262e-15
10
-54.559204222392097
20
-31.950897660983699
30
0
10
-52.801844909511388
20
-31.950897660983642
30
0
10
-51.559204222392111
20
-33.193538348102891
30
0
10
-51.559204222392097
20
-34.950897660983607
30
0
10
-51.559204222392097
20
-35.240940768497069
30
0
10
-51.559204222392097
20
-35.530983876010538
30
0
10
-51.559204222392097
20
-35.821026983524
30
0
10
-51.559204222392111
20
-37.578386296404716
30
0
10
-50.316563535272827
20
-38.821026983524
30
0
10
-48.559204222392097
20
-38.821026983524
30
0
10
-37.6228028149281
20
-38.821026983524
30
0
10
-26.6864014074641
20
-38.821026983524
30
0
10
-15.750000000000099
20
-38.821026983524
30
0
10
-13.992640687119389
20
-38.821026983524
30
0
10
-12.750000000000103
20
-40.063667670643291
30
0
10
-12.750000000000101
20
-41.821026983524007
30
0
10
-12.75000000000016
20
-43.578386296404673
30
0
10
-13.992640687119478
20
-44.82102698352395
30
0
10
-15.750000000000199
20
-44.821026983524
30
0
10
-26.686401407464068
20
-44.821026983523936
30
0
10
-37.622802814927972
20
-44.821026983523879
30
0
10
-48.559204222391905
20
-44.821026983523808
30
0
10
-50.316563535272614
20
-44.821026983523808
30
0
10
-51.559204222391905
20
-46.063667670643092
30
0
10
-51.559204222391905
20
-47.821026983523808
30
0
10
-51.559204222391905
20
-48.054188606973597
30
0
10
-51.559204460905939
20
-48.287350230423613
30
0
10
-51.559204222391905
20
-48.520511853873103
30
0
0
SPLINE
5
115
100
AcDbEntity
8
0
100
AcDbSpline
70
4
71
3
72
11
73
7
74
0
42
0.000000001
43
0.0000000001
44
0.0000000001
40
109.37677690983899
40
109.37677690983899
40
109.37677690983899
40
109.37677690983899
40
113.931951922736
40
113.931951922736
40
113.931951922736
40
118.487126935634
40
118.487126935634
40
118.487126935634
40
118.487126935634
41
1
41
0.8180717500227187
41
0.8180717500227187
41
1
41
0.8180717500227187
41
0.8180717500227187
41
1
10
-51.559204222391905
20
-48.520511853873103
30
0
10
-51.559202499798722
20
-50.204448934836336
30
0
10
-52.715260633082373
20
-51.428854791680649
30
0
10
-54.3964239506764
20
-51.525467380017503
30
0
10
-56.077587268270428
20
-51.622079968354356
30
0
10
-57.366300746693994
20
-50.538169610816283
30
0
10
-57.559204222391898
20
-48.865318050840699
30
0
0
SPLINE
5
116
100
AcDbEntity
8
0
100
AcDbSpline
70
4
71
3
72
11
73
7
74
0
42
0.000000001
43
0.0000000001
44
0.0000000001
40
-118.487126935633
40
-118.487126935633
40
-118.487126935633
40
-118.487126935633
40
-113.931951922736
40
-113.931951922736
40
-113.931951922736
40
-109.37677690983899
40
-109.37677690983899
40
-109.37677690983899
40
-109.37677690983899
41
1
41
0.8180717500227187
41
0.8180717500227187
41
1
41
0.8180717500227187
41
0.8180717500227187
41
1
10
57.559204222391813
20
-48.865318050840699
30
0
10
57.366300746693909
20
-50.538169610816283
30
0
10
56.077587268270328
20
-51.622079968354356
30
0
10
54.396423950676301
20
-51.525467380017503
30
0
10
52.715260633082281
20
-51.428854791680649
30
0
10
51.55920249979863
20
-50.204448934836336
30
0
10
51.559204222391806
20
-48.520511853873103
30
0
0
SPLINE
5
117
100
AcDbEntity
8
0
100
AcDbSpline
70
4
71
3
72
38
73
34
74
0
42
0.000000001
43
0.0000000001
44
0.0000000001
40
-109.37677690983899
40
-109.37677690983899
40
-109.37677690983899
40
-109.37677690983899
40
-108.677292039489
40
-108.677292039489
40
-108.677292039489
40
-103.964903059105
40
-103.964903059105
40
-103.964903059105
40
-71.155698836712801
40
-71.155698836712801
40
-71.155698836712801
40
-66.443309856328099
40
-66.443309856328099
40
-66.443309856328099
40
-61.730920875943497
40
-61.730920875943497
40
-61.730920875943497
40
-28.921716653551499
40
-28.921716653551499
40
-28.921716653551499
40
-24.209327673166801
40
-24.209327673166801
40
-24.209327673166801
40
-23.3391983506265
40
-23.3391983506265
40
-23.3391983506265
40
-18.626809370241801
40
-18.626809370241801
40
-18.626809370241801
40
-13.914420389857099
40
-13.914420389857099
40
-13.914420389857099
40
0
40
0
40
0
40
0
41
1
41
1
41
1
41
1
41
0.80473785412436527
41
0.80473785412436527
41
1
41
1
41
1
41
1
41
0.80473785412436938
41
0.80473785412436938
41
1
41
0.80473785412436527
41
0.80473785412436527
41
1
41
1
41
1
41
1
41
0.80473785412436527
41
0.80473785412436527
41
1
41
1
41
1
41
1
41
0.80473785412436527
41
0.80473785412436527
41
1
41
0.80473785412436261
41
0.80473785412436261
41
1
41
1
41
1
41
1
10
51.559204222391806
20
-48.520511853873103
30
0
10
51.559204460905839
20
-48.287350230423613
30
0
10
51.559204222391806
20
-48.054188606973597
30
0
10
51.559204222391806
20
-47.821026983523808
30
0
10
51.559204222391806
20
-46.063667670643092
30
0
10
50.316563535272529
20
-44.821026983523808
30
0
10
48.559204222391799
20
-44.821026983523808
30
0
10
37.622802814927802
20
-44.821026983523865
30
0
10
26.686401407463833
20
-44.821026983523907
30
0
10
15.749999999999902
20
-44.821026983523907
30
0
10
13.992640687119181
20
-44.821026983523907
30
0
10
12.749999999999904
20
-43.578386296404624
30
0
10
12.749999999999901
20
-41.821026983523907
30
0
10
12.749999999999904
20
-40.063667670643198
30
0
10
13.992640687119186
20
-38.821026983523907
30
0
10
15.749999999999902
20
-38.821026983523893
30
0
10
26.686401407463901
20
-38.8210269835239
30
0
10
37.622802814927901
20
-38.8210269835239
30
0
10
48.559204222391905
20
-38.8210269835239
30
0
10
50.316563535272614
20
-38.821026983523907
30
0
10
51.559204222391905
20
-37.578386296404616
30
0
10
51.559204222391905
20
-35.821026983523893
30
0
10
51.559204222391905
20
-35.530983876010431
30
0
10
51.559204222391905
20
-35.240940768496998
30
0
10
51.559204222391905
20
-34.9508976609836
30
0
10
51.559204222391905
20
-33.193538348102891
30
0
10
52.801844909511203
20
-31.950897660983607
30
0
10
54.559204222391912
20
-31.950897660983607
30
0
10
56.316563535272678
20
-31.9508976609836
30
-4.4408920985006262e-15
10
57.559204222391962
20
-33.193538348102891
30
-4.4408920985006262e-15
10
57.559204222391898
20
-34.9508976609836
30
0
10
57.559204222391898
20
-39.589037790936338
30
0
10
57.559204222391863
20
-44.227177920888742
30
0
10
57.559204222391813
20
-48.865318050840798
30
0
0
CIRCLE
5
118
100
AcDbEntity
8
0
100
AcDbCircle
10
-41.000000000000007
20
22.999999999999901
30
0
40
11
210
0
220
-0
230
1
0
CIRCLE
5
119
100
AcDbEntity
8
0
100
AcDbCircle
10
41.000000000000007
20
23.000000000000004
30
0
40
11
210
0
220
-0
230
1
0
CIRCLE
5
120
100
AcDbEntity
8
0
100
AcDbCircle
10
65.777816678361503
20
-4.9999999999886597
30
0
40
1.25
210
0
220
-0
230
1
0
CIRCLE
5
121
100
AcDbEntity
8
0
100
AcDbCircle
10
65.777816678361503
20
5.0000000000113412
30
0
40
1.25
210
0
220
-0
230
1
0
SPLINE
5
122
100
AcDbEntity
8
0
100
AcDbSpline
70
4
71
2
72
10
73
7
74
0
42
0.000000001
43
0.0000000001
44
0.0000000001
40
1338.35916907668
40
1338.35916907668
40
1338.35916907668
40
1341.10806264857
40
1341.10806264857
40
1343.85695622046
40
1343.85695622046
40
1344.7872844866399
40
1344.7872844866399
40
1344.7872844866399
41
1
41
0.70710678118654802
41
1
41
0.70710678118654802
41
1
41
1
41
1
10
41.749999999999801
20
48.921174868750697
30
0
10
41.749999999999702
20
47.171174868750697
30
0
10
39.999999999999801
20
47.171174868750697
30
0
10
38.249999999999801
20
47.171174868750697
30
0
10
38.249999999999801
20
48.921174868750697
30
0
10
38.249999999999901
20
49.386339001840405
30
0
10
38.25
20
49.851503134930198
30
0
0
LINE
5
123
100
AcDbEntity
8
0
100
AcDbLine
10
38.25
20
49.851503134930198
30
0
11
37.199999999954599
21
49.851503134930198
31
0
0
LINE
5
124
100
AcDbEntity
8
0
100
AcDbLine
10
37.199999999954599
20
49.851503134930198
30
0
11
37.199999999954599
21
52.351503134930198
31
0
0
LINE
5
125
100
AcDbEntity
8
0
100
AcDbLine
10
37.199999999954599
20
52.351503134930198
30
0
11
38.25
21
52.351503134930198
31
0
0
LINE
5
126
100
AcDbEntity
8
0
100
AcDbLine
10
38.25
20
52.351503134930198
30
0
11
38.249999999999901
21
55.519431602625104
31
0
0
SPLINE
5
127
100
AcDbEntity
8
0
100
AcDbSpline
70
4
71
2
72
22
73
19
74
0
42
0.000000001
43
0.0000000001
44
0.0000000001
40
1352.5552129544201
40
1352.5552129544201
40
1352.5552129544201
40
1366.0552129544201
40
1366.0552129544201
40
1370.76760193481
40
1370.76760193481
40
1372.76760193481
40
1372.76760193481
40
1377.47999091519
40
1377.47999091519
40
1451.47999091519
40
1451.47999091519
40
1456.19237989558
40
1456.19237989558
40
1458.19237989558
40
1458.19237989558
40
1462.9047688759599
40
1462.9047688759599
40
1476.4047688759599
40
1476.4047688759599
40
1476.4047688759599
41
1
41
1
41
1
41
0.70710678118654802
41
1
41
1
41
1
41
0.70710678118655101
41
1
41
1
41
1
41
0.70710678118655101
41
1
41
1
41
1
41
0.70710678118655101
41
1
41
1
41
1
10
38.249999999999901
20
55.519431602625104
30
0
10
31.499999999999901
20
55.519431602583502
30
0
10
24.749999999999904
20
55.519431602542006
30
0
10
21.749999999999901
20
55.519431602542006
30
0
10
21.749999999999901
20
58.519431602542006
30
0
10
21.749999999999901
20
59.519431602541999
30
0
10
21.749999999999901
20
60.519431602542006
30
0
10
21.750000000000004
20
63.519431602542006
30
0
10
18.75
20
63.519431602542006
30
0
10
-4.4230295335031898e-14
20
63.519431602542006
30
0
10
-18.750000000000099
20
63.519431602542006
30
0
10
-21.750000000000099
20
63.519431602542006
30
0
10
-21.750000000000099
20
60.519431602542006
30
0
10
-21.750000000000099
20
59.519431602541999
30
0
10
-21.750000000000099
20
58.519431602542006
30
0
10
-21.750000000000099
20
55.519431602542006
30
0
10
-24.750000000000103
20
55.519431602542006
30
0
10
-31.499999999999901
20
55.519431602583502
30
0
10
-38.249999999999801
20
55.519431602624998
30
0
0
LINE
5
128
100
AcDbEntity
8
0
100
AcDbLine
10
-38.249999999999801
20
55.519431602624998
30
0
11
-38.250000000000099
21
52.351503134930198
31
0
0
LINE
5
129
100
AcDbEntity
8
0
100
AcDbLine
10
-38.250000000000099
20
52.351503134930198
30
0
11
-37.199999999954699
21
52.351503134930198
31
0
0
LINE
5
130
100
AcDbEntity
8
0
100
AcDbLine
10
-37.199999999954699
20
52.351503134930198
30
0
11
-37.199999999954699
21
49.851503134930198
31
0
0
LINE
5
131
100
AcDbEntity
8
0
100
AcDbLine
10
-37.199999999954699
20
49.851503134930198
30
0
11
-38.250000000000099
21
49.851503134930198
31
0
0
SPLINE
5
132
100
AcDbEntity
8
0
100
AcDbSpline
70
4
71
2
72
12
73
9
74
0
42
0.000000001
43
0.0000000001
44
0.0000000001
40
1484.1726973437501
40
1484.1726973437501
40
1484.1726973437501
40
1485.10302560993
40
1485.10302560993
40
1487.85191918182
40
1487.85191918182
40
1490.60081275371
40
1490.60081275371
40
1491.5311410198899
40
1491.5311410198899
40
1491.5311410198899
41
1
41
1
41
1
41
0.70710678118654802
41
1
41
0.70710678118654802
41
1
41
1
41
1
10
-38.250000000000099
20
49.851503134930198
30
0
10
-38.25
20
49.386339001840405
30
0
10
-38.249999999999901
20
48.921174868750697
30
0
10
-38.249999999999901
20
47.171174868750697
30
0
10
-39.999999999999901
20
47.171174868750697
30
0
10
-41.749999999999801
20
47.171174868750697
30
0
10
-41.749999999999901
20
48.921174868750697
30
0
10
-41.75
20
49.386339001840405
30
0
10
-41.750000000000107
20
49.851503134930198
30
0
0
LINE
5
133
100
AcDbEntity
8
0
100
AcDbLine
10
-41.750000000000107
20
49.851503134930198
30
0
11
-42.799999999954601
21
49.851503134930198
31
0
0
LINE
5
134
100
AcDbEntity
8
0
100
AcDbLine
10
-42.799999999954601
20
49.851503134930198
30
0
11
-42.799999999954601
21
52.351503134930198
31
0
0
LINE
5
135
100
AcDbEntity
8
0
100
AcDbLine
10
-42.799999999954601
20
52.351503134930198
30
0
11
-41.750000000000107
21
52.351503134930198
31
0
0
LINE
5
136
100
AcDbEntity
8
0
100
AcDbLine
10
-41.750000000000107
20
52.351503134930198
30
0
11
-41.750000000000199
21
55.519431602542006
31
0
0
SPLINE
5
137
100
AcDbEntity
8
0
100
AcDbSpline
70
4
71
2
72
38
73
35
74
0
42
0.000000001
43
0.0000000001
44
0.0000000001
40
1499.29906948741
40
1499.29906948741
40
1499.29906948741
40
1510.54906948741
40
1510.54906948741
40
1527.8278290821499
40
1527.8278290821499
40
1617.40317750606
40
1617.40317750606
40
1634.68193710081
40
1634.68193710081
40
1740.68193710081
40
1740.68193710081
40
1757.96069669555
40
1757.96069669555
40
1787.26661351692
40
1787.26661351692
40
1791.9790024972999
40
1791.9790024972999
40
1795.25681917567
40
1795.25681917567
40
1799.9692081560499
40
1799.9692081560499
40
1819.4692081560499
40
1819.4692081560499
40
1824.1815971364399
40
1824.1815971364399
40
1827.4594138148
40
1827.4594138148
40
1832.1718027951799
40
1832.1718027951799
40
1860.9412343977201
40
1860.9412343977201
40
1878.2199939924701
40
1878.2199939924701
40
1889.4699939924701
40
1889.4699939924701
40
1889.4699939924701
41
1
41
1
41
1
41
0.70710678118654802
41
1
41
1
41
1
41
0.70710678118654702
41
1
41
1
41
1
41
0.70710678118655002
41
1
41
1
41
1
41
0.70710678118655401
41
1
41
1
41
1
41
0.70710678118654102
41
1
41
1
41
1
41
0.70710678118655401
41
1
41
1
41
1
41
0.70710678118654802
41
1
41
1
41
1
41
0.70710678118654902
41
1
41
1
41
1
10
-41.750000000000199
20
55.519431602542006
30
0
10
-47.375000000000199
20
55.519431602542006
30
0
10
-53.000000000000199
20
55.519431602542006
30
0
10
-64.000000000000313
20
55.519431602542006
30
0
10
-64.000000000000313
20
44.519431602541999
30
0
10
-64.000000000000313
20
-0.26824260941334699
30
0
10
-64.000000000000199
20
-45.055916821368697
30
0
10
-64.000000000000313
20
-56.055916821368697
30
-4.4408920985006262e-15
10
-53.000000000000199
20
-56.055916821368697
30
0
10
-1.02245975100159e-13
20
-56.055916821368697
30
0
10
53.000000000000007
20
-56.055916821368697
30
0
10
64
20
-56.055916821368697
30
-4.4408920985006262e-15
10
64
20
-45.055916821368804
30
0
10
64
20
-34.777958410684406
30
0
10
64
20
-24.500000000000099
30
0
10
64
20
-21.500000000000099
30
0
10
67
20
-21.500000000000099
30
0
10
68.638908339180702
20
-21.500000000000099
30
0
10
70.277816678361503
20
-21.500000000000099
30
0
10
73.277816678361503
20
-21.500000000000099
30
4.4408920985006262e-15
10
73.277816678361503
20
-18.500000000000099
30
0
10
73.277816678361503
20
0.124999999999961
30
0
10
73.277816678361503
20
18.75
30
0
10
73.277816678361404
20
21.749999999999901
30
0
10
70.277816678361503
20
21.749999999999901
30
0
10
68.638908339180801
20
21.749999999999901
30
0
10
67
20
21.749999999999901
30
0
10
64
20
21.749999999999901
30
0
10
64
20
24.749999999999904
30
0
10
64
20
34.6347158012709
30
0
10
64
20
44.519431602541999
30
0
10
64.000000000000099
20
55.5194316025419
30
0
10
53.000000000000107
20
55.519431602542006
30
0
10
47.375000000000107
20
55.519431602542006
30
0
10
41.75
20
55.519431602542006
30
0
0
LINE
5
138
100
AcDbEntity
8
0
100
AcDbLine
10
41.75
20
55.519431602542006
30
0
11
41.75
21
52.351503134930198
31
0
0
LINE
5
139
100
AcDbEntity
8
0
100
AcDbLine
10
41.75
20
52.351503134930198
30
0
11
42.799999999954501
21
52.351503134930198
31
0
0
LINE
5
140
100
AcDbEntity
8
0
100
AcDbLine
10
42.799999999954501
20
52.351503134930198
30
0
11
42.799999999954501
21
49.851503134930198
31
0
0
LINE
5
141
100
AcDbEntity
8
0
100
AcDbLine
10
42.799999999954501
20
49.851503134930198
30
0
11
41.75
21
49.851503134930198
31
0
0
LINE
5
142
100
AcDbEntity
8
0
100
AcDbLine
10
41.75
20
49.851503134930198
30
0
11
41.749999999999801
21
48.921174868750697
31
0
0
ENDSEC
0
SECTION
2
OBJECTS
0
DICTIONARY
5
C
100
AcDbDictionary
3
ACAD_GROUP
350
D
3
ACAD_MLINESTYLE
350
17
0
DICTIONARY
5
D
100
AcDbDictionary
0
DICTIONARY
5
1A
330
C
100
AcDbDictionary
0
DICTIONARY
5
17
100
AcDbDictionary
0
ENDSEC
0
EOF
