0
SECTION
2
HEADER
9
$INSUNITS
70
4
9
$ACADVER
1
AC1014
9
$HANDSEED
5
FFFF
0
ENDSEC
0
SECTION
2
TABLES
0
TABLE
2
VPORT
5
8
100
AcDbSymbolTable
0
ENDTAB
0
TABLE
2
LTYPE
5
5
100
AcDbSymbolTable
0
LTYPE
5
14
100
AcDbSymbolTableRecord
100
AcDbLinetypeTableRecord
2
BYBLOCK
70
0
0
LTYPE
5
15
100
AcDbSymbolTableRecord
100
AcDbLinetypeTableRecord
2
BYLAYER
70
0
0
LTYPE
5
16
100
AcDbSymbolTableRecord
100
AcDbLinetypeTableRecord
2
DASHED
70
0
3
Dashed __ __ __ __ __ __ __ __ __ __ __ __ __ _
72
65
73
2
40
0.75
49
0.5
74
0
49
-0.25
74
0
0
ENDTAB
0
TABLE
2
LAYER
5
2
100
AcDbSymbolTable
70
2
0
LAYER
5
50
100
AcDbSymbolTableRecord
100
AcDbLayerTableRecord
2
0
70
0
62
7
6
CONTINUOUS
0
ENDTAB
0
TABLE
2
STYLE
5
3
100
AcDbSymbolTable
70
1
0
STYLE
5
11
100
AcDbSymbolTableRecord
100
AcDbTextStyleTableRecord
2
STANDARD
70
0
0
ENDTAB
0
TABLE
2
VIEW
5
6
100
AcDbSymbolTable
70
0
0
ENDTAB
0
TABLE
2
UCS
5
7
100
AcDbSymbolTable
70
0
0
ENDTAB
0
TABLE
2
APPID
5
9
100
AcDbSymbolTable
70
2
0
APPID
5
12
100
AcDbSymbolTableRecord
100
AcDbRegAppTableRecord
2
ACAD
70
0
0
ENDTAB
0
TABLE
2
DIMSTYLE
5
A
100
AcDbSymbolTable
70
1
0
ENDTAB
0
TABLE
2
BLOCK_RECORD
5
1
100
AcDbSymbolTable
70
1
0
BLOCK_RECORD
5
1F
100
AcDbSymbolTableRecord
100
AcDbBlockTableRecord
2
*MODEL_SPACE
0
BLOCK_RECORD
5
1B
100
AcDbSymbolTableRecord
100
AcDbBlockTableRecord
2
*PAPER_SPACE
0
ENDTAB
0
ENDSEC
0
SECTION
2
BLOCKS
0
BLOCK
5
20
100
AcDbEntity
100
AcDbBlockBegin
2
*MODEL_SPACE
0
ENDBLK
5
21
100
AcDbEntity
100
AcDbBlockEnd
0
BLOCK
5
1C
100
AcDbEntity
100
AcDbBlockBegin
2
*PAPER_SPACE
0
ENDBLK
5
1D
100
AcDbEntity
100
AcDbBlockEnd
0
ENDSEC
0
SECTION
2
ENTITIES
0
LINE
5
100
100
AcDbEntity
8
0
100
AcDbLine
10
-24.75
20
55.519431602542006
30
0
11
-38.250000000000099
21
55.519431602542006
31
0
0
LINE
5
101
100
AcDbEntity
8
0
100
AcDbLine
10
-38.250000000000099
20
55.519431602542006
30
0
11
-38.25
21
52.351503134930198
31
0
0
LINE
5
102
100
AcDbEntity
8
0
100
AcDbLine
10
-38.25
20
52.351503134930198
30
0
11
-37.199999999954599
21
52.351503134930198
31
0
0
LINE
5
103
100
AcDbEntity
8
0
100
AcDbLine
10
-37.199999999954599
20
52.351503134930198
30
0
11
-37.199999999954599
21
49.851503134930198
31
0
0
LINE
5
104
100
AcDbEntity
8
0
100
AcDbLine
10
-37.199999999954599
20
49.851503134930198
30
0
11
-38.25
21
49.851503134930198
31
0
0
SPLINE
5
105
100
AcDbEntity
8
0
100
AcDbSpline
70
4
71
2
72
12
73
9
74
0
42
0.000000001
43
0.0000000001
44
0.0000000001
40
1610.9833297396699
40
1610.9833297396699
40
1610.9833297396699
40
1611.91365800585
40
1611.91365800585
40
1614.66255157774
40
1614.66255157774
40
1617.41144514963
40
1617.41144514963
40
1618.3417734158099
40
1618.3417734158099
40
1618.3417734158099
41
1
41
1
41
1
41
0.70710678118654802
41
1
41
0.70710678118654802
41
1
41
1
41
1
10
-41.75
20
49.851503134930198
30
0
10
-41.749999999999901
20
49.386339001840405
30
0
10
-41.749999999999801
20
48.921174868750697
30
0
10
-41.749999999999702
20
47.171174868750697
30
0
10
-39.999999999999801
20
47.171174868750697
30
0
10
-38.249999999999801
20
47.171174868750697
30
0
10
-38.249999999999801
20
48.921174868750697
30
0
10
-38.249999999999901
20
49.386339001840405
30
0
10
-38.25
20
49.851503134930198
30
0
0
LINE
5
106
100
AcDbEntity
8
0
100
AcDbLine
10
-41.75
20
49.851503134930198
30
0
11
-42.799999999954501
21
49.851503134930198
31
0
0
LINE
5
107
100
AcDbEntity
8
0
100
AcDbLine
10
-42.799999999954501
20
49.851503134930198
30
0
11
-42.799999999954501
21
52.351503134930198
31
0
0
LINE
5
108
100
AcDbEntity
8
0
100
AcDbLine
10
-42.799999999954501
20
52.351503134930198
30
0
11
-41.75
21
52.351503134930198
31
0
0
LINE
5
109
100
AcDbEntity
8
0
100
AcDbLine
10
-41.75
20
52.351503134930198
30
0
11
-41.750000000000107
21
55.519431602542006
31
0
0
SPLINE
5
110
100
AcDbEntity
8
0
100
AcDbSpline
70
4
71
2
72
42
73
39
74
0
42
0.000000001
43
0.0000000001
44
0.0000000001
40
1224.00845924328
40
1224.00845924328
40
1224.00845924328
40
1234.18950387156
40
1234.18950387156
40
1240.1718415093901
40
1240.1718415093901
40
1259.0213974309299
40
1259.0213974309299
40
1339.0213974309299
40
1339.0213974309299
40
1357.87095335247
40
1357.87095335247
40
1391.1593356185799
40
1391.1593356185799
40
1395.8717245989701
40
1395.8717245989701
40
1399.1495412773299
40
1399.1495412773299
40
1403.8619302577199
40
1403.8619302577199
40
1423.3619302577199
40
1423.3619302577199
40
1428.0743192381001
40
1428.0743192381001
40
1431.3521359164599
40
1431.3521359164599
40
1436.0645248968499
40
1436.0645248968499
40
1469.35290716296
40
1469.35290716296
40
1488.2024630845001
40
1488.2024630845001
40
1568.2024630845001
40
1568.2024630845001
40
1587.0520190060399
40
1587.0520190060399
40
1593.0343566438701
40
1593.0343566438701
40
1603.2154012721501
40
1603.2154012721501
40
1603.2154012721501
41
1
41
1
41
1
41
1
41
1
41
0.70710678118654802
41
1
41
1
41
1
41
0.70710678118654702
41
1
41
1
41
1
41
0.70710678118655401
41
1
41
1
41
1
41
0.70710678118654102
41
1
41
1
41
1
41
0.70710678118655401
41
1
41
1
41
1
41
0.70710678118654802
41
1
41
1
41
1
41
0.70710678118654802
41
1
41
1
41
1
41
0.70710678118654802
41
1
41
1
41
1
41
1
41
1
10
41.749999999999901
20
55.519431602542006
30
0
10
46.840522314142198
20
55.519431602542006
30
0
10
51.931044628284511
20
55.519431602542006
30
0
10
54.922213447199198
20
55.519431602542006
30
0
10
57.913382266113906
20
55.519431602542006
30
0
10
71.812594009981197
20
55.519431602542006
30
0
10
71.812594009981197
20
43.519431602542006
30
0
10
71.812594009981197
20
4.3004718581589803
30
0
10
71.812594009981197
20
-34.918487886224
30
0
10
71.812594009981197
20
-46.918487886224007
30
0
10
57.913382266113906
20
-46.918487886224007
30
0
10
41.2691911330569
20
-46.918487886224007
30
0
10
24.625000000000004
20
-46.9184878862239
30
0
10
21.625000000000099
20
-46.918487886224007
30
0
10
21.625
20
-49.918487886223907
30
0
10
21.625
20
-51.557396225404602
30
0
10
21.625
20
-53.196304564585404
30
0
10
21.625000000000099
20
-56.196304564585404
30
2.2204460492503131e-15
10
18.625
20
-56.196304564585404
30
0
10
2.9186986433456302e-15
20
-56.19630456458551
30
0
10
-18.625
20
-56.19630456458551
30
0
10
-21.624999999999904
20
-56.196304564585404
30
0
10
-21.624999999999904
20
-53.19630456458551
30
0
10
-21.625
20
-51.557396225404702
30
0
10
-21.625
20
-49.918487886224
30
0
10
-21.625
20
-46.918487886224007
30
0
10
-24.625000000000004
20
-46.918487886224007
30
0
10
-41.2691911330569
20
-46.918487886224007
30
0
10
-57.913382266113906
20
-46.918487886224007
30
0
10
-71.812594009981197
20
-46.918487886224007
30
0
10
-71.812594009981197
20
-34.918487886224
30
0
10
-71.812594009981197
20
4.30047185815899
30
0
10
-71.812594009981197
20
43.519431602542006
30
0
10
-71.812594009981197
20
55.519431602542006
30
0
10
-57.9133822661138
20
55.519431602542006
30
0
10
-54.922213447199098
20
55.519431602542006
30
0
10
-51.931044628284404
20
55.519431602542106
30
0
10
-46.840522314142305
20
55.519431602542006
30
0
10
-41.750000000000107
20
55.519431602542006
30
0
0
LINE
5
111
100
AcDbEntity
8
0
100
AcDbLine
10
41.749999999999901
20
55.519431602542006
30
0
11
41.75
21
52.351503134930198
31
0
0
LINE
5
112
100
AcDbEntity
8
0
100
AcDbLine
10
41.75
20
52.351503134930198
30
0
11
42.799999999954501
21
52.351503134930198
31
0
0
LINE
5
113
100
AcDbEntity
8
0
100
AcDbLine
10
42.799999999954501
20
52.351503134930198
30
0
11
42.799999999954501
21
49.851503134930198
31
0
0
LINE
5
114
100
AcDbEntity
8
0
100
AcDbLine
10
42.799999999954501
20
49.851503134930198
30
0
11
41.75
21
49.851503134930198
31
0
0
SPLINE
5
115
100
AcDbEntity
8
0
100
AcDbSpline
70
4
71
2
72
12
73
9
74
0
42
0.000000001
43
0.0000000001
44
0.0000000001
40
1208.8820870996201
40
1208.8820870996201
40
1208.8820870996201
40
1209.8124153658
40
1209.8124153658
40
1212.56130893769
40
1212.56130893769
40
1215.31020250958
40
1215.31020250958
40
1216.2405307757599
40
1216.2405307757599
40
1216.2405307757599
41
1
41
1
41
1
41
0.70710678118654802
41
1
41
0.70710678118654802
41
1
41
1
41
1
10
38.25
20
49.851503134930198
30
0
10
38.249999999999901
20
49.386339001840405
30
0
10
38.249999999999801
20
48.921174868750697
30
0
10
38.249999999999801
20
47.171174868750697
30
0
10
39.999999999999801
20
47.171174868750697
30
0
10
41.749999999999702
20
47.171174868750697
30
0
10
41.749999999999801
20
48.921174868750697
30
0
10
41.749999999999901
20
49.386339001840405
30
0
10
41.75
20
49.851503134930198
30
0
0
LINE
5
116
100
AcDbEntity
8
0
100
AcDbLine
10
38.25
20
49.851503134930198
30
0
11
37.199999999954599
21
49.851503134930198
31
0
0
LINE
5
117
100
AcDbEntity
8
0
100
AcDbLine
10
37.199999999954599
20
49.851503134930198
30
0
11
37.199999999954599
21
52.351503134930198
31
0
0
LINE
5
118
100
AcDbEntity
8
0
100
AcDbLine
10
37.199999999954599
20
52.351503134930198
30
0
11
38.25
21
52.351503134930198
31
0
0
LINE
5
119
100
AcDbEntity
8
0
100
AcDbLine
10
38.25
20
52.351503134930198
30
0
11
38.249999999999901
21
55.519431602624998
31
0
0
SPLINE
5
120
100
AcDbEntity
8
0
100
AcDbSpline
70
4
71
2
72
20
73
17
74
0
42
0.000000001
43
0.0000000001
44
0.0000000001
40
1090.7646027102901
40
1090.7646027102901
40
1090.7646027102901
40
1095.4769916906801
40
1095.4769916906801
40
1097.4769916906801
40
1097.4769916906801
40
1102.18938067106
40
1102.18938067106
40
1176.18938067106
40
1176.18938067106
40
1180.90176965145
40
1180.90176965145
40
1182.90176965145
40
1182.90176965145
40
1187.6141586318299
40
1187.6141586318299
40
1201.1141586318299
40
1201.1141586318299
40
1201.1141586318299
41
1
41
0.70710678118654802
41
1
41
1
41
1
41
0.70710678118655101
41
1
41
1
41
1
41
0.70710678118655101
41
1
41
1
41
1
41
0.70710678118655101
41
1
41
1
41
1
10
-24.75
20
55.519431602542006
30
0
10
-21.750000000000004
20
55.5194316025419
30
0
10
-21.750000000000004
20
58.519431602542006
30
0
10
-21.750000000000004
20
59.519431602541999
30
0
10
-21.750000000000004
20
60.519431602542006
30
0
10
-21.750000000000004
20
63.519431602542006
30
2.2204460492503131e-15
10
-18.75
20
63.519431602542006
30
0
10
-1.2912041573666101e-15
20
63.519431602542006
30
0
10
18.75
20
63.519431602542006
30
0
10
21.750000000000004
20
63.519431602542006
30
2.2204460492503131e-15
10
21.750000000000004
20
60.519431602542006
30
0
10
21.750000000000004
20
59.519431602541999
30
0
10
21.750000000000004
20
58.519431602541907
30
0
10
21.750000000000004
20
55.5194316025419
30
2.2204460492503131e-15
10
24.75
20
55.5194316025419
30
0
10
31.499999999999901
20
55.519431602583502
30
0
10
38.249999999999901
20
55.519431602624998
30
0
0
CIRCLE
5
121
100
AcDbEntity
8
0
100
AcDbCircle
10
-4.8750000000131903
20
-48.696304564585404
30
0
40
1.25
210
0
220
0
230
1
0
CIRCLE
5
122
100
AcDbEntity
8
0
100
AcDbCircle
10
5.1249999999868106
20
-48.696304564585404
30
0
40
1.24999999999999
210
0
220
0
230
1
0
SPLINE
5
123
100
AcDbEntity
8
0
100
AcDbSpline
70
6
71
2
72
16
73
13
74
0
42
0.000000001
43
0.0000000001
44
0.0000000001
40
-13.424777960769401
40
-13.424777960769401
40
-13.424777960769401
40
-11.068583470577
40
-11.068583470577
40
-9.0685834705770407
40
-9.0685834705770407
40
-6.7123889803846897
40
-6.7123889803846897
40
-4.3561944901923502
40
-4.3561944901923502
40
-2.3561944901923502
40
-2.3561944901923502
40
0
40
0
40
0
41
1
41
0.70710678118654502
41
1
41
1
41
1
41
0.70710678118654202
41
1
41
0.70710678118654802
41
1
41
1
41
1
41
0.70710678118654502
41
1
10
57.617009357883703
20
39.617009357883703
30
0
10
56.556349186103901
20
40.677669529663603
30
0
10
55.4956890143241
20
39.617009357883703
30
0
10
54.788582233137504
20
38.909902576697199
30
0
10
54.081475451951
20
38.20279579551061
30
0
10
53.020815280171199
20
37.142135623730809
30
0
10
54.081475451951
20
36.081475451951007
30
0
10
55.142135623730802
20
35.020815280171206
30
0
10
56.202795795510603
20
36.081475451951007
30
0
10
56.909902576697107
20
36.788582233137497
30
0
10
57.617009357883703
20
37.4956890143241
30
0
10
58.677669529663603
20
38.556349186103901
30
0
10
57.617009357883703
20
39.617009357883703
30
0
0
SPLINE
5
124
100
AcDbEntity
8
0
100
AcDbSpline
70
4
71
2
72
16
73
13
74
0
42
0.000000001
43
0.0000000001
44
0.0000000001
40
-13.424777960769401
40
-13.424777960769401
40
-13.424777960769401
40
-11.424777960769401
40
-11.424777960769401
40
-9.0685834705770407
40
-9.0685834705770407
40
-6.7123889803846897
40
-6.7123889803846897
40
-4.7123889803846897
40
-4.7123889803846897
40
-2.3561944901923502
40
-2.3561944901923502
40
0
40
0
40
0
41
1
41
1
41
1
41
0.70710678118654702
41
1
41
0.70710678118654702
41
1
41
1
41
1
41
0.70710678118654702
41
1
41
0.70710678118654702
41
1
10
-32.733031730167397
20
-9.9185245480488504
30
0
10
-32.025924948980801
20
-9.2114177668623292
30
0
10
-31.318818167794301
20
-8.5043109856757724
30
0
10
-30.258157996014496
20
-7.4436508138959399
30
0
10
-31.318818167794301
20
-6.3829906421161411
30
0
10
-32.379478339574092
20
-5.3223304703362908
30
0
10
-33.440138511354
20
-6.3829906421161411
30
0
10
-34.147245292540504
20
-7.0900974233026703
30
0
10
-34.8543520737271
20
-7.7972042044892209
30
0
10
-35.915012245506901
20
-8.8578643762690401
30
0
10
-34.8543520737271
20
-9.9185245480488824
30
0
10
-33.793691901947199
20
-10.979184719828702
30
0
10
-32.733031730167397
20
-9.9185245480488504
30
0
0
SPLINE
5
125
100
AcDbEntity
8
0
100
AcDbSpline
70
6
71
2
72
16
73
13
74
0
42
0.000000001
43
0.0000000001
44
0.0000000001
40
-13.424777960769401
40
-13.424777960769401
40
-13.424777960769401
40
-11.068583470577
40
-11.068583470577
40
-9.0685834705770407
40
-9.0685834705770407
40
-6.7123889803846897
40
-6.7123889803846897
40
-4.3561944901923502
40
-4.3561944901923502
40
-2.3561944901923502
40
-2.3561944901923502
40
0
40
0
40
0
41
1
41
0.70710678118654702
41
1
41
1
41
1
41
0.70710678118654302
41
1
41
0.70710678118654702
41
1
41
1
41
1
41
0.70710678118654402
41
1
10
24.3829906421159
20
6.382990642116031
30
0
10
25.443650813895804
20
5.3223304703361798
30
0
10
26.504310985675602
20
6.3829906421159812
30
0
10
27.211417766862205
20
7.0900974233025504
30
0
10
27.918524548048701
20
7.7972042044890912
30
0
10
28.979184719828602
20
8.8578643762688891
30
0
10
27.918524548048701
20
9.9185245480487225
30
0
10
26.8578643762689
20
10.9791847198286
30
0
10
25.797204204489002
20
9.9185245480487403
30
0
10
25.090097423302499
20
9.2114177668621906
30
0
10
24.3829906421159
20
8.5043109856756391
30
0
10
23.322330470336201
20
7.44365081389582
30
0
10
24.3829906421159
20
6.382990642116031
30
0
0
SPLINE
5
126
100
AcDbEntity
8
0
100
AcDbSpline
70
4
71
2
72
16
73
13
74
0
42
0.000000001
43
0.0000000001
44
0.0000000001
40
-15.424777960769401
40
-15.424777960769401
40
-15.424777960769401
40
-13.424777960769401
40
-13.424777960769401
40
-11.068583470577
40
-11.068583470577
40
-8.7123889803846897
40
-8.7123889803846897
40
-6.7123889803846897
40
-6.7123889803846897
40
-4.3561944901923502
40
-4.3561944901923502
40
-2
40
-2
40
-2
41
1
41
1
41
1
41
0.70710678118654502
41
1
41
0.70710678118654902
41
1
41
1
41
1
41
0.70710678118655002
41
1
41
0.70710678118654802
41
1
10
-55.495689014324405
20
6.382990642116031
30
0
10
-54.788582233137802
20
7.09009742330257
30
0
10
-54.081475451951306
20
7.7972042044891197
30
0
10
-53.020815280171504
20
8.8578643762689602
30
0
10
-54.081475451951306
20
9.9185245480487403
30
0
10
-55.142135623731207
20
10.979184719828501
30
0
10
-56.202795795511008
20
9.9185245480487705
30
0
10
-56.909902576697498
20
9.2114177668622297
30
0
10
-57.617009357884008
20
8.5043109856756907
30
0
10
-58.677669529663909
20
7.4436508138958413
30
0
10
-57.617009357884108
20
6.382990642116031
30
0
10
-56.556349186104306
20
5.3223304703361709
30
0
10
-55.495689014324405
20
6.382990642116031
30
0
0
SPLINE
5
127
100
AcDbEntity
8
0
100
AcDbSpline
70
4
71
2
72
16
73
13
74
0
42
0.000000001
43
0.0000000001
44
0.0000000001
40
-13.424777960769401
40
-13.424777960769401
40
-13.424777960769401
40
-11.424777960769401
40
-11.424777960769401
40
-9.0685834705770407
40
-9.0685834705770407
40
-6.7123889803846897
40
-6.7123889803846897
40
-4.7123889803846897
40
-4.7123889803846897
40
-2.3561944901923502
40
-2.3561944901923502
40
0
40
0
40
0
41
1
41
1
41
1
41
0.70710678118654702
41
1
41
0.70710678118654702
41
1
41
1
41
1
41
0.70710678118654702
41
1
41
0.70710678118654702
41
1
10
-61.017302977629306
20
-7.7972042044892209
30
0
10
-61.724409758815909
20
-7.0900974233026908
30
0
10
-62.431516540002399
20
-6.3829906421161411
30
0
10
-63.492176711782193
20
-5.3223304703362997
30
0
10
-64.552836883562094
20
-6.3829906421161411
30
0
10
-65.613497055341909
20
-7.4436508138959399
30
0
10
-64.552836883562094
20
-8.5043109856757724
30
0
10
-63.845730102375498
20
-9.2114177668623292
30
0
10
-63.138623321189009
20
-9.9185245480488824
30
0
10
-62.077963149409101
20
-10.979184719828702
30
0
10
-61.017302977629306
20
-9.9185245480488824
30
0
10
-59.956642805849505
20
-8.8578643762690206
30
0
10
-61.017302977629306
20
-7.7972042044892209
30
0
0
SPLINE
5
128
100
AcDbEntity
8
0
100
AcDbSpline
70
4
71
2
72
16
73
13
74
0
42
0.000000001
43
0.0000000001
44
0.0000000001
40
-15.424777960769401
40
-15.424777960769401
40
-15.424777960769401
40
-13.424777960769401
40
-13.424777960769401
40
-11.068583470577
40
-11.068583470577
40
-8.7123889803846897
40
-8.7123889803846897
40
-6.7123889803846897
40
-6.7123889803846897
40
-4.3561944901923502
40
-4.3561944901923502
40
-2
40
-2
40
-2
41
1
41
1
41
1
41
0.70710678118654702
41
1
41
0.70710678118655101
41
1
41
1
41
1
41
0.70710678118654702
41
1
41
0.70710678118654202
41
1
10
-57.617009357884008
20
37.4956890143241
30
0
10
-56.909902576697498
20
36.788582233137603
30
0
10
-56.202795795510909
20
36.081475451951007
30
0
10
-55.142135623731207
20
35.020815280171206
30
0
10
-54.081475451951306
20
36.081475451951007
30
0
10
-53.020815280171504
20
37.142135623730901
30
2.2204460492503131e-15
10
-54.081475451951306
20
38.202795795510703
30
0
10
-54.788582233137802
20
38.909902576697199
30
0
10
-55.495689014324299
20
39.617009357883802
30
0
10
-56.556349186104207
20
40.677669529663603
30
0
10
-57.617009357884008
20
39.617009357883802
30
0
10
-58.677669529663916
20
38.556349186104001
30
0
10
-57.617009357884108
20
37.4956890143241
30
0
0
SPLINE
5
129
100
AcDbEntity
8
0
100
AcDbSpline
70
4
71
2
72
16
73
13
74
0
42
0.000000001
43
0.0000000001
44
0.0000000001
40
-13.424777960769401
40
-13.424777960769401
40
-13.424777960769401
40
-11.424777960769401
40
-11.424777960769401
40
-9.0685834705770407
40
-9.0685834705770407
40
-6.7123889803846897
40
-6.7123889803846897
40
-4.7123889803846897
40
-4.7123889803846897
40
-2.3561944901923502
40
-2.3561944901923502
40
0
40
0
40
0
41
1
41
1
41
1
41
0.70710678118654702
41
1
41
0.70710678118654702
41
1
41
1
41
1
41
0.70710678118654702
41
1
41
0.70710678118654702
41
1
10
-34.8543520737271
20
-38.202795795510802
30
0
10
-34.147245292540504
20
-38.909902576697299
30
0
10
-33.440138511354
20
-39.617009357883902
30
0
10
-32.379478339574092
20
-40.677669529663603
30
0
10
-31.318818167794301
20
-39.617009357883902
30
0
10
-30.258157996014496
20
-38.556349186104001
30
0
10
-31.318818167794404
20
-37.495689014324199
30
0
10
-32.025924948980801
20
-36.788582233137703
30
0
10
-32.733031730167397
20
-36.0814754519511
30
0
10
-33.793691901947199
20
-35.020815280171298
30
0
10
-34.8543520737271
20
-36.0814754519511
30
0
10
-35.915012245506901
20
-37.142135623730901
30
0
10
-34.8543520737271
20
-38.202795795510802
30
0
0
SPLINE
5
130
100
AcDbEntity
8
0
100
AcDbSpline
70
6
71
2
72
16
73
13
74
0
42
0.000000001
43
0.0000000001
44
0.0000000001
40
-13.424777960769401
40
-13.424777960769401
40
-13.424777960769401
40
-11.068583470577
40
-11.068583470577
40
-9.0685834705770407
40
-9.0685834705770407
40
-6.7123889803846897
40
-6.7123889803846897
40
-4.3561944901923502
40
-4.3561944901923502
40
-2.3561944901923502
40
-2.3561944901923502
40
0
40
0
40
0
41
1
41
0.70710678118654802
41
1
41
1
41
1
41
0.70710678118654502
41
1
41
0.70710678118655301
41
1
41
1
41
1
41
0.70710678118655201
41
1
10
57.617009357883703
20
6.382990642116031
30
0
10
58.677669529663603
20
7.4436508138958599
30
0
10
57.617009357883703
20
8.5043109856756303
30
0
10
56.909902576697206
20
9.2114177668621906
30
0
10
56.202795795510603
20
9.9185245480487403
30
0
10
55.142135623730802
20
10.9791847198286
30
0
10
54.081475451950908
20
9.9185245480487225
30
0
10
53.020815280171107
20
8.8578643762688909
30
0
10
54.081475451950908
20
7.7972042044890797
30
0
10
54.788582233137504
20
7.0900974233025407
30
0
10
55.495689014324007
20
6.3829906421159999
30
0
10
56.556349186103901
20
5.3223304703361798
30
0
10
57.617009357883703
20
6.382990642116031
30
0
0
SPLINE
5
131
100
AcDbEntity
8
0
100
AcDbSpline
70
4
71
2
72
16
73
13
74
0
42
0.000000001
43
0.0000000001
44
0.0000000001
40
-15.424777960769401
40
-15.424777960769401
40
-15.424777960769401
40
-13.424777960769401
40
-13.424777960769401
40
-11.068583470577
40
-11.068583470577
40
-8.7123889803846897
40
-8.7123889803846897
40
-6.7123889803846897
40
-6.7123889803846897
40
-4.3561944901923502
40
-4.3561944901923502
40
-2
40
-2
40
-2
41
1
41
1
41
1
41
0.70710678118654702
41
1
41
0.70710678118654802
41
1
41
1
41
1
41
0.70710678118654802
41
1
41
0.70710678118655002
41
1
10
-24.382990642116305
20
8.5043109856756605
30
0
10
-25.090097423302801
20
9.2114177668621995
30
0
10
-25.7972042044894
20
9.9185245480487403
30
0
10
-26.857864376269202
20
10.9791847198286
30
0
10
-27.918524548049
20
9.9185245480487403
30
0
10
-28.979184719828805
20
8.8578643762689104
30
0
10
-27.918524548049
20
7.7972042044891099
30
0
10
-27.211417766862503
20
7.09009742330257
30
0
10
-26.504310985675904
20
6.3829906421160096
30
0
10
-25.443650813896102
20
5.3223304703361496
30
0
10
-24.382990642116305
20
6.3829906421160096
30
0
10
-23.3223304703365
20
7.4436508138958501
30
0
10
-24.382990642116305
20
8.5043109856756303
30
0
0
SPLINE
5
132
100
AcDbEntity
8
0
100
AcDbSpline
70
4
71
2
72
16
73
13
74
0
42
0.000000001
43
0.0000000001
44
0.0000000001
40
-13.424777960769401
40
-13.424777960769401
40
-13.424777960769401
40
-11.424777960769401
40
-11.424777960769401
40
-9.0685834705770407
40
-9.0685834705770407
40
-6.7123889803846897
40
-6.7123889803846897
40
-4.7123889803846897
40
-4.7123889803846897
40
-2.3561944901923502
40
-2.3561944901923502
40
0
40
0
40
0
41
1
41
1
41
1
41
0.70710678118654702
41
1
41
0.70710678118654702
41
1
41
1
41
1
41
0.70710678118654702
41
1
41
0.70710678118654702
41
1
10
-63.138623321189009
20
-36.0814754519511
30
0
10
-63.845730102375498
20
-36.788582233137703
30
0
10
-64.552836883562094
20
-37.495689014324199
30
0
10
-65.613497055341909
20
-38.556349186104001
30
0
10
-64.552836883562094
20
-39.617009357883902
30
0
10
-63.492176711782307
20
-40.677669529663703
30
0
10
-62.431516540002399
20
-39.617009357883902
30
0
10
-61.724409758815909
20
-38.909902576697299
30
0
10
-61.017302977629306
20
-38.202795795510802
30
0
10
-59.956642805849505
20
-37.142135623730901
30
0
10
-61.017302977629306
20
-36.0814754519511
30
0
10
-62.077963149409207
20
-35.020815280171298
30
0
10
-63.138623321189009
20
-36.0814754519511
30
0
0
SPLINE
5
133
100
AcDbEntity
8
0
100
AcDbSpline
70
6
71
2
72
16
73
13
74
0
42
0.000000001
43
0.0000000001
44
0.0000000001
40
-13.424777960769401
40
-13.424777960769401
40
-13.424777960769401
40
-11.068583470577
40
-11.068583470577
40
-9.0685834705770407
40
-9.0685834705770407
40
-6.7123889803846897
40
-6.7123889803846897
40
-4.3561944901923502
40
-4.3561944901923502
40
-2.3561944901923502
40
-2.3561944901923502
40
0
40
0
40
0
41
1
41
0.70710678118655201
41
1
41
1
41
1
41
0.70710678118654802
41
1
41
0.70710678118654302
41
1
41
1
41
1
41
0.70710678118655002
41
1
10
24.3829906421159
20
39.617009357883703
30
0
10
23.322330470336105
20
38.556349186103901
30
0
10
24.3829906421159
20
37.4956890143241
30
0
10
25.090097423302499
20
36.788582233137497
30
0
10
25.797204204489002
20
36.081475451951007
30
0
10
26.8578643762689
20
35.020815280171099
30
0
10
27.918524548048701
20
36.081475451951007
30
0
10
28.979184719828602
20
37.142135623730802
30
0
10
27.918524548048701
20
38.20279579551061
30
0
10
27.211417766862205
20
38.909902576697199
30
0
10
26.504310985675602
20
39.617009357883703
30
0
10
25.443650813895804
20
40.677669529663504
30
0
10
24.3829906421159
20
39.617009357883703
30
0
0
SPLINE
5
134
100
AcDbEntity
8
0
100
AcDbSpline
70
4
71
2
72
16
73
13
74
0
42
0.000000001
43
0.0000000001
44
0.0000000001
40
-15.424777960769401
40
-15.424777960769401
40
-15.424777960769401
40
-13.424777960769401
40
-13.424777960769401
40
-11.068583470577
40
-11.068583470577
40
-8.7123889803846897
40
-8.7123889803846897
40
-6.7123889803846897
40
-6.7123889803846897
40
-4.3561944901923502
40
-4.3561944901923502
40
-2
40
-2
40
-2
41
1
41
1
41
1
41
0.70710678118655002
41
1
41
0.70710678118655601
41
1
41
1
41
1
41
0.70710678118654802
41
1
41
0.70710678118654402
41
1
10
-26.504310985675904
20
39.617009357883703
30
0
10
-27.211417766862503
20
38.909902576697199
30
0
10
-27.918524548049
20
38.202795795510703
30
0
10
-28.979184719828904
20
37.142135623730809
30
0
10
-27.918524548049
20
36.081475451951007
30
0
10
-26.857864376269202
20
35.020815280171206
30
2.2204460492503131e-15
10
-25.7972042044894
20
36.081475451951007
30
0
10
-25.090097423302801
20
36.788582233137497
30
0
10
-24.382990642116305
20
37.4956890143241
30
0
10
-23.3223304703365
20
38.556349186103901
30
0
10
-24.382990642116305
20
39.617009357883703
30
0
10
-25.443650813896102
20
40.677669529663603
30
0
10
-26.504310985675904
20
39.617009357883703
30
0
0
CIRCLE
5
135
100
AcDbEntity
8
0
100
AcDbCircle
10
0
20
31
30
0
40
3.0000000000000004
210
0
220
0
230
1
0
CIRCLE
5
136
100
AcDbEntity
8
0
100
AcDbCircle
10
-47.935827525678206
20
-23.000000000000004
30
0
40
11
210
0
220
0
230
1
0
CIRCLE
5
137
100
AcDbEntity
8
0
100
AcDbCircle
10
-41.000000000000199
20
22.999999999999901
30
0
40
11
210
0
220
-0
230
1
0
CIRCLE
5
138
100
AcDbEntity
8
0
100
AcDbCircle
10
40.999999999999702
20
22.999999999999801
30
0
40
10.999999999999901
210
0
220
0
230
1
0
LWPOLYLINE
5
139
100
AcDbEntity
8
0
100
AcDbPolyline
90
4
70
1
43
0.0
10
42.749999999999901
20
-34.272449461962694
42
0.9999999925494194
10
48.756251947688298
20
-34.270537172976297
10
48.750000000000107
20
-5.558212481918182
42
0.99999999999999989
10
42.737496104623311
20
-5.5582124819181855
0
LINE
5
140
100
AcDbEntity
8
0
100
AcDbLine
10
-12.734913174829128
20
22.22224259353434
30
0
11
-12.7288229377825
21
20.999999999999993
31
0
0
SPLINE
5
141
100
AcDbEntity
8
0
100
AcDbSpline
70
0
71
3
72
30
73
26
74
0
42
0.000000001
43
0.0000000001
44
0.0000000001
40
0.45983663464037128
40
0.45983663464037128
40
0.45983663464037128
40
0.45983663464037128
40
0.55923117139384426
40
0.55923117139384426
40
1.0046986480252567
40
1.0046986480252567
40
1.4758022065692908
40
1.4758022065692908
40
1.9484740549514463
40
1.9484740549514463
40
2.4605026829676544
40
2.4605026829676544
40
4.9775207835607969
40
4.9775207835607969
40
7.4774164484448038
40
7.4774164484448038
40
8.0081449644063767
40
8.0081449644063767
40
8.504907289644601
40
8.504907289644601
40
8.9923358264279507
40
8.9923358264279507
40
9.4537677359362089
40
9.4537677359362089
40
9.5615953560770777
40
9.5615953560770777
40
9.5615953560770777
40
9.5615953560770777
10
12.771177062217598
20
20.999999999999915
30
0
10
12.771177062217593
20
20.877465456219255
30
0
10
12.764777722595507
20
20.822516470092715
30
0
10
12.726325920460514
20
20.478339444135262
30
0
10
12.640379199071214
20
20.205400520005064
30
0
10
12.36550983497394
20
19.691351403540509
30
0
10
12.17307845322053
20
19.456939212210671
30
0
10
11.709742040597394
20
19.075224032624554
30
0
10
11.441930152900643
20
18.930975342143203
30
0
10
10.842595082872162
20
18.750000000000004
30
0
10
10.596143273886485
20
18.750000000000004
30
0
10
6.6155054212065671
20
18.750000000000004
30
0
10
3.3077527106032862
20
18.750000000000004
30
0
10
-3.285251170739226
20
18.750000000000004
30
0
10
-6.5705023414784591
20
18.750000000000004
30
0
10
-10.55321321139612
20
18.750000000000004
30
0
10
-10.797363519758674
20
18.750000000000004
30
0
10
-11.395706603876899
20
18.929008400542479
30
0
10
-11.665048274895724
20
19.073542440989293
30
0
10
-12.127225074058689
20
19.453816266193677
30
0
10
-12.318151467184608
20
19.685116330724849
30
0
10
-12.592676987229536
20
20.192553513748386
30
0
10
-12.679596188662622
20
20.462222833576057
30
0
10
-12.721036996944186
20
20.805662965380517
30
0
10
-12.728822937782493
20
20.862225574173191
30
0
10
-12.7288229377825
20
20.999999999999993
30
0
0
LINE
5
142
100
AcDbEntity
8
0
100
AcDbLine
10
12.771177062217598
20
20.999999999999915
30
0
11
12.764935729334015
21
22.252565841406643
31
0
0
LINE
5
143
100
AcDbEntity
8
0
100
AcDbLine
10
12.764935729334015
20
22.252565841406643
30
0
11
13.999999999999897
21
23.500000000000007
31
0
0
ARC
5
144
100
AcDbEntity
8
0
100
AcDbCircle
10
15.749999999999902
20
23.500000000000007
30
0
40
1.7500000000000004
210
0
220
-0
230
1
100
AcDbArc
50
0
51
180
0
LINE
5
145
100
AcDbEntity
8
0
100
AcDbLine
10
17.499999999999901
20
23.500000000000007
30
0
11
18.749999999999908
21
22.23748052204521
31
0
0
LINE
5
146
100
AcDbEntity
8
0
100
AcDbLine
10
18.749999999999908
20
22.23748052204521
30
0
11
18.749999999999908
21
-22.23748052204521
31
0
0
LINE
5
147
100
AcDbEntity
8
0
100
AcDbLine
10
18.749999999999908
20
-22.23748052204521
30
0
11
17.499999999999901
21
-23.500000000000007
31
0
0
ARC
5
148
100
AcDbEntity
8
0
100
AcDbCircle
10
15.749999999999902
20
-23.5
30
0
40
1.7500000000000004
210
0
220
0
230
1
100
AcDbArc
50
180
51
360
0
LINE
5
149
100
AcDbEntity
8
0
100
AcDbLine
10
13.999999999999901
20
-23.500000000000007
30
0
11
12.764935729334015
21
-22.252565841406643
31
0
0
LINE
5
150
100
AcDbEntity
8
0
100
AcDbLine
10
12.764935729334015
20
-22.252565841406643
30
0
11
12.7711770622176
21
-20.999999999999908
31
0
0
SPLINE
5
151
100
AcDbEntity
8
0
100
AcDbSpline
70
0
71
3
72
30
73
26
74
0
42
0.000000001
43
0.0000000001
44
0.0000000001
40
0.45830401984702662
40
0.45830401984702662
40
0.45830401984702662
40
0.45830401984702662
40
0.56579608086447131
40
0.56579608086447131
40
1.0257920161100123
40
1.0257920161100123
40
1.5117036772302384
40
1.5117036772302384
40
2.0069200800928733
40
2.0069200800928733
40
2.5359969710289061
40
2.5359969710289061
40
5.0281129705712591
40
5.0281129705712591
40
7.5372981208710925
40
7.5372981208710925
40
8.0477333178384196
40
8.0477333178384196
40
8.5189342133131163
40
8.5189342133131163
40
8.9885716994614064
40
8.9885716994614064
40
9.4326528830817864
40
9.4326528830817864
40
9.5317381044332752
40
9.5317381044332752
40
9.5317381044332752
40
9.5317381044332752
10
-12.72882293778251
20
-21.000000000002569
30
0
10
-12.728822937782668
20
-20.862225574173927
30
0
10
-12.721036996944243
20
-20.805662965381014
30
0
10
-12.679596188662661
20
-20.462222833576206
30
0
10
-12.59267698722959
20
-20.192553513748528
30
0
10
-12.318151467184705
20
-19.685116330724981
30
0
10
-12.127225074058799
20
-19.453816266193794
30
0
10
-11.665048274895867
20
-19.073542440989385
30
0
10
-11.395706603877054
20
-18.92900840054255
30
0
10
-10.797363519758758
20
-18.75
30
0
10
-10.553213211396129
20
-18.75
30
0
10
-6.5705023414784218
20
-18.750000000000004
30
0
10
-3.2852511707391896
20
-18.750000000000004
30
0
10
3.3077527106033218
20
-18.750000000000004
30
0
10
6.6155054212066027
20
-18.750000000000004
30
0
10
10.596143273886483
20
-18.750000000000004
30
0
10
10.842595082872094
20
-18.750000000000004
30
0
10
11.441930152900518
20
-18.930975342143142
30
0
10
11.709742040597282
20
-19.075224032624483
30
0
10
12.173078453220436
20
-19.456939212210571
30
0
10
12.365509834973857
20
-19.691351403540395
30
0
10
12.640379199071166
20
-20.205400520004932
30
0
10
12.726325920460484
20
-20.478339444135134
30
0
10
12.764777722595502
20
-20.822516470092634
30
0
10
12.771177062217596
20
-20.877465456219216
30
0
10
12.7711770622176
20
-20.999999999999908
30
0
0
LINE
5
152
100
AcDbEntity
8
0
100
AcDbLine
10
-12.72882293778251
20
-21.000000000002569
30
0
11
-12.734913174829128
21
-22.22224259353434
31
0
0
LINE
5
153
100
AcDbEntity
8
0
100
AcDbLine
10
-12.734913174829128
20
-22.22224259353434
30
0
11
-13.999999999999897
21
-23.500000000000007
31
0
0
ARC
5
154
100
AcDbEntity
8
0
100
AcDbCircle
10
-15.749999999999902
20
-23.500000000000007
30
0
40
1.7500000000000004
210
0
220
0
230
1
100
AcDbArc
50
-180
51
0
0
LINE
5
155
100
AcDbEntity
8
0
100
AcDbLine
10
-17.499999999999901
20
-23.500000000000007
30
0
11
-18.749999999999908
21
-22.23748052204521
31
0
0
LINE
5
156
100
AcDbEntity
8
0
100
AcDbLine
10
-18.749999999999908
20
-22.23748052204521
30
0
11
-18.749999999999908
21
22.23748052204521
31
0
0
LINE
5
157
100
AcDbEntity
8
0
100
AcDbLine
10
-18.749999999999908
20
22.23748052204521
30
0
11
-17.499999999999901
21
23.500000000000007
31
0
0
ARC
5
158
100
AcDbEntity
8
0
100
AcDbCircle
10
-15.749999999999902
20
23.5
30
0
40
1.7500000000000004
210
0
220
-0
230
1
100
AcDbArc
50
0
51
180
0
LINE
5
159
100
AcDbEntity
8
0
100
AcDbLine
10
-13.999999999999901
20
23.500000000000007
30
0
11
-12.734913174829128
21
22.22224259353434
31
0
0
ENDSEC
0
SECTION
2
OBJECTS
0
DICTIONARY
5
C
100
AcDbDictionary
3
ACAD_GROUP
350
D
3
ACAD_MLINESTYLE
350
17
0
DICTIONARY
5
D
100
AcDbDictionary
0
DICTIONARY
5
1A
330
C
100
AcDbDictionary
0
DICTIONARY
5
17
100
AcDbDictionary
0
ENDSEC
0
EOF
