0
SECTION
2
HEADER
9
$INSUNITS
70
4
9
$ACADVER
1
AC1014
9
$HANDSEED
5
FFFF
0
ENDSEC
0
SECTION
2
TABLES
0
TABLE
2
VPORT
5
8
100
AcDbSymbolTable
0
ENDTAB
0
TABLE
2
LTYPE
5
5
100
AcDbSymbolTable
0
LTYPE
5
14
100
AcDbSymbolTableRecord
100
AcDbLinetypeTableRecord
2
BYBLOCK
70
0
0
LTYPE
5
15
100
AcDbSymbolTableRecord
100
AcDbLinetypeTableRecord
2
BYLAYER
70
0
0
LTYPE
5
16
100
AcDbSymbolTableRecord
100
AcDbLinetypeTableRecord
2
DASHED
70
0
3
Dashed __ __ __ __ __ __ __ __ __ __ __ __ __ _
72
65
73
2
40
0.75
49
0.5
74
0
49
-0.25
74
0
0
ENDTAB
0
TABLE
2
LAYER
5
2
100
AcDbSymbolTable
70
2
0
LAYER
5
50
100
AcDbSymbolTableRecord
100
AcDbLayerTableRecord
2
0
70
0
62
7
6
CONTINUOUS
0
ENDTAB
0
TABLE
2
STYLE
5
3
100
AcDbSymbolTable
70
1
0
STYLE
5
11
100
AcDbSymbolTableRecord
100
AcDbTextStyleTableRecord
2
STANDARD
70
0
0
ENDTAB
0
TABLE
2
VIEW
5
6
100
AcDbSymbolTable
70
0
0
ENDTAB
0
TABLE
2
UCS
5
7
100
AcDbSymbolTable
70
0
0
ENDTAB
0
TABLE
2
APPID
5
9
100
AcDbSymbolTable
70
2
0
APPID
5
12
100
AcDbSymbolTableRecord
100
AcDbRegAppTableRecord
2
ACAD
70
0
0
ENDTAB
0
TABLE
2
DIMSTYLE
5
A
100
AcDbSymbolTable
70
1
0
ENDTAB
0
TABLE
2
BLOCK_RECORD
5
1
100
AcDbSymbolTable
70
1
0
BLOCK_RECORD
5
1F
100
AcDbSymbolTableRecord
100
AcDbBlockTableRecord
2
*MODEL_SPACE
0
BLOCK_RECORD
5
1B
100
AcDbSymbolTableRecord
100
AcDbBlockTableRecord
2
*PAPER_SPACE
0
ENDTAB
0
ENDSEC
0
SECTION
2
BLOCKS
0
BLOCK
5
20
100
AcDbEntity
100
AcDbBlockBegin
2
*MODEL_SPACE
0
ENDBLK
5
21
100
AcDbEntity
100
AcDbBlockEnd
0
BLOCK
5
1C
100
AcDbEntity
100
AcDbBlockBegin
2
*PAPER_SPACE
0
ENDBLK
5
1D
100
AcDbEntity
100
AcDbBlockEnd
0
ENDSEC
0
SECTION
2
ENTITIES
0
SPLINE
5
100
100
AcDbEntity
8
0
100
AcDbSpline
70
4
71
2
72
12
73
9
74
0
42
0.000000001
43
0.0000000001
44
0.0000000001
40
192.28027035569201
40
192.28027035569201
40
192.28027035569201
40
196.29900324168901
40
196.29900324168901
40
247.93020882075101
40
247.93020882075101
40
252.249898719437
40
252.249898719437
40
256.56958861812302
40
256.56958861812302
40
256.56958861812302
41
1
41
0.72828135689409601
41
1
41
1
41
1
41
0.70710678118654802
41
1
41
0.70710678118654802
41
1
10
-15.7500131701568
20
-12.756285721061502
30
0
10
-15.494867561899001
20
-10.2884745000948
30
0
10
-13.013901799542502
20
-10.2884745000969
30
0
10
-6.4233430812856707
20
-10.288474500097999
30
0
10
0.167215636971149
20
-10.288474500099101
30
0
10
2.9172156369708899
20
-10.288474500099101
30
0
10
2.9172156369709201
20
-13.038474500099102
30
0
10
2.9172156369708908
20
-15.788474500099101
30
0
10
0.0351311225406334
20
-15.750000000000002
30
0
0
ARC
5
101
100
AcDbEntity
8
0
100
AcDbCircle
10
-18.740358386768619
20
-12.759668413634175
30
0
40
2.9903471298701185
210
0
220
0
230
1
100
AcDbArc
50
-90.184735978512975
51
0.064813227598940426
0
SPLINE
5
102
100
AcDbEntity
8
0
100
AcDbSpline
70
0
71
3
72
14
73
10
74
0
42
0.000000001
43
0.0000000001
44
0.0000000001
40
178.33378972409699
40
178.33378972409699
40
178.33378972409699
40
178.33378972409699
40
183.36544054499899
40
183.36544054499899
40
183.36544054499899
40
185.52683390607029
40
185.52683390607029
40
185.52683390607029
40
187.56788137530799
40
187.56788137530799
40
187.56788137530799
40
187.56788137530799
10
-21.393632628487001
20
-21.798322208747503
30
0
10
-21.393632628487001
20
-20.698195517798968
30
0
10
-21.393632628487001
20
-19.598068826850433
30
0
10
-21.393632628487001
20
-18.497942135901901
30
0
10
-21.393632628487001
20
-17.849296233033293
30
0
10
-21.124695913805343
20
-17.089280532259863
30
0
10
-20.587021056505961
20
-16.552243953284528
30
0
10
-20.079283813240025
20
-16.045109449150402
30
0
10
-19.37168758924992
20
-15.774064289384366
30
0
10
-18.750000000002199
20
-15.750000000000002
30
0
0
LINE
5
103
100
AcDbEntity
8
0
100
AcDbLine
10
-21.393632628487001
20
-21.798322208747503
30
0
11
-20.3436326284416
21
-21.798322208747503
31
0
0
LINE
5
104
100
AcDbEntity
8
0
100
AcDbLine
10
-20.3436326284416
20
-21.798322208747503
30
0
11
-20.3436326284416
21
-24.298322208747503
31
0
0
LINE
5
105
100
AcDbEntity
8
0
100
AcDbLine
10
-20.3436326284416
20
-24.298322208747503
30
0
11
-21.393632628487001
21
-24.2983222087474
31
0
0
ARC
5
106
100
AcDbEntity
8
0
100
AcDbCircle
10
-23.143632628487005
20
-24.2983222087474
30
0
40
1.7499999999999982
210
0
220
0
230
1
100
AcDbArc
50
-180
51
0
0
LINE
5
107
100
AcDbEntity
8
0
100
AcDbLine
10
-24.893632628487001
20
-24.298322208747503
30
0
11
-25.943632628441403
21
-24.298322208747503
31
0
0
LINE
5
108
100
AcDbEntity
8
0
100
AcDbLine
10
-25.943632628441403
20
-24.298322208747503
30
0
11
-25.943632628441403
21
-21.798322208747503
31
0
0
LINE
5
109
100
AcDbEntity
8
0
100
AcDbLine
10
-25.943632628441403
20
-21.798322208747503
30
0
11
-24.893632628487001
21
-21.798322208747503
31
0
0
SPLINE
5
110
100
AcDbEntity
8
0
100
AcDbSpline
70
0
71
3
72
14
73
10
74
0
42
0.000000001
43
0.0000000001
44
0.0000000001
40
154.40191092910399
40
154.40191092910399
40
154.40191092910399
40
154.40191092910399
40
156.54430035543024
40
156.54430035543024
40
156.54430035543024
40
158.604351759412
40
158.604351759412
40
158.604351759412
40
163.63600258031499
40
163.63600258031499
40
163.63600258031499
40
163.63600258031499
10
-27.537265256970805
20
-15.750000000000002
30
0
10
-26.894803661453576
20
-15.774868409825558
30
0
10
-26.149610630614806
20
-16.072740122223713
30
0
10
-25.634393105447639
20
-16.62541500107141
30
0
10
-25.138976831900834
20
-17.156849037351172
30
0
10
-24.893632628487072
20
-17.879709505526147
30
0
10
-24.893632628487001
20
-18.497942135901901
30
0
10
-24.893632628487001
20
-19.598068826850433
30
0
10
-24.893632628487001
20
-20.698195517798968
30
0
10
-24.893632628487001
20
-21.798322208747503
30
0
0
LINE
5
111
100
AcDbEntity
8
0
100
AcDbLine
10
-27.537265256970805
20
-15.750000000000002
30
0
11
-28.5342731200525
21
-15.750000000000002
31
0
0
ARC
5
112
100
AcDbEntity
8
0
100
AcDbCircle
10
-28.640640491564081
20
-18.49794213590069
30
0
40
2.7499999999964935
210
0
220
-0
230
1
100
AcDbArc
50
87.783301055837114
51
175.5666021116823
0
LINE
5
113
100
AcDbEntity
8
0
100
AcDbLine
10
-31.382412115035297
20
-18.285366585310495
30
0
11
-31.445767523774904
21
-19.025216153226413
31
0
0
SPLINE
5
114
100
AcDbEntity
8
0
100
AcDbSpline
70
0
71
3
72
48
73
44
74
0
42
0.000000001
43
0.0000000001
44
0.0000000001
40
0
40
0
40
0
40
0
40
0.67816404954922371
40
0.67816404954922371
40
1.3739990761280971
40
1.3739990761280971
40
2.4463685274523495
40
2.4463685274523495
40
3.4807272776555558
40
3.4807272776555558
40
4.5558560332659326
40
4.5558560332659326
40
5.5879621766604792
40
5.5879621766604792
40
6.6501449741560563
40
6.6501449741560563
40
7.6816117902489669
40
7.6816117902489669
40
8.7580340180906617
40
8.7580340180906617
40
9.793509960954891
40
9.793509960954891
40
9.8902377146418203
40
9.8902377146418203
40
9.9529991034290433
40
9.9529991034290433
40
10.020726459941438
40
10.020726459941438
40
10.042118070895841
40
10.042118070895841
40
10.048974267363471
40
10.048974267363471
40
10.050480125607569
40
10.050480125607569
40
10.051212327629855
40
10.051212327629855
40
10.051573514873953
40
10.051573514873953
40
10.051752911225851
40
10.051752911225851
40
10.051775261881115
40
10.051775261881115
40
10.051777544751641
40
10.051777544751641
40
10.051777544751641
40
10.051777544751641
10
5.2301531241489503e-15
20
-62.510040392812307
30
0
10
-1.3790646701498974
20
-64.301199965392144
30
0
10
-2.9776308271145471
20
-65.912098971528621
30
0
10
-6.5850422994381228
20
-68.733969673823267
30
0
10
-8.5885029351791502
20
-69.921700878704172
30
0
10
-14.002316806939108
20
-72.251943637281585
30
0
10
-17.533850316159445
20
-72.999179132606528
30
0
10
-24.555885278839877
20
-73.073413264584403
30
0
10
-27.978839424355883
20
-72.449131577872635
30
0
10
-34.531132005338925
20
-69.897423846500203
30
0
10
-37.578490525905146
20
-67.944951364973264
30
0
10
-42.629652189532614
20
-63.063970309334607
30
0
10
-44.624093377189567
20
-60.222328974478351
30
0
10
-47.479694858209399
20
-53.852133805413075
30
0
10
-48.278449628190799
20
-50.367738789200104
30
0
10
-48.482689416042547
20
-43.391895985244872
30
0
10
-47.925929410927068
20
-39.967345863411538
30
0
10
-45.506020272073812
20
-33.370916021012739
30
0
10
-43.611087734772568
20
-30.282238772748173
30
0
10
-38.817839356724555
20
-25.126504982747811
30
0
10
-36.004601144399686
20
-23.072563931824106
30
0
10
-32.589201823135987
20
-21.466881372383906
30
0
10
-32.307785089191135
20
-21.340786071312252
30
0
10
-31.858023800008905
20
-20.854609277726066
30
0
10
-31.720127812117738
20
-20.630527193908627
30
0
10
-31.53086366729832
20
-20.122775072536719
30
0
10
-31.514235665982394
20
-19.90830928831955
30
0
10
-31.476308099063552
20
-19.419124495261649
30
0
10
-31.467204181244064
20
-19.301703355011078
30
0
10
-31.455182378963759
20
-19.146647722962438
30
0
10
-31.452264494502948
20
-19.109013231164361
30
0
10
-31.448705741538525
20
-19.063112901302269
30
0
10
-31.448064873034923
20
-19.054847063238249
30
0
10
-31.447112391392299
20
-19.042562079700151
30
0
10
-31.446800778253273
20
-19.038542934226069
30
0
10
-31.44633544976319
20
-19.032541188276674
30
0
10
-31.446181734412125
20
-19.030558587801359
30
0
10
-31.445951670924011
20
-19.027591259049082
30
0
10
-31.445875322786968
20
-19.026606530772121
30
0
10
-31.445789462578617
20
-19.025499117044674
30
0
10
-31.445779950507308
20
-19.025376431594193
30
0
10
-31.445775253799667
20
-19.025315854073884
30
0
10
-31.445771388789655
20
-19.025266003680731
30
0
10
-31.445767523779647
20
-19.025216153287577
30
0
0
LINE
5
115
100
AcDbEntity
8
0
100
AcDbLine
10
5.2301531241489503e-15
20
-62.510040392812307
30
0
11
7.0487959127378002e-16
21
-21.750000000000007
31
0
0
SPLINE
5
116
100
AcDbEntity
8
0
100
AcDbSpline
70
0
71
3
72
26
73
22
74
0
42
0.000000001
43
0.0000000001
44
0.0000000001
40
-2.8204731782479899
40
-2.8204731782479899
40
-2.8204731782479899
40
-2.8204731782479899
40
0
40
0
40
0
40
2.3065112216323289
40
2.3065112216323289
40
2.3065112216323289
40
4.4660256146490296
40
4.4660256146490296
40
4.4660256146490296
40
5.9750995938264984
40
5.9750995938264984
40
5.9750995938264984
40
8.3206031735771617
40
8.3206031735771617
40
8.3206031735771617
40
9.4247779555739193
40
9.4247779555739193
40
9.4247779555739193
40
12.245251139017901
40
12.245251139017901
40
12.245251139017901
40
12.245251139017901
10
0.0351311225406334
20
-15.750000000000002
30
0
10
-0.91673697772224183
20
-15.750000000000002
30
0
10
-1.8686050779851169
20
-15.750000000000002
30
0
10
-2.8204731782479904
20
-15.750000000000002
30
0
10
-3.5126697404081813
20
-15.749999999999932
30
0
10
-4.3210979809981263
20
-16.02866229354229
30
0
10
-4.9044166279182759
20
-16.591950024077967
30
0
10
-5.4505596520339816
20
-17.11933872702156
30
0
10
-5.7619834439794584
20
-17.859487621677182
30
0
10
-5.8120285085402887
20
-18.525062884785587
30
0
10
-5.847000122973248
20
-18.99016851871378
30
0
10
-5.7789855606855367
20
-19.463453748444802
30
0
10
-5.5771088963136695
20
-19.933621357481218
30
0
10
-5.2633386998317029
20
-20.664387261137453
30
0
10
-4.5933970819799228
20
-21.294685153144041
30
0
10
-3.8550897933833155
20
-21.56594894479397
30
0
10
-3.5075225176516636
20
-21.693649725383061
30
0
10
-3.1518420408567667
20
-21.749999999426095
30
0
10
-2.8204731834439301
20
-21.750000000000004
30
0
10
-1.88031545562929
20
-21.750000000000004
30
0
10
-0.94015772781464646
20
-21.750000000000004
30
0
10
7.0487959127378002e-16
20
-21.750000000000004
30
0
0
SPLINE
5
117
100
AcDbEntity
8
0
100
AcDbSpline
70
0
71
3
72
35
73
31
74
0
42
0.000000001
43
0.0000000001
44
0.0000000001
40
275.98774897787899
40
275.98774897787899
40
275.98774897787899
40
275.98774897787899
40
277.44639571047202
40
277.44639571047202
40
277.44639571047202
40
278.82522650373056
40
278.82522650373056
40
278.82522650373056
40
279.94695739869525
40
279.94695739869525
40
279.94695739869525
40
281.31573166103163
40
281.31573166103163
40
281.31573166103163
40
282.15878469085601
40
282.15878469085601
40
282.15878469085601
40
283.61882575838797
40
283.61882575838797
40
283.61882575838797
40
284.99765655164708
40
284.99765655164708
40
284.99765655164708
40
286.11938744661234
40
286.11938744661234
40
286.11938744661234
40
287.48816170894867
40
287.48816170894867
40
287.48816170894867
40
288.33121473877299
40
288.33121473877299
40
288.33121473877299
40
288.33121473877299
10
-3.4208920596529402
20
-61.889894725174408
30
0
10
-4.1085047236336605
20
-61.202282061193607
30
0
10
-4.7961173876144567
20
-60.514669397212799
30
0
10
-5.4837300515953302
20
-59.827056733231998
30
0
10
-5.7763270335078847
20
-59.53445975131941
30
0
10
-6.2774658761371906
20
-59.334832713954846
30
0
10
-6.7550717665911613
20
-59.402586174285396
30
0
10
-7.1436221859455395
20
-59.457706171652099
30
0
10
-7.4706461559068877
20
-59.657507460415488
30
0
10
-7.6943343666618595
20
-59.924582196198784
30
0
10
-7.9672863438641279
20
-60.250475889687536
30
0
10
-8.113630607605181
20
-60.774605595623676
30
0
10
-8.0033294950600187
20
-61.23627995746488
30
0
10
-7.9353930283372502
20
-61.520633616247224
30
0
10
-7.7839518044684368
20
-61.769475667478133
30
0
10
-7.6050503951548709
20
-61.948377076791701
30
0
10
-6.9174377311741777
20
-62.635989740772473
30
0
10
-6.2298250671933335
20
-63.323602404753146
30
0
10
-5.5422124032123401
20
-64.011215068733719
30
0
10
-5.2496154212997492
20
-64.303812050646386
30
0
10
-4.7484765786704664
20
-64.503439088011021
30
0
10
-4.2708706882165091
20
-64.435685627680513
30
0
10
-3.8823202688621046
20
-64.380565630313839
30
0
10
-3.5552962989007906
20
-64.180764341550528
30
0
10
-3.3316080881457393
20
-63.913689605767075
30
0
10
-3.058656110943522
20
-63.587795912278338
30
0
10
-2.91231184720252
20
-63.063666206342226
30
0
10
-3.0226129597477036
20
-62.601991844501079
30
0
10
-3.0905494264704836
20
-62.317638185718771
30
0
10
-3.241990650339293
20
-62.068796134487926
30
0
10
-3.4208920596528403
20
-61.889894725174408
30
0
0
SPLINE
5
118
100
AcDbEntity
8
0
100
AcDbSpline
70
0
71
3
72
35
73
31
74
0
42
0.000000001
43
0.0000000001
44
0.0000000001
40
318.21116014019498
40
318.21116014019498
40
318.21116014019498
40
318.21116014019498
40
319.67120120772802
40
319.67120120772802
40
319.67120120772802
40
321.05003200098662
40
321.05003200098662
40
321.05003200098662
40
322.17176289595142
40
322.17176289595142
40
322.17176289595142
40
323.54053715828769
40
323.54053715828769
40
323.54053715828769
40
324.38359018811201
40
324.38359018811201
40
324.38359018811201
40
325.84223692070498
40
325.84223692070498
40
325.84223692070498
40
327.22106771396352
40
327.22106771396352
40
327.22106771396352
40
328.34279860892883
40
328.34279860892883
40
328.34279860892883
40
329.71157287126516
40
329.71157287126516
40
329.71157287126516
40
330.55462590108903
40
330.55462590108903
40
330.55462590108903
40
330.55462590108903
10
-37.247024740950309
20
-64.013186956117494
30
0
10
-36.558754781175033
20
-63.324916996342296
30
0
10
-35.870484821399764
20
-62.636647036567041
30
0
10
-35.182214861624502
20
-61.948377076791701
30
0
10
-34.889617879711913
20
-61.655780094879056
30
0
10
-34.689990842347349
20
-61.154641252249675
30
0
10
-34.757744302677885
20
-60.67703536179566
30
0
10
-34.812864300044581
20
-60.288484942441229
30
0
10
-35.012665588807899
20
-59.961460972479884
30
0
10
-35.279740324591288
20
-59.737772761724926
30
0
10
-35.605634018080082
20
-59.464820784522729
30
0
10
-36.129763724016343
20
-59.318476520781715
30
0
10
-36.591438085857469
20
-59.428777633326895
30
0
10
-36.875791744639777
20
-59.49671410004968
30
0
10
-37.124633795870579
20
-59.648155323918459
30
0
10
-37.303535205184097
20
-59.827056733231998
30
0
10
-37.991147869164962
20
-60.514669397212799
30
0
10
-38.67941782894016
20
-61.202939356988139
30
0
10
-39.368345084509698
20
-61.891866612557997
30
0
10
-39.660942066422308
20
-62.184463594470579
30
0
10
-39.860569103786908
20
-62.685602437099902
30
0
10
-39.792815643456393
20
-63.163208327553868
30
0
10
-39.737695646089684
20
-63.551758746908462
30
0
10
-39.537894357326159
20
-63.878782716869921
30
0
10
-39.270819621542607
20
-64.102470927624907
30
0
10
-38.944925928053749
20
-64.375422904827019
30
0
10
-38.420796222117637
20
-64.521767168567834
30
0
10
-37.959121860276561
20
-64.411466056022533
30
0
10
-37.674768201494452
20
-64.343529589299706
30
0
10
-37.425926150263727
20
-64.192088365430934
30
0
10
-37.247024740950309
20
-64.013186956117494
30
0
0
SPLINE
5
119
100
AcDbEntity
8
0
100
AcDbSpline
70
0
71
3
72
35
73
31
74
0
42
0.000000001
43
0.0000000001
44
0.0000000001
40
0
40
0
40
0
40
0
40
1.378830793258665
40
1.378830793258665
40
1.378830793258665
40
2.500561688222994
40
2.500561688222994
40
2.500561688222994
40
3.869335950559476
40
3.869335950559476
40
3.869335950559476
40
4.7123889803844001
40
4.7123889803844001
40
4.7123889803844001
40
6.1817411459398013
40
6.1817411459398013
40
6.1817411459398013
40
7.5605719391985193
40
7.5605719391985193
40
7.5605719391985193
40
8.682302834162817
40
8.682302834162817
40
8.682302834162817
40
10.051077096499409
40
10.051077096499409
40
10.051077096499409
40
10.8941301263244
40
10.8941301263244
40
10.8941301263244
40
12.3584979609891
40
12.3584979609891
40
12.3584979609891
40
12.3584979609891
10
-3.4128011997387402
20
-30.211708266573503
30
0
10
-3.1202042178261453
20
-29.919111284660946
30
0
10
-2.9205771804615606
20
-29.417972442031651
30
0
10
-2.9883306407920895
20
-28.940366551577682
30
0
10
-3.0434506381587552
20
-28.551816132223465
30
0
10
-3.2432519269220466
20
-28.224792162262197
30
0
10
-3.5103266627051339
20
-28.001103951507304
30
0
10
-3.8362203561937407
20
-27.728151974305028
30
0
10
-4.3603500621297711
20
-27.58180771056384
30
0
10
-4.8220244239709764
20
-27.692108823108853
30
0
10
-5.1063780827534906
20
-27.760045289831574
30
0
10
-5.3552201339845453
20
-27.911486513700453
30
0
10
-5.5341215432981796
20
-28.090387923014099
30
0
10
-6.2244311606602141
20
-28.780697540375833
30
0
10
-6.9147407780221934
20
-29.471007157737667
30
0
10
-7.6050503953841204
20
-30.161316775099603
30
0
10
-7.8976473772967513
20
-30.453913757012202
30
0
10
-8.0972744146613476
20
-30.95505259964154
30
0
10
-8.0295209543308026
20
-31.432658490095516
30
0
10
-7.9744009569641294
20
-31.821208909449716
30
0
10
-7.7745996682008194
20
-32.148232879410983
30
0
10
-7.5075249324177467
20
-32.371921090165891
30
0
10
-7.1816312389291213
20
-32.644873067368209
30
0
10
-6.6575015329930718
20
-32.791217331109458
30
0
10
-6.1958271711518398
20
-32.680916218564455
30
0
10
-5.9114735123693087
20
-32.612979751841749
30
0
10
-5.6626314611382345
20
-32.461538527972863
30
0
10
-5.4837300518245797
20
-32.282637118659203
30
0
10
-4.7934204344626536
20
-31.592327501297337
30
0
10
-4.1031108171007435
20
-30.902017883935432
30
0
10
-3.4128011997388503
20
-30.211708266573503
30
0
0
CIRCLE
5
120
100
AcDbEntity
8
0
100
AcDbCircle
10
-21.393632628486799
20
-46.038474500094402
30
0
40
18
210
-0
220
0
230
1
0
ENDSEC
0
SECTION
2
OBJECTS
0
DICTIONARY
5
C
100
AcDbDictionary
3
ACAD_GROUP
350
D
3
ACAD_MLINESTYLE
350
17
0
DICTIONARY
5
D
100
AcDbDictionary
0
DICTIONARY
5
1A
330
C
100
AcDbDictionary
0
DICTIONARY
5
17
100
AcDbDictionary
0
ENDSEC
0
EOF
